<svg id="svg" version="1.1" xmlns="http://www.w3.org/2000/svg" xmlns:xlink="http://www.w3.org/1999/xlink" width="400" height="400" viewBox="0, 0, 400,400"><g id="svgg"><path id="path0" d="M196.947 183.803 C 195.876 185.703,194.513 188.100,193.918 189.129 C 193.323 190.158,192.560 191.573,192.224 192.273 C 191.887 192.973,191.414 193.667,191.173 193.817 C 190.931 193.966,190.386 194.833,189.961 195.744 C 189.210 197.351,188.652 198.354,185.500 203.758 C 184.675 205.173,184.000 206.504,184.000 206.716 C 184.000 206.928,183.705 207.347,183.345 207.645 C 182.985 207.944,182.344 208.911,181.921 209.794 C 180.890 211.945,179.973 213.552,178.952 215.000 C 178.486 215.660,177.984 216.589,177.837 217.064 C 177.690 217.539,177.306 218.146,176.985 218.413 C 176.663 218.680,176.400 219.312,176.400 219.818 C 176.400 220.324,175.975 221.247,175.455 221.869 C 174.935 222.491,174.370 223.447,174.198 223.992 C 174.027 224.538,173.581 225.438,173.206 225.992 C 171.016 229.232,169.962 231.064,168.450 234.256 C 168.019 235.167,167.476 236.029,167.244 236.173 C 167.013 236.316,166.451 237.191,165.997 238.117 C 164.322 241.533,163.586 242.800,163.277 242.800 C 163.103 242.800,162.722 243.475,162.431 244.300 C 162.140 245.125,161.675 246.070,161.399 246.400 C 161.123 246.730,160.580 247.630,160.194 248.400 C 159.808 249.170,159.260 249.936,158.977 250.102 C 158.694 250.269,158.345 250.942,158.200 251.598 C 158.056 252.254,157.757 252.903,157.536 253.039 C 157.315 253.176,156.795 254.078,156.381 255.044 C 155.967 256.010,155.466 256.800,155.269 256.800 C 155.071 256.800,154.599 257.610,154.221 258.600 C 153.843 259.590,153.388 260.400,153.210 260.400 C 153.032 260.400,152.781 260.821,152.652 261.335 C 152.523 261.849,152.056 262.729,151.615 263.290 C 151.173 263.852,150.161 265.546,149.365 267.055 C 148.569 268.565,147.685 270.070,147.400 270.400 C 146.874 271.011,145.864 272.879,144.452 275.856 C 144.020 276.767,143.456 277.642,143.200 277.800 C 142.944 277.958,142.381 278.833,141.950 279.744 C 140.680 282.425,139.939 283.749,139.232 284.600 C 138.866 285.040,138.214 286.105,137.783 286.967 C 136.150 290.233,135.496 291.406,135.200 291.600 C 134.894 291.800,133.815 293.768,132.571 296.393 C 132.208 297.160,131.595 298.008,131.208 298.279 C 130.822 298.550,130.405 299.275,130.282 299.891 C 130.159 300.507,129.685 301.441,129.229 301.967 C 128.773 302.492,128.400 303.151,128.400 303.431 C 128.400 303.710,127.989 304.447,127.486 305.069 C 126.983 305.691,125.975 307.370,125.247 308.800 C 124.518 310.230,123.600 311.760,123.207 312.200 C 122.814 312.640,122.356 313.450,122.191 314.000 C 122.025 314.550,121.555 315.429,121.145 315.954 C 120.735 316.479,120.400 317.132,120.400 317.405 C 120.400 317.678,120.101 318.149,119.735 318.451 C 119.369 318.753,118.723 319.720,118.300 320.600 C 116.664 323.999,115.898 325.422,115.391 326.000 C 115.102 326.330,114.202 327.860,113.391 329.400 C 112.581 330.940,111.673 332.477,111.374 332.815 C 111.075 333.153,110.538 334.053,110.181 334.815 C 109.823 335.577,109.194 336.815,108.783 337.567 C 108.372 338.319,108.128 339.084,108.241 339.267 C 108.355 339.450,121.287 339.600,136.979 339.600 C 169.661 339.600,166.199 340.059,168.623 335.400 C 169.424 333.860,170.401 332.240,170.794 331.800 C 171.187 331.360,171.644 330.550,171.809 330.000 C 171.975 329.450,172.445 328.571,172.855 328.046 C 173.265 327.521,173.600 326.868,173.600 326.595 C 173.600 326.322,173.890 325.857,174.245 325.563 C 174.862 325.050,175.887 323.251,177.528 319.794 C 177.948 318.911,178.585 317.944,178.945 317.645 C 179.305 317.347,179.600 316.928,179.600 316.716 C 179.600 316.504,180.275 315.173,181.100 313.758 C 184.262 308.338,184.811 307.349,185.580 305.700 C 186.015 304.765,186.538 304.000,186.742 304.000 C 186.946 304.000,187.419 303.325,187.793 302.500 C 188.817 300.241,190.139 297.820,190.700 297.175 C 190.975 296.859,191.945 295.160,192.855 293.400 C 193.765 291.640,194.643 290.110,194.807 290.000 C 194.971 289.890,195.442 289.148,195.853 288.352 C 197.757 284.662,198.458 283.600,198.988 283.600 C 199.637 283.600,201.995 285.975,201.998 286.631 C 202.000 287.024,203.436 289.438,205.197 292.008 C 205.577 292.562,206.027 293.462,206.198 294.008 C 206.370 294.553,206.935 295.509,207.455 296.131 C 207.975 296.753,208.510 297.698,208.643 298.231 C 208.777 298.764,209.030 299.200,209.204 299.200 C 209.379 299.200,209.710 299.740,209.940 300.399 C 210.170 301.058,210.817 302.200,211.379 302.937 C 211.940 303.673,212.400 304.459,212.400 304.684 C 212.400 304.908,212.749 305.536,213.175 306.078 C 213.602 306.620,214.072 307.546,214.220 308.137 C 214.368 308.727,214.715 309.343,214.992 309.505 C 215.268 309.667,216.240 311.214,217.152 312.943 C 218.063 314.671,219.167 316.541,219.605 317.097 C 220.042 317.653,220.400 318.326,220.400 318.593 C 220.400 318.859,220.773 319.508,221.229 320.033 C 221.685 320.559,222.160 321.502,222.286 322.129 C 222.411 322.756,222.776 323.369,223.096 323.492 C 223.416 323.615,224.029 324.455,224.458 325.358 C 225.825 328.239,226.886 330.194,227.191 330.400 C 227.355 330.510,227.805 331.230,228.192 332.000 C 228.580 332.770,229.123 333.670,229.401 334.000 C 229.678 334.330,230.042 335.047,230.210 335.594 C 230.377 336.141,231.058 337.266,231.724 338.094 L 232.934 339.600 261.434 339.600 C 290.880 339.600,291.650 339.570,290.658 338.451 C 290.342 338.093,289.431 336.565,288.635 335.055 C 287.839 333.546,286.827 331.852,286.385 331.290 C 285.944 330.729,285.477 329.849,285.348 329.335 C 285.219 328.821,284.968 328.400,284.790 328.400 C 284.612 328.400,284.157 327.590,283.779 326.600 C 283.401 325.610,282.929 324.800,282.731 324.800 C 282.534 324.800,282.033 324.010,281.619 323.044 C 281.205 322.078,280.685 321.176,280.464 321.039 C 280.243 320.903,279.944 320.254,279.800 319.598 C 279.655 318.942,279.305 318.269,279.021 318.102 C 278.737 317.936,278.076 317.011,277.552 316.046 C 275.959 313.111,274.805 311.079,273.780 309.400 C 273.242 308.520,272.437 307.042,271.990 306.117 C 271.543 305.191,270.987 304.316,270.756 304.173 C 270.524 304.029,269.981 303.167,269.550 302.256 C 267.902 298.776,266.867 296.953,266.245 296.437 C 265.890 296.143,265.600 295.678,265.600 295.405 C 265.600 295.132,265.265 294.479,264.855 293.954 C 264.445 293.429,263.975 292.550,263.809 292.000 C 263.644 291.450,263.186 290.640,262.793 290.200 C 262.400 289.760,261.482 288.230,260.753 286.800 C 260.025 285.370,259.017 283.691,258.514 283.069 C 258.011 282.447,257.600 281.717,257.600 281.447 C 257.600 281.177,257.150 280.345,256.600 279.600 C 256.050 278.855,255.600 277.914,255.600 277.510 C 255.600 277.106,255.312 276.665,254.961 276.530 C 254.610 276.395,253.972 275.545,253.544 274.642 C 252.658 272.773,251.210 270.141,249.780 267.800 C 249.242 266.920,248.416 265.390,247.945 264.400 C 247.473 263.410,246.918 262.535,246.711 262.456 C 246.503 262.376,245.986 261.566,245.561 260.656 C 245.136 259.745,244.353 258.280,243.820 257.400 C 242.859 255.811,241.768 253.941,239.685 250.307 C 239.088 249.265,237.925 247.256,237.100 245.842 C 236.275 244.427,235.600 243.096,235.600 242.884 C 235.600 242.672,235.305 242.253,234.945 241.955 C 234.585 241.656,233.947 240.689,233.527 239.806 C 232.057 236.716,231.112 234.995,230.521 234.328 C 229.875 233.598,228.846 231.802,227.819 229.614 C 227.462 228.852,227.014 228.132,226.824 228.014 C 226.487 227.804,221.417 218.364,220.158 215.600 C 219.807 214.830,219.273 213.921,218.971 213.580 C 218.668 213.239,217.764 211.709,216.961 210.180 C 216.158 208.651,215.275 207.130,215.000 206.800 C 214.725 206.470,213.842 204.949,213.039 203.420 C 212.236 201.891,211.332 200.361,211.031 200.020 C 210.479 199.395,209.498 197.593,208.052 194.544 C 207.620 193.633,207.086 192.777,206.866 192.641 C 206.646 192.505,205.803 191.052,204.993 189.413 C 204.183 187.773,203.266 186.221,202.956 185.963 C 202.645 185.705,202.057 184.753,201.650 183.847 C 201.242 182.941,200.455 181.783,199.901 181.274 L 198.893 180.348 196.947 183.803 " stroke="none" fill="#fafafa" fill-rule="evenodd"></path><path id="path1" d="M267.893 62.306 C 267.289 62.908,266.149 64.660,265.358 66.200 C 264.568 67.740,263.599 69.360,263.206 69.800 C 262.813 70.240,262.356 71.050,262.191 71.600 C 262.025 72.150,261.555 73.029,261.145 73.554 C 260.735 74.079,260.400 74.732,260.400 75.005 C 260.400 75.278,260.105 75.747,259.745 76.045 C 259.385 76.344,258.742 77.311,258.315 78.194 C 257.013 80.889,255.824 83.064,255.335 83.647 C 255.079 83.951,254.209 85.460,253.403 87.000 C 252.596 88.540,251.679 90.000,251.366 90.245 C 251.053 90.490,250.588 91.300,250.334 92.045 C 250.080 92.790,249.541 93.829,249.136 94.354 C 248.731 94.879,248.400 95.520,248.400 95.779 C 248.400 96.037,248.050 96.625,247.622 97.084 C 246.850 97.913,245.959 99.479,244.452 102.656 C 244.020 103.566,243.497 104.376,243.289 104.456 C 243.082 104.535,242.527 105.410,242.055 106.400 C 241.584 107.390,240.758 108.920,240.220 109.800 C 238.920 111.929,237.363 114.720,236.647 116.208 C 236.328 116.873,235.691 117.755,235.233 118.170 C 234.775 118.585,234.400 119.221,234.400 119.584 C 234.400 119.947,233.950 120.855,233.400 121.600 C 232.850 122.345,232.400 123.166,232.400 123.423 C 232.400 123.680,231.860 124.569,231.200 125.400 C 230.540 126.231,230.000 127.142,230.000 127.426 C 230.000 127.710,229.754 128.189,229.453 128.490 C 229.152 128.791,228.779 129.435,228.625 129.921 C 228.471 130.407,227.932 131.298,227.427 131.902 C 226.922 132.506,226.370 133.447,226.198 133.992 C 226.027 134.538,225.581 135.438,225.206 135.992 C 223.016 139.232,221.962 141.064,220.451 144.256 C 220.019 145.166,219.497 145.976,219.289 146.056 C 219.082 146.135,218.521 147.010,218.042 148.000 C 216.392 151.413,215.593 152.800,215.277 152.800 C 215.103 152.800,214.722 153.475,214.431 154.300 C 214.140 155.125,213.675 156.070,213.399 156.400 C 213.123 156.730,212.580 157.630,212.192 158.400 C 211.805 159.170,211.354 159.890,211.189 160.000 C 211.025 160.110,210.590 160.830,210.224 161.600 C 209.256 163.633,208.186 165.495,207.553 166.249 C 206.985 166.925,205.850 168.981,204.485 171.806 C 204.058 172.689,203.426 173.646,203.080 173.933 C 202.734 174.220,202.337 174.975,202.198 175.611 C 202.058 176.246,201.326 177.309,200.572 177.971 C 198.891 179.447,198.890 179.400,200.604 181.556 C 201.372 182.522,202.000 183.543,202.000 183.826 C 202.000 184.108,202.409 184.847,202.909 185.469 C 203.409 186.091,204.132 187.230,204.517 188.000 C 204.902 188.770,205.618 190.068,206.108 190.884 C 208.167 194.310,210.400 198.387,210.400 198.719 C 210.400 198.915,210.727 199.372,211.127 199.734 C 211.527 200.096,212.530 201.741,213.356 203.390 C 214.182 205.039,215.020 206.489,215.218 206.611 C 215.415 206.733,215.943 207.591,216.390 208.517 C 216.837 209.442,217.640 210.920,218.175 211.800 C 219.175 213.444,220.932 216.534,221.998 218.524 L 222.600 219.648 290.947 219.618 C 328.538 219.602,359.461 219.486,359.663 219.361 C 360.150 219.060,359.690 217.604,358.792 216.600 C 358.399 216.160,357.783 215.170,357.424 214.400 C 356.298 211.986,355.510 210.638,354.539 209.469 C 354.023 208.847,353.600 208.107,353.600 207.823 C 353.600 207.540,353.265 206.879,352.855 206.354 C 352.445 205.829,351.975 204.950,351.809 204.400 C 351.644 203.850,351.187 203.040,350.794 202.600 C 350.401 202.160,349.429 200.565,348.634 199.055 C 347.838 197.546,346.827 195.852,346.385 195.290 C 345.944 194.729,345.477 193.849,345.348 193.335 C 345.219 192.821,344.968 192.400,344.790 192.400 C 344.612 192.400,344.157 191.590,343.779 190.600 C 343.401 189.610,342.929 188.800,342.731 188.800 C 342.534 188.800,342.033 188.010,341.619 187.044 C 341.205 186.078,340.685 185.176,340.464 185.039 C 340.243 184.903,339.944 184.254,339.800 183.598 C 339.655 182.942,339.309 182.269,339.030 182.102 C 338.752 181.936,337.731 180.271,336.762 178.402 C 335.793 176.533,334.831 174.881,334.624 174.731 C 334.417 174.581,333.967 173.929,333.624 173.282 C 333.281 172.635,332.593 171.366,332.097 170.462 L 331.193 168.818 298.964 168.709 C 263.516 168.589,264.636 168.671,266.115 166.320 C 266.956 164.984,268.565 162.199,269.554 160.367 C 270.078 159.395,270.642 158.510,270.807 158.400 C 271.114 158.194,272.170 156.248,273.542 153.358 C 273.971 152.455,274.610 151.605,274.961 151.470 C 275.312 151.335,275.600 150.885,275.600 150.468 C 275.600 150.052,276.007 149.102,276.504 148.356 C 277.001 147.610,277.643 146.550,277.931 146.000 C 278.218 145.450,278.981 144.100,279.625 143.000 C 280.270 141.900,281.157 140.254,281.598 139.343 C 282.039 138.431,282.670 137.582,283.000 137.455 C 283.330 137.329,283.600 136.894,283.600 136.490 C 283.600 136.086,284.050 135.145,284.600 134.400 C 285.150 133.655,285.600 132.832,285.600 132.571 C 285.600 132.311,285.862 131.881,286.182 131.615 C 286.502 131.349,287.428 129.789,288.239 128.148 C 289.050 126.507,290.045 124.742,290.450 124.227 C 290.856 123.711,291.796 122.144,292.538 120.745 C 293.281 119.345,294.363 117.500,294.944 116.644 C 295.525 115.788,296.000 114.866,296.000 114.593 C 296.000 114.321,296.258 113.883,296.574 113.621 C 298.018 112.423,297.087 108.523,294.674 105.656 C 294.171 105.059,292.978 102.873,291.663 100.144 C 291.225 99.233,290.669 98.366,290.427 98.217 C 290.186 98.067,289.719 97.373,289.391 96.673 C 289.062 95.973,288.300 94.548,287.697 93.507 C 287.094 92.465,285.947 90.485,285.149 89.107 C 284.350 87.728,283.578 86.212,283.433 85.737 C 283.288 85.262,282.925 84.780,282.625 84.665 C 282.326 84.550,281.868 83.813,281.609 83.028 C 281.350 82.243,280.996 81.600,280.823 81.600 C 280.650 81.600,280.199 80.790,279.821 79.800 C 279.443 78.810,278.962 78.000,278.753 78.000 C 278.543 78.000,278.015 77.235,277.580 76.300 C 276.811 74.651,276.262 73.662,273.100 68.242 C 272.275 66.827,271.600 65.496,271.600 65.284 C 271.600 65.072,271.318 64.664,270.973 64.377 C 270.628 64.091,270.041 63.262,269.667 62.535 L 268.989 61.213 267.893 62.306 M128.245 63.500 C 127.873 64.325,127.036 65.900,126.386 67.000 C 125.735 68.100,124.843 69.746,124.402 70.657 C 123.961 71.569,123.330 72.418,123.000 72.545 C 122.670 72.671,122.400 73.106,122.400 73.510 C 122.400 73.914,121.950 74.855,121.400 75.600 C 120.850 76.345,120.400 77.163,120.400 77.416 C 120.400 77.669,120.061 78.183,119.647 78.558 C 119.233 78.932,118.588 80.040,118.214 81.020 C 117.840 81.999,117.388 82.800,117.210 82.800 C 117.032 82.800,116.781 83.221,116.652 83.735 C 116.523 84.249,116.056 85.129,115.615 85.690 C 115.173 86.252,114.161 87.946,113.365 89.455 C 112.569 90.965,111.685 92.470,111.400 92.800 C 110.874 93.411,109.864 95.279,108.452 98.256 C 108.020 99.167,107.476 100.029,107.244 100.173 C 107.013 100.316,106.451 101.191,105.997 102.117 C 104.263 105.653,103.581 106.800,103.213 106.800 C 103.003 106.800,102.616 107.522,102.351 108.405 C 102.087 109.287,101.649 110.193,101.378 110.418 C 100.994 110.737,101.052 111.171,101.643 112.394 C 102.059 113.256,102.400 114.212,102.400 114.519 C 102.400 114.825,102.775 115.415,103.233 115.830 C 103.691 116.245,104.328 117.127,104.647 117.792 C 105.363 119.280,106.920 122.071,108.220 124.200 C 108.758 125.080,109.563 126.558,110.010 127.483 C 110.457 128.409,111.013 129.284,111.244 129.427 C 111.476 129.571,112.019 130.433,112.450 131.344 C 113.762 134.113,114.479 135.348,115.461 136.531 C 115.977 137.153,116.400 137.893,116.400 138.177 C 116.400 138.460,116.735 139.121,117.145 139.646 C 117.555 140.171,118.025 141.050,118.191 141.600 C 118.356 142.150,118.813 142.960,119.206 143.400 C 119.599 143.840,120.571 145.435,121.366 146.945 C 122.162 148.454,123.173 150.148,123.615 150.710 C 124.056 151.271,124.523 152.151,124.652 152.665 C 124.781 153.179,125.032 153.600,125.210 153.600 C 125.388 153.600,125.843 154.410,126.221 155.400 C 126.599 156.390,127.071 157.200,127.269 157.200 C 127.466 157.200,127.967 157.990,128.381 158.956 C 128.795 159.922,129.315 160.824,129.536 160.961 C 129.757 161.097,130.059 161.759,130.207 162.432 C 130.355 163.104,130.706 163.742,130.988 163.851 C 131.269 163.959,131.830 164.779,132.233 165.673 L 132.966 167.298 132.039 168.049 C 131.149 168.769,129.818 168.801,99.656 168.813 C 75.551 168.822,68.055 168.939,67.581 169.313 C 67.240 169.581,66.271 171.060,65.426 172.600 C 64.582 174.140,63.576 175.760,63.192 176.200 C 62.807 176.640,62.356 177.450,62.191 178.000 C 62.025 178.550,61.555 179.429,61.145 179.954 C 60.735 180.479,60.400 181.132,60.400 181.405 C 60.400 181.678,60.110 182.143,59.755 182.437 C 59.133 182.953,58.098 184.776,56.450 188.256 C 56.019 189.166,55.497 189.976,55.289 190.056 C 55.082 190.135,54.527 191.010,54.055 192.000 C 53.584 192.990,52.758 194.520,52.220 195.400 C 51.202 197.066,50.067 199.065,48.446 202.046 C 47.922 203.011,47.362 203.890,47.203 204.000 C 47.044 204.110,46.522 205.010,46.044 206.000 C 44.573 209.046,43.899 210.188,43.399 210.487 C 43.135 210.644,42.607 211.589,42.226 212.587 C 41.845 213.584,41.388 214.400,41.210 214.400 C 41.032 214.400,40.777 214.836,40.643 215.369 C 40.510 215.902,39.925 216.903,39.344 217.593 C 38.692 218.368,38.431 218.991,38.661 219.221 C 38.888 219.448,65.736 219.597,107.396 219.603 L 175.759 219.614 176.665 218.507 C 177.163 217.898,177.578 217.200,177.586 216.956 C 177.594 216.712,178.075 215.812,178.656 214.956 C 179.237 214.100,180.331 212.230,181.089 210.800 C 181.846 209.370,182.703 207.930,182.993 207.600 C 183.283 207.270,183.805 206.370,184.152 205.600 C 184.798 204.170,185.222 203.426,186.484 201.516 C 186.878 200.920,187.944 199.030,188.853 197.316 C 189.762 195.602,190.730 193.930,191.003 193.600 C 191.277 193.270,192.288 191.596,193.250 189.880 C 194.213 188.164,195.497 185.914,196.105 184.880 C 197.775 182.037,198.858 179.510,198.611 179.030 C 198.490 178.793,198.032 178.060,197.593 177.400 C 197.154 176.740,196.411 175.390,195.941 174.400 C 195.472 173.410,194.918 172.535,194.711 172.456 C 194.503 172.376,193.980 171.566,193.548 170.656 C 192.041 167.479,191.150 165.913,190.378 165.084 C 189.950 164.625,189.600 164.037,189.600 163.779 C 189.600 163.520,189.269 162.879,188.864 162.354 C 188.459 161.829,187.920 160.790,187.666 160.045 C 187.412 159.300,186.947 158.490,186.634 158.245 C 186.321 158.000,185.404 156.540,184.597 155.000 C 183.791 153.460,182.921 151.951,182.665 151.647 C 182.176 151.064,180.987 148.889,179.685 146.194 C 179.258 145.311,178.615 144.344,178.255 144.045 C 177.895 143.747,177.600 143.278,177.600 143.005 C 177.600 142.732,177.265 142.079,176.855 141.554 C 176.445 141.029,175.975 140.150,175.809 139.600 C 175.644 139.050,175.187 138.240,174.794 137.800 C 174.401 137.360,173.431 135.740,172.639 134.200 C 171.848 132.660,170.975 131.143,170.700 130.829 C 170.106 130.151,169.152 128.471,167.958 126.000 C 167.479 125.010,166.918 124.135,166.711 124.056 C 166.503 123.976,165.981 123.166,165.550 122.256 C 164.675 120.410,163.251 117.813,161.787 115.400 C 161.254 114.520,160.502 113.170,160.117 112.400 C 159.732 111.630,159.009 110.491,158.509 109.869 C 158.009 109.247,157.490 108.302,157.357 107.769 C 157.223 107.236,156.977 106.800,156.811 106.800 C 156.645 106.800,156.208 106.012,155.840 105.049 C 155.472 104.086,154.818 102.978,154.386 102.587 C 153.954 102.196,153.600 101.658,153.600 101.392 C 153.600 101.126,153.265 100.479,152.855 99.954 C 152.445 99.429,151.975 98.550,151.809 98.000 C 151.644 97.450,151.190 96.640,150.801 96.200 C 150.412 95.760,149.758 94.786,149.347 94.035 C 148.936 93.285,148.115 91.845,147.522 90.835 C 146.928 89.826,146.150 88.389,145.792 87.642 C 145.434 86.895,144.875 86.018,144.551 85.693 C 144.226 85.369,143.854 84.570,143.723 83.917 C 143.593 83.265,143.224 82.631,142.904 82.508 C 142.584 82.385,141.972 81.545,141.544 80.642 C 140.035 77.460,138.980 75.626,136.794 72.392 C 136.419 71.838,135.973 70.938,135.802 70.392 C 135.630 69.847,135.110 68.943,134.645 68.385 C 134.180 67.827,133.188 66.162,132.440 64.685 C 130.750 61.348,129.389 60.963,128.245 63.500 " stroke="none" fill="#fa7304" fill-rule="evenodd"></path><path id="path2" d="M0.000 200.000 L 0.000 400.000 200.000 400.000 L 400.000 400.000 400.000 200.000 L 400.000 0.000 200.000 0.000 L 0.000 0.000 0.000 200.000 M270.148 60.600 C 270.387 61.040,270.856 61.833,271.191 62.361 C 272.850 64.980,273.633 66.342,274.350 67.856 C 274.781 68.767,275.331 69.634,275.573 69.783 C 275.814 69.933,276.287 70.627,276.624 71.327 C 276.960 72.027,277.760 73.500,278.402 74.600 C 279.043 75.700,279.943 77.365,280.403 78.300 C 280.862 79.235,281.402 80.000,281.603 80.000 C 281.805 80.000,282.173 80.758,282.423 81.684 C 282.672 82.610,283.156 83.572,283.499 83.823 C 284.120 84.277,284.877 85.556,286.327 88.606 C 286.747 89.489,287.385 90.456,287.745 90.755 C 288.105 91.053,288.400 91.522,288.400 91.795 C 288.400 92.068,288.766 92.758,289.214 93.327 C 289.662 93.897,290.233 94.956,290.483 95.681 C 290.733 96.407,291.246 97.221,291.623 97.491 C 292.000 97.761,292.426 98.451,292.570 99.025 C 292.715 99.599,293.185 100.447,293.616 100.910 C 294.047 101.372,294.400 102.064,294.400 102.447 C 294.400 102.830,294.715 103.449,295.100 103.824 C 295.783 104.488,296.925 106.441,298.205 109.134 C 298.980 110.765,298.650 113.736,297.582 114.731 C 297.188 115.099,296.746 115.875,296.600 116.456 C 296.455 117.037,295.900 117.891,295.368 118.353 C 294.835 118.816,294.400 119.521,294.400 119.920 C 294.400 120.318,293.950 121.255,293.400 122.000 C 292.850 122.745,292.400 123.568,292.400 123.829 C 292.400 124.089,292.105 124.547,291.745 124.845 C 291.385 125.144,290.747 126.111,290.328 126.994 C 288.911 129.977,287.803 131.892,287.100 132.576 C 286.715 132.951,286.397 133.559,286.393 133.929 C 286.386 134.587,284.565 137.616,283.466 138.800 C 283.159 139.130,282.686 140.088,282.414 140.928 C 282.142 141.768,281.688 142.545,281.405 142.654 C 281.121 142.762,280.785 143.376,280.656 144.018 C 280.528 144.660,279.968 145.581,279.411 146.065 C 278.855 146.549,278.400 147.237,278.400 147.594 C 278.400 147.952,277.950 148.855,277.400 149.600 C 276.850 150.345,276.400 151.180,276.400 151.455 C 276.400 151.730,276.077 152.190,275.683 152.477 C 275.288 152.765,274.741 153.765,274.467 154.700 C 274.192 155.635,273.804 156.400,273.603 156.400 C 273.402 156.400,272.898 157.165,272.484 158.100 C 272.069 159.035,271.431 160.047,271.065 160.349 C 270.699 160.651,270.400 161.201,270.400 161.571 C 270.400 161.942,269.950 162.855,269.400 163.600 C 268.850 164.345,268.400 165.180,268.400 165.455 C 268.400 165.730,268.034 166.211,267.586 166.525 C 266.147 167.532,268.223 167.600,300.636 167.600 C 331.943 167.600,331.972 167.601,332.416 168.430 C 332.661 168.887,333.207 169.607,333.630 170.030 C 334.054 170.454,334.400 171.136,334.400 171.546 C 334.400 171.956,334.799 172.799,335.287 173.419 C 336.269 174.669,337.219 176.283,338.217 178.400 C 338.580 179.170,339.199 180.160,339.592 180.600 C 339.986 181.040,340.437 181.823,340.594 182.339 C 340.751 182.856,341.221 183.621,341.639 184.039 C 342.058 184.458,342.400 185.151,342.400 185.579 C 342.400 186.008,342.844 186.838,343.387 187.424 C 343.930 188.010,344.492 188.860,344.636 189.314 C 344.780 189.767,345.236 190.501,345.649 190.945 C 346.062 191.388,346.400 192.052,346.400 192.420 C 346.400 192.789,346.940 193.769,347.600 194.600 C 348.260 195.431,348.800 196.333,348.800 196.606 C 348.800 196.879,349.061 197.318,349.380 197.583 C 349.698 197.848,350.176 198.725,350.441 199.532 C 350.706 200.339,351.255 201.235,351.661 201.523 C 352.068 201.810,352.400 202.270,352.400 202.545 C 352.400 202.820,352.850 203.655,353.400 204.400 C 353.950 205.145,354.400 206.054,354.400 206.419 C 354.400 206.784,354.836 207.554,355.369 208.129 C 355.902 208.704,356.463 209.585,356.615 210.087 C 356.767 210.589,357.208 211.360,357.593 211.800 C 357.979 212.240,358.421 213.132,358.576 213.782 C 358.730 214.432,359.204 215.207,359.628 215.505 C 360.053 215.802,360.400 216.281,360.400 216.569 C 360.400 216.857,360.755 217.543,361.188 218.094 C 363.115 220.544,367.540 220.395,292.692 220.402 C 255.374 220.406,224.753 220.552,224.645 220.727 C 224.537 220.902,224.703 221.485,225.014 222.022 C 225.324 222.560,225.874 223.628,226.235 224.397 C 226.596 225.165,227.321 226.304,227.846 226.927 C 228.371 227.551,228.800 228.296,228.800 228.582 C 228.800 228.868,229.061 229.318,229.380 229.583 C 229.698 229.848,230.176 230.725,230.441 231.532 C 230.706 232.339,231.255 233.235,231.661 233.523 C 232.068 233.810,232.400 234.270,232.400 234.545 C 232.400 234.820,232.850 235.655,233.400 236.400 C 233.950 237.145,234.400 238.054,234.400 238.419 C 234.400 238.784,234.848 239.567,235.397 240.159 C 235.945 240.750,236.514 241.721,236.661 242.317 C 236.809 242.913,237.236 243.619,237.612 243.886 C 237.987 244.153,238.409 244.947,238.550 245.650 C 238.691 246.353,239.164 247.180,239.603 247.487 C 240.041 247.794,240.400 248.270,240.400 248.545 C 240.400 248.820,240.850 249.655,241.400 250.400 C 241.950 251.145,242.400 252.049,242.400 252.408 C 242.400 252.767,242.841 253.475,243.379 253.981 C 243.918 254.486,244.469 255.403,244.604 256.017 C 244.739 256.631,245.098 257.229,245.402 257.345 C 245.706 257.462,246.183 258.332,246.460 259.279 C 246.738 260.225,247.288 261.235,247.683 261.523 C 248.077 261.810,248.400 262.277,248.400 262.560 C 248.400 262.844,248.850 263.599,249.400 264.238 C 249.949 264.877,250.399 265.736,250.400 266.147 C 250.400 266.558,250.940 267.509,251.600 268.261 C 252.260 269.013,252.800 269.962,252.800 270.371 C 252.800 270.780,253.060 271.214,253.378 271.336 C 253.695 271.458,254.177 272.298,254.448 273.202 C 254.719 274.107,255.269 275.023,255.670 275.238 C 256.072 275.452,256.400 275.857,256.400 276.136 C 256.400 276.416,256.850 277.255,257.400 278.000 C 257.950 278.745,258.400 279.673,258.400 280.062 C 258.400 280.451,258.753 281.098,259.185 281.500 C 259.617 281.903,260.237 282.869,260.562 283.648 C 260.888 284.427,261.434 285.296,261.777 285.581 C 262.120 285.865,262.400 286.422,262.400 286.818 C 262.400 287.214,262.850 288.073,263.400 288.727 C 263.950 289.381,264.400 290.080,264.400 290.280 C 264.400 290.481,264.850 291.255,265.400 292.000 C 265.950 292.745,266.400 293.682,266.400 294.080 C 266.400 294.479,266.841 295.189,267.380 295.658 C 267.919 296.126,268.476 297.037,268.618 297.682 C 268.760 298.327,269.120 298.948,269.418 299.062 C 269.717 299.177,270.176 299.930,270.439 300.735 C 270.701 301.541,271.340 302.709,271.858 303.331 C 272.376 303.953,272.800 304.678,272.800 304.942 C 272.800 305.206,273.160 305.730,273.600 306.107 C 274.040 306.484,274.400 307.154,274.400 307.596 C 274.400 308.038,274.756 308.756,275.191 309.191 C 275.626 309.626,276.268 310.571,276.618 311.291 C 277.998 314.129,279.029 315.953,279.653 316.660 C 280.012 317.067,280.434 317.823,280.592 318.339 C 280.750 318.856,281.221 319.621,281.639 320.039 C 282.058 320.458,282.400 321.151,282.400 321.579 C 282.400 322.008,282.844 322.838,283.387 323.424 C 283.930 324.010,284.492 324.860,284.636 325.314 C 284.780 325.767,285.236 326.501,285.649 326.945 C 286.062 327.388,286.400 328.052,286.400 328.420 C 286.400 328.789,286.940 329.769,287.600 330.600 C 288.260 331.431,288.800 332.333,288.800 332.606 C 288.800 332.879,289.061 333.318,289.380 333.583 C 289.698 333.848,290.176 334.725,290.441 335.532 C 290.706 336.339,291.255 337.235,291.661 337.523 C 292.068 337.810,292.400 338.373,292.400 338.774 C 292.400 340.620,292.826 340.593,261.966 340.712 L 232.854 340.825 231.227 339.329 C 230.332 338.506,229.600 337.635,229.600 337.394 C 229.600 337.153,229.150 336.345,228.600 335.600 C 228.050 334.855,227.600 333.951,227.600 333.592 C 227.600 333.233,227.165 332.531,226.634 332.032 C 226.102 331.533,225.558 330.687,225.424 330.152 C 225.289 329.617,224.834 328.834,224.412 328.412 C 223.990 327.990,223.525 327.005,223.378 326.222 C 223.231 325.440,222.879 324.800,222.595 324.800 C 222.311 324.800,221.895 324.274,221.671 323.632 C 221.447 322.990,220.890 322.090,220.432 321.632 C 219.974 321.174,219.600 320.382,219.600 319.872 C 219.600 319.362,219.155 318.557,218.611 318.084 C 218.066 317.611,217.500 316.742,217.353 316.154 C 217.205 315.566,216.769 314.769,216.383 314.383 C 215.997 313.997,215.558 313.122,215.408 312.437 C 215.258 311.753,214.790 311.009,214.367 310.783 C 213.945 310.557,213.600 310.143,213.600 309.864 C 213.600 309.584,213.150 308.745,212.600 308.000 C 212.050 307.255,211.600 306.318,211.600 305.920 C 211.600 305.521,211.159 304.811,210.620 304.342 C 210.081 303.874,209.530 302.993,209.397 302.386 C 209.264 301.780,208.815 300.976,208.400 300.600 C 207.985 300.224,207.535 299.414,207.400 298.800 C 207.265 298.186,206.805 297.366,206.377 296.979 C 205.950 296.593,205.600 296.069,205.600 295.816 C 205.600 295.563,205.150 294.745,204.600 294.000 C 204.050 293.255,203.600 292.318,203.600 291.920 C 203.600 291.521,203.159 290.811,202.620 290.342 C 202.081 289.874,201.524 288.963,201.382 288.318 C 201.240 287.673,200.866 287.047,200.550 286.926 C 200.234 286.804,199.744 286.263,199.461 285.722 L 198.945 284.738 198.471 286.322 C 198.210 287.193,197.727 288.128,197.398 288.402 C 197.069 288.675,196.800 289.122,196.800 289.395 C 196.800 289.668,196.395 290.399,195.900 291.019 C 194.961 292.194,193.751 294.347,192.593 296.900 C 192.219 297.725,191.684 298.400,191.404 298.400 C 191.124 298.400,190.693 299.201,190.447 300.181 C 190.200 301.160,189.774 302.105,189.499 302.281 C 189.225 302.456,188.674 303.230,188.276 304.000 C 187.878 304.770,187.031 306.300,186.394 307.400 C 185.757 308.500,184.952 309.993,184.605 310.717 C 184.258 311.442,183.729 312.129,183.428 312.245 C 183.127 312.360,182.685 313.232,182.446 314.182 C 182.207 315.133,181.739 316.015,181.406 316.143 C 181.072 316.270,180.800 316.637,180.800 316.957 C 180.800 317.277,180.376 318.047,179.858 318.669 C 179.340 319.291,178.701 320.459,178.439 321.265 C 178.176 322.070,177.717 322.823,177.418 322.938 C 177.120 323.052,176.760 323.673,176.618 324.318 C 176.476 324.963,175.919 325.874,175.380 326.342 C 174.841 326.811,174.400 327.556,174.400 327.997 C 174.400 328.439,174.058 329.142,173.639 329.561 C 173.221 329.979,172.747 330.744,172.585 331.261 C 172.423 331.777,171.865 332.709,171.345 333.331 C 170.825 333.953,170.400 334.797,170.400 335.208 C 170.400 335.619,170.069 336.190,169.665 336.477 C 169.260 336.765,168.812 337.450,168.668 338.000 C 168.247 339.614,167.808 340.037,166.159 340.419 C 163.079 341.134,109.310 340.890,107.760 340.154 C 106.527 339.569,105.866 338.400,106.768 338.400 C 106.971 338.400,107.250 337.882,107.389 337.249 C 107.528 336.616,108.082 335.501,108.621 334.772 C 109.159 334.042,109.600 333.242,109.600 332.994 C 109.600 332.747,110.050 332.153,110.600 331.675 C 111.150 331.197,111.600 330.479,111.600 330.080 C 111.600 329.682,112.050 328.745,112.600 328.000 C 113.150 327.255,113.600 326.437,113.600 326.184 C 113.600 325.931,113.950 325.407,114.377 325.021 C 114.805 324.634,115.265 323.814,115.400 323.200 C 115.535 322.586,115.985 321.776,116.400 321.400 C 116.815 321.024,117.269 320.196,117.409 319.559 C 117.549 318.922,117.978 318.176,118.363 317.900 C 118.748 317.625,119.267 316.807,119.517 316.081 C 119.767 315.356,120.338 314.297,120.786 313.727 C 121.234 313.158,121.600 312.453,121.600 312.160 C 121.600 311.868,121.945 311.443,122.367 311.217 C 122.790 310.991,123.258 310.247,123.408 309.563 C 123.558 308.878,123.997 308.003,124.383 307.617 C 124.769 307.231,125.205 306.434,125.353 305.846 C 125.500 305.258,126.066 304.389,126.611 303.916 C 127.155 303.443,127.600 302.647,127.600 302.148 C 127.600 301.649,128.050 300.756,128.600 300.162 C 129.150 299.569,129.600 298.756,129.600 298.356 C 129.600 297.956,129.928 297.452,130.330 297.238 C 130.731 297.023,131.281 296.107,131.552 295.202 C 131.823 294.298,132.305 293.458,132.622 293.336 C 132.940 293.214,133.200 292.780,133.200 292.371 C 133.200 291.962,133.740 291.013,134.400 290.261 C 135.060 289.509,135.600 288.638,135.600 288.325 C 135.600 288.012,136.050 287.145,136.600 286.400 C 137.150 285.655,137.600 284.820,137.600 284.545 C 137.600 284.270,137.936 283.810,138.346 283.523 C 138.757 283.235,139.218 282.427,139.372 281.728 C 139.526 281.028,139.920 280.232,140.249 279.959 C 140.577 279.687,141.112 278.827,141.438 278.048 C 141.763 277.269,142.383 276.303,142.815 275.900 C 143.247 275.498,143.600 274.851,143.600 274.462 C 143.600 274.073,144.050 273.145,144.600 272.400 C 145.150 271.655,145.600 270.820,145.600 270.545 C 145.600 270.270,145.947 269.802,146.372 269.505 C 146.796 269.207,147.270 268.432,147.424 267.782 C 147.579 267.132,148.021 266.240,148.407 265.800 C 148.792 265.360,149.233 264.589,149.385 264.087 C 149.537 263.585,150.098 262.704,150.631 262.129 C 151.164 261.554,151.600 260.783,151.600 260.417 C 151.600 260.051,151.938 259.388,152.351 258.945 C 152.764 258.501,153.228 257.741,153.382 257.256 C 153.536 256.770,153.985 256.064,154.378 255.686 C 154.772 255.309,155.316 254.312,155.587 253.472 C 155.859 252.632,156.321 251.852,156.616 251.739 C 156.910 251.626,157.264 251.021,157.401 250.394 C 157.539 249.768,157.934 249.020,158.280 248.733 C 158.626 248.446,159.253 247.489,159.673 246.606 C 161.167 243.467,162.097 241.817,162.601 241.411 C 162.882 241.185,163.330 240.312,163.596 239.472 C 163.863 238.632,164.332 237.847,164.640 237.729 C 164.948 237.611,165.200 237.277,165.200 236.988 C 165.200 236.698,165.624 235.953,166.142 235.331 C 166.660 234.709,167.299 233.541,167.561 232.735 C 167.824 231.930,168.283 231.177,168.582 231.062 C 168.880 230.948,169.240 230.327,169.382 229.682 C 169.524 229.037,170.081 228.126,170.620 227.658 C 171.159 227.189,171.600 226.468,171.600 226.057 C 171.600 225.645,171.930 224.879,172.334 224.354 C 174.008 222.177,174.395 220.893,173.452 220.640 C 172.984 220.514,142.337 220.408,105.349 220.405 C 47.051 220.401,38.034 220.323,37.616 219.819 C 37.046 219.132,37.388 217.739,38.408 216.600 C 38.801 216.160,39.418 215.170,39.777 214.400 C 41.071 211.632,42.099 209.815,42.601 209.411 C 42.882 209.185,43.325 208.326,43.586 207.503 C 43.847 206.680,44.272 205.870,44.530 205.703 C 44.789 205.536,45.326 204.770,45.724 204.000 C 46.122 203.230,46.969 201.700,47.606 200.600 C 48.243 199.500,49.048 198.007,49.395 197.283 C 49.742 196.558,50.279 195.868,50.588 195.749 C 50.898 195.630,51.262 195.030,51.397 194.416 C 51.531 193.801,52.082 192.701,52.621 191.972 C 53.159 191.242,53.600 190.437,53.600 190.184 C 53.600 189.931,53.950 189.407,54.377 189.021 C 54.805 188.634,55.265 187.814,55.400 187.200 C 55.535 186.586,55.985 185.776,56.400 185.400 C 56.815 185.024,57.269 184.196,57.409 183.559 C 57.549 182.922,57.978 182.176,58.363 181.900 C 58.748 181.625,59.267 180.807,59.517 180.081 C 59.767 179.356,60.338 178.297,60.786 177.727 C 61.234 177.158,61.600 176.453,61.600 176.160 C 61.600 175.868,61.928 175.452,62.330 175.238 C 62.731 175.023,63.281 174.107,63.552 173.202 C 63.823 172.298,64.305 171.458,64.622 171.336 C 64.940 171.214,65.200 170.798,65.200 170.411 C 65.200 170.024,65.573 169.234,66.029 168.654 L 66.858 167.600 99.005 167.600 C 118.023 167.600,131.245 167.450,131.379 167.234 C 131.504 167.032,131.179 166.357,130.657 165.734 C 130.136 165.110,129.577 164.177,129.415 163.661 C 129.253 163.144,128.779 162.379,128.361 161.961 C 127.942 161.542,127.600 160.849,127.600 160.421 C 127.600 159.992,127.156 159.162,126.613 158.576 C 126.070 157.990,125.508 157.140,125.364 156.686 C 125.220 156.233,124.764 155.499,124.351 155.055 C 123.938 154.612,123.600 153.948,123.600 153.580 C 123.600 153.211,123.060 152.231,122.400 151.400 C 121.740 150.569,121.200 149.667,121.200 149.394 C 121.200 149.121,120.939 148.682,120.620 148.417 C 120.302 148.152,119.824 147.275,119.559 146.468 C 119.294 145.661,118.745 144.765,118.339 144.477 C 117.932 144.190,117.600 143.730,117.600 143.455 C 117.600 143.180,117.150 142.345,116.600 141.600 C 116.050 140.855,115.600 139.946,115.600 139.581 C 115.600 139.216,115.164 138.446,114.631 137.871 C 114.098 137.296,113.537 136.415,113.385 135.913 C 113.233 135.411,112.792 134.640,112.407 134.200 C 112.021 133.760,111.579 132.868,111.424 132.218 C 111.270 131.568,110.796 130.793,110.372 130.495 C 109.947 130.198,109.600 129.730,109.600 129.455 C 109.600 129.180,109.150 128.345,108.600 127.600 C 108.050 126.855,107.600 125.951,107.600 125.592 C 107.600 125.233,107.159 124.525,106.621 124.019 C 106.082 123.514,105.531 122.597,105.396 121.983 C 105.261 121.369,104.910 120.774,104.616 120.661 C 104.321 120.548,103.859 119.768,103.587 118.928 C 103.316 118.088,102.758 117.078,102.347 116.684 C 101.936 116.291,101.600 115.713,101.600 115.400 C 101.600 115.087,101.225 114.482,100.767 114.055 C 99.427 112.807,99.339 110.469,100.570 108.822 C 101.136 108.065,101.600 107.236,101.600 106.981 C 101.600 106.726,102.050 106.031,102.600 105.438 C 103.150 104.844,103.600 104.008,103.600 103.579 C 103.600 103.151,103.915 102.473,104.300 102.074 C 104.685 101.675,105.343 100.685,105.763 99.874 C 106.183 99.063,106.649 98.400,106.800 98.400 C 106.950 98.400,107.284 97.699,107.540 96.841 C 107.797 95.984,108.259 95.186,108.566 95.068 C 108.873 94.951,109.240 94.327,109.382 93.682 C 109.524 93.037,110.081 92.126,110.620 91.658 C 111.159 91.189,111.600 90.479,111.600 90.080 C 111.600 89.682,112.050 88.745,112.600 88.000 C 113.150 87.255,113.600 86.481,113.600 86.280 C 113.600 86.080,114.050 85.381,114.600 84.727 C 115.150 84.073,115.600 83.214,115.600 82.818 C 115.600 82.422,115.872 81.872,116.205 81.596 C 116.537 81.320,117.157 80.308,117.582 79.347 C 118.007 78.386,118.537 77.600,118.759 77.600 C 118.981 77.600,119.325 77.015,119.523 76.300 C 119.876 75.027,121.434 72.390,122.536 71.200 C 122.842 70.870,123.314 69.912,123.586 69.072 C 123.858 68.232,124.312 67.455,124.595 67.346 C 124.879 67.238,125.215 66.624,125.344 65.982 C 125.472 65.340,126.032 64.419,126.589 63.935 C 127.145 63.451,127.600 62.768,127.600 62.417 C 127.600 59.521,131.223 59.046,132.434 61.783 C 132.868 62.764,133.385 63.667,133.582 63.789 C 133.780 63.911,134.162 64.684,134.432 65.506 C 134.702 66.328,135.255 67.235,135.661 67.523 C 136.068 67.810,136.400 68.270,136.400 68.545 C 136.400 68.820,136.850 69.655,137.400 70.400 C 137.950 71.145,138.400 72.049,138.400 72.408 C 138.400 72.767,138.841 73.475,139.379 73.981 C 139.918 74.486,140.469 75.403,140.604 76.017 C 140.739 76.631,141.090 77.226,141.384 77.339 C 141.679 77.452,142.141 78.232,142.413 79.072 C 142.684 79.912,143.242 80.922,143.653 81.316 C 144.064 81.709,144.400 82.259,144.400 82.538 C 144.400 82.817,144.850 83.655,145.400 84.400 C 145.950 85.145,146.400 86.048,146.400 86.406 C 146.400 86.763,146.845 87.443,147.389 87.916 C 147.934 88.389,148.500 89.258,148.647 89.846 C 148.795 90.434,149.231 91.231,149.617 91.617 C 150.003 92.003,150.442 92.878,150.592 93.563 C 150.742 94.247,151.210 94.991,151.633 95.217 C 152.055 95.443,152.400 95.857,152.400 96.136 C 152.400 96.416,152.850 97.255,153.400 98.000 C 153.950 98.745,154.400 99.673,154.400 100.062 C 154.400 100.451,154.753 101.098,155.185 101.500 C 155.617 101.903,156.237 102.869,156.562 103.648 C 156.888 104.427,157.434 105.296,157.777 105.581 C 158.120 105.865,158.400 106.422,158.400 106.818 C 158.400 107.214,158.850 108.073,159.400 108.727 C 159.950 109.381,160.400 110.080,160.400 110.280 C 160.400 110.481,160.850 111.255,161.400 112.000 C 161.950 112.745,162.400 113.682,162.400 114.082 C 162.400 114.481,162.773 115.121,163.229 115.504 C 163.684 115.887,164.322 116.740,164.646 117.400 C 164.970 118.060,165.757 119.500,166.394 120.600 C 167.031 121.700,167.878 123.230,168.276 124.000 C 168.674 124.770,169.211 125.536,169.470 125.703 C 169.728 125.870,170.153 126.680,170.414 127.503 C 170.675 128.326,171.118 129.185,171.399 129.411 C 171.903 129.817,172.833 131.467,174.327 134.606 C 174.747 135.489,175.374 136.446,175.720 136.733 C 176.066 137.020,176.461 137.768,176.599 138.394 C 176.736 139.021,177.090 139.626,177.384 139.739 C 177.679 139.852,178.137 140.632,178.404 141.472 C 178.670 142.312,179.093 143.180,179.344 143.400 C 180.106 144.069,182.260 147.786,182.546 148.928 C 182.694 149.517,183.002 150.000,183.230 150.000 C 183.458 150.000,184.000 150.803,184.434 151.783 C 184.868 152.764,185.385 153.667,185.582 153.789 C 185.780 153.911,186.162 154.684,186.432 155.506 C 186.702 156.328,187.255 157.235,187.661 157.523 C 188.068 157.810,188.400 158.270,188.400 158.545 C 188.400 158.820,188.850 159.655,189.400 160.400 C 189.950 161.145,190.400 162.073,190.400 162.462 C 190.400 162.851,190.753 163.498,191.185 163.900 C 191.617 164.303,192.237 165.269,192.562 166.048 C 192.888 166.827,193.423 167.687,193.751 167.959 C 194.080 168.232,194.474 169.028,194.628 169.728 C 194.782 170.427,195.243 171.235,195.654 171.523 C 196.064 171.810,196.400 172.277,196.400 172.560 C 196.400 172.844,196.833 173.579,197.361 174.194 C 197.890 174.810,198.429 175.847,198.560 176.500 L 198.797 177.687 199.978 176.423 C 200.628 175.728,201.279 174.763,201.425 174.280 C 201.572 173.796,202.014 173.040,202.408 172.600 C 202.801 172.160,203.418 171.170,203.777 170.400 C 205.071 167.632,206.099 165.815,206.601 165.411 C 206.882 165.185,207.325 164.326,207.586 163.503 C 207.847 162.680,208.272 161.870,208.530 161.703 C 208.789 161.536,209.326 160.770,209.724 160.000 C 210.122 159.230,210.969 157.700,211.606 156.600 C 212.243 155.500,213.041 154.025,213.378 153.322 C 213.716 152.619,214.239 151.899,214.540 151.722 C 214.841 151.545,215.302 150.739,215.564 149.932 C 215.826 149.125,216.302 148.248,216.620 147.983 C 216.939 147.718,217.200 147.268,217.200 146.982 C 217.200 146.696,217.624 145.953,218.142 145.331 C 218.660 144.709,219.299 143.541,219.561 142.735 C 219.824 141.930,220.283 141.177,220.582 141.062 C 220.880 140.948,221.246 140.302,221.394 139.628 C 221.542 138.953,221.978 138.176,222.363 137.900 C 222.748 137.625,223.267 136.807,223.517 136.081 C 223.767 135.356,224.338 134.297,224.786 133.727 C 225.234 133.158,225.600 132.453,225.600 132.160 C 225.600 131.868,225.928 131.452,226.330 131.238 C 226.731 131.023,227.276 130.124,227.541 129.240 C 227.805 128.357,228.200 127.524,228.417 127.389 C 228.634 127.255,229.083 126.497,229.414 125.705 C 229.745 124.912,230.372 124.015,230.808 123.709 C 231.244 123.404,231.600 122.724,231.600 122.198 C 231.600 121.672,232.050 120.756,232.600 120.162 C 233.150 119.569,233.600 118.756,233.600 118.356 C 233.600 117.956,233.928 117.452,234.330 117.238 C 234.731 117.023,235.281 116.107,235.552 115.202 C 235.823 114.298,236.294 113.462,236.598 113.345 C 236.902 113.229,237.264 112.621,237.401 111.994 C 237.539 111.368,237.934 110.620,238.280 110.333 C 238.626 110.046,239.256 109.089,239.679 108.206 C 241.003 105.444,241.973 103.815,242.544 103.394 C 242.847 103.171,243.220 102.419,243.373 101.722 C 243.526 101.025,243.920 100.232,244.249 99.959 C 244.577 99.687,245.112 98.827,245.438 98.048 C 245.763 97.269,246.383 96.303,246.815 95.900 C 247.247 95.498,247.600 94.851,247.600 94.462 C 247.600 94.073,248.050 93.145,248.600 92.400 C 249.150 91.655,249.600 90.820,249.600 90.545 C 249.600 90.270,249.932 89.810,250.339 89.523 C 250.745 89.235,251.294 88.339,251.559 87.532 C 251.824 86.725,252.302 85.848,252.620 85.583 C 252.939 85.318,253.200 84.879,253.200 84.606 C 253.200 84.333,253.740 83.431,254.400 82.600 C 255.060 81.769,255.600 80.789,255.600 80.420 C 255.600 80.052,255.938 79.388,256.351 78.945 C 256.764 78.501,257.228 77.741,257.382 77.256 C 257.536 76.770,257.985 76.064,258.378 75.686 C 258.772 75.309,259.316 74.312,259.587 73.472 C 259.859 72.632,260.321 71.852,260.616 71.739 C 260.910 71.626,261.264 71.021,261.401 70.394 C 261.539 69.768,261.934 69.020,262.280 68.733 C 262.626 68.446,263.256 67.489,263.679 66.606 C 266.532 60.654,268.957 58.403,270.148 60.600 " stroke="none" fill="#242c33" fill-rule="evenodd"></path><path id="path3" d="M267.277 60.896 C 265.984 62.171,265.237 63.355,263.679 66.606 C 263.256 67.489,262.626 68.446,262.280 68.733 C 261.934 69.020,261.539 69.768,261.401 70.394 C 261.264 71.021,260.910 71.626,260.616 71.739 C 260.321 71.852,259.859 72.632,259.587 73.472 C 259.316 74.312,258.772 75.309,258.378 75.686 C 257.985 76.064,257.536 76.770,257.382 77.256 C 257.228 77.741,256.764 78.501,256.351 78.945 C 255.938 79.388,255.600 80.052,255.600 80.420 C 255.600 80.789,255.060 81.769,254.400 82.600 C 253.740 83.431,253.200 84.333,253.200 84.606 C 253.200 84.879,252.939 85.318,252.620 85.583 C 252.302 85.848,251.824 86.725,251.559 87.532 C 251.294 88.339,250.745 89.235,250.339 89.523 C 249.932 89.810,249.600 90.270,249.600 90.545 C 249.600 90.820,249.150 91.655,248.600 92.400 C 248.050 93.145,247.600 94.073,247.600 94.462 C 247.600 94.851,247.247 95.498,246.815 95.900 C 246.383 96.303,245.763 97.269,245.438 98.048 C 245.112 98.827,244.577 99.687,244.249 99.959 C 243.920 100.232,243.526 101.025,243.373 101.722 C 243.220 102.419,242.847 103.171,242.544 103.394 C 241.973 103.815,241.003 105.444,239.679 108.206 C 239.256 109.089,238.626 110.046,238.280 110.333 C 237.934 110.620,237.539 111.368,237.401 111.994 C 237.264 112.621,236.902 113.229,236.598 113.345 C 236.294 113.462,235.823 114.298,235.552 115.202 C 235.281 116.107,234.731 117.023,234.330 117.238 C 233.928 117.452,233.600 117.956,233.600 118.356 C 233.600 118.756,233.150 119.569,232.600 120.162 C 232.050 120.756,231.600 121.672,231.600 122.198 C 231.600 122.724,231.244 123.404,230.808 123.709 C 230.372 124.015,229.745 124.912,229.414 125.705 C 229.083 126.497,228.634 127.255,228.417 127.389 C 228.200 127.524,227.805 128.357,227.541 129.240 C 227.276 130.124,226.731 131.023,226.330 131.238 C 225.928 131.452,225.600 131.868,225.600 132.160 C 225.600 132.453,225.234 133.158,224.786 133.727 C 224.338 134.297,223.767 135.356,223.517 136.081 C 223.267 136.807,222.748 137.625,222.363 137.900 C 221.978 138.176,221.542 138.953,221.394 139.628 C 221.246 140.302,220.880 140.948,220.582 141.062 C 220.283 141.177,219.824 141.930,219.561 142.735 C 219.299 143.541,218.660 144.709,218.142 145.331 C 217.624 145.953,217.200 146.696,217.200 146.982 C 217.200 147.268,216.939 147.718,216.620 147.983 C 216.302 148.248,215.826 149.125,215.564 149.932 C 215.302 150.739,214.841 151.545,214.540 151.722 C 214.239 151.899,213.716 152.619,213.378 153.322 C 213.041 154.025,212.243 155.500,211.606 156.600 C 210.969 157.700,210.122 159.230,209.724 160.000 C 209.326 160.770,208.789 161.536,208.530 161.703 C 208.272 161.870,207.847 162.680,207.586 163.503 C 207.325 164.326,206.882 165.185,206.601 165.411 C 206.099 165.815,205.071 167.632,203.777 170.400 C 203.418 171.170,202.801 172.160,202.408 172.600 C 202.014 173.040,201.572 173.796,201.425 174.280 C 201.279 174.763,200.628 175.728,199.978 176.423 L 198.797 177.687 198.560 176.500 C 198.429 175.847,197.890 174.810,197.361 174.194 C 196.833 173.579,196.400 172.844,196.400 172.560 C 196.400 172.277,196.064 171.810,195.654 171.523 C 195.243 171.235,194.782 170.427,194.628 169.728 C 194.474 169.028,194.080 168.232,193.751 167.959 C 193.423 167.687,192.888 166.827,192.562 166.048 C 192.237 165.269,191.617 164.303,191.185 163.900 C 190.753 163.498,190.400 162.851,190.400 162.462 C 190.400 162.073,189.950 161.145,189.400 160.400 C 188.850 159.655,188.400 158.820,188.400 158.545 C 188.400 158.270,188.068 157.810,187.661 157.523 C 187.255 157.235,186.702 156.328,186.432 155.506 C 186.162 154.684,185.780 153.911,185.582 153.789 C 185.385 153.667,184.868 152.764,184.434 151.783 C 184.000 150.803,183.458 150.000,183.230 150.000 C 183.002 150.000,182.694 149.517,182.546 148.928 C 182.260 147.786,180.106 144.069,179.344 143.400 C 179.093 143.180,178.670 142.312,178.404 141.472 C 178.137 140.632,177.679 139.852,177.384 139.739 C 177.090 139.626,176.736 139.021,176.599 138.394 C 176.461 137.768,176.066 137.020,175.720 136.733 C 175.374 136.446,174.747 135.489,174.327 134.606 C 172.833 131.467,171.903 129.817,171.399 129.411 C 171.118 129.185,170.675 128.326,170.414 127.503 C 170.153 126.680,169.728 125.870,169.470 125.703 C 169.211 125.536,168.674 124.770,168.276 124.000 C 167.878 123.230,167.031 121.700,166.394 120.600 C 165.757 119.500,164.970 118.060,164.646 117.400 C 164.322 116.740,163.684 115.887,163.229 115.504 C 162.773 115.121,162.400 114.481,162.400 114.082 C 162.400 113.682,161.950 112.745,161.400 112.000 C 160.850 111.255,160.400 110.481,160.400 110.280 C 160.400 110.080,159.950 109.381,159.400 108.727 C 158.850 108.073,158.400 107.214,158.400 106.818 C 158.400 106.422,158.120 105.865,157.777 105.581 C 157.434 105.296,156.888 104.427,156.562 103.648 C 156.237 102.869,155.617 101.903,155.185 101.500 C 154.753 101.098,154.400 100.451,154.400 100.062 C 154.400 99.673,153.950 98.745,153.400 98.000 C 152.850 97.255,152.400 96.416,152.400 96.136 C 152.400 95.857,152.055 95.443,151.633 95.217 C 151.210 94.991,150.742 94.247,150.592 93.563 C 150.442 92.878,150.003 92.003,149.617 91.617 C 149.231 91.231,148.795 90.434,148.647 89.846 C 148.500 89.258,147.934 88.389,147.389 87.916 C 146.845 87.443,146.400 86.763,146.400 86.406 C 146.400 86.048,145.950 85.145,145.400 84.400 C 144.850 83.655,144.400 82.817,144.400 82.538 C 144.400 82.259,144.064 81.709,143.653 81.316 C 143.242 80.922,142.684 79.912,142.413 79.072 C 142.141 78.232,141.679 77.452,141.384 77.339 C 141.090 77.226,140.739 76.631,140.604 76.017 C 140.469 75.403,139.918 74.486,139.379 73.981 C 138.841 73.475,138.400 72.767,138.400 72.408 C 138.400 72.049,137.950 71.145,137.400 70.400 C 136.850 69.655,136.400 68.820,136.400 68.545 C 136.400 68.270,136.068 67.810,135.661 67.523 C 135.255 67.235,134.702 66.328,134.432 65.506 C 134.162 64.684,133.780 63.911,133.582 63.789 C 133.385 63.667,132.868 62.764,132.434 61.783 C 131.223 59.046,127.600 59.521,127.600 62.417 C 127.600 62.768,127.145 63.451,126.589 63.935 C 126.032 64.419,125.472 65.340,125.344 65.982 C 125.215 66.624,124.879 67.238,124.595 67.346 C 124.312 67.455,123.858 68.232,123.586 69.072 C 123.314 69.912,122.842 70.870,122.536 71.200 C 121.434 72.390,119.876 75.027,119.523 76.300 C 119.325 77.015,118.981 77.600,118.759 77.600 C 118.537 77.600,118.007 78.386,117.582 79.347 C 117.157 80.308,116.537 81.320,116.205 81.596 C 115.872 81.872,115.600 82.422,115.600 82.818 C 115.600 83.214,115.150 84.073,114.600 84.727 C 114.050 85.381,113.600 86.080,113.600 86.280 C 113.600 86.481,113.150 87.255,112.600 88.000 C 112.050 88.745,111.600 89.682,111.600 90.080 C 111.600 90.479,111.159 91.189,110.620 91.658 C 110.081 92.126,109.524 93.037,109.382 93.682 C 109.240 94.327,108.873 94.951,108.566 95.068 C 108.259 95.186,107.797 95.984,107.540 96.841 C 107.284 97.699,106.950 98.400,106.800 98.400 C 106.649 98.400,106.183 99.063,105.763 99.874 C 105.343 100.685,104.685 101.675,104.300 102.074 C 103.915 102.473,103.600 103.151,103.600 103.579 C 103.600 104.008,103.150 104.844,102.600 105.438 C 102.050 106.031,101.600 106.726,101.600 106.981 C 101.600 107.236,101.136 108.065,100.570 108.822 C 99.339 110.469,99.427 112.807,100.767 114.055 C 101.225 114.482,101.600 115.087,101.600 115.400 C 101.600 115.713,101.936 116.291,102.347 116.684 C 102.758 117.078,103.316 118.088,103.587 118.928 C 103.859 119.768,104.321 120.548,104.616 120.661 C 104.910 120.774,105.261 121.369,105.396 121.983 C 105.531 122.597,106.082 123.514,106.621 124.019 C 107.159 124.525,107.600 125.233,107.600 125.592 C 107.600 125.951,108.050 126.855,108.600 127.600 C 109.150 128.345,109.600 129.180,109.600 129.455 C 109.600 129.730,109.947 130.198,110.372 130.495 C 110.796 130.793,111.270 131.568,111.424 132.218 C 111.579 132.868,112.021 133.760,112.407 134.200 C 112.792 134.640,113.233 135.411,113.385 135.913 C 113.537 136.415,114.098 137.296,114.631 137.871 C 115.164 138.446,115.600 139.216,115.600 139.581 C 115.600 139.946,116.050 140.855,116.600 141.600 C 117.150 142.345,117.600 143.180,117.600 143.455 C 117.600 143.730,117.932 144.190,118.339 144.477 C 118.745 144.765,119.294 145.661,119.559 146.468 C 119.824 147.275,120.302 148.152,120.620 148.417 C 120.939 148.682,121.200 149.121,121.200 149.394 C 121.200 149.667,121.740 150.569,122.400 151.400 C 123.060 152.231,123.600 153.211,123.600 153.580 C 123.600 153.948,123.938 154.612,124.351 155.055 C 124.764 155.499,125.220 156.233,125.364 156.686 C 125.508 157.140,126.070 157.990,126.613 158.576 C 127.156 159.162,127.600 159.992,127.600 160.421 C 127.600 160.849,127.942 161.542,128.361 161.961 C 128.779 162.379,129.253 163.144,129.415 163.661 C 129.577 164.177,130.136 165.110,130.657 165.734 C 131.179 166.357,131.504 167.032,131.379 167.234 C 131.245 167.450,118.023 167.600,99.005 167.600 L 66.858 167.600 66.029 168.654 C 65.573 169.234,65.200 170.024,65.200 170.411 C 65.200 170.798,64.940 171.214,64.622 171.336 C 64.305 171.458,63.823 172.298,63.552 173.202 C 63.281 174.107,62.731 175.023,62.330 175.238 C 61.928 175.452,61.600 175.868,61.600 176.160 C 61.600 176.453,61.234 177.158,60.786 177.727 C 60.338 178.297,59.767 179.356,59.517 180.081 C 59.267 180.807,58.748 181.625,58.363 181.900 C 57.978 182.176,57.549 182.922,57.409 183.559 C 57.269 184.196,56.815 185.024,56.400 185.400 C 55.985 185.776,55.535 186.586,55.400 187.200 C 55.265 187.814,54.805 188.634,54.377 189.021 C 53.950 189.407,53.600 189.931,53.600 190.184 C 53.600 190.437,53.159 191.242,52.621 191.972 C 52.082 192.701,51.531 193.801,51.397 194.416 C 51.262 195.030,50.898 195.630,50.588 195.749 C 50.279 195.868,49.742 196.558,49.395 197.283 C 49.048 198.007,48.243 199.500,47.606 200.600 C 46.969 201.700,46.122 203.230,45.724 204.000 C 45.326 204.770,44.789 205.536,44.530 205.703 C 44.272 205.870,43.847 206.680,43.586 207.503 C 43.325 208.326,42.882 209.185,42.601 209.411 C 42.099 209.815,41.071 211.632,39.777 214.400 C 39.418 215.170,38.794 216.160,38.391 216.600 C 37.355 217.733,37.022 219.354,37.709 219.924 C 38.358 220.463,174.454 220.649,174.800 220.111 C 174.910 219.940,144.408 219.754,107.019 219.699 C 65.435 219.637,38.892 219.452,38.663 219.223 C 38.430 218.990,38.688 218.373,39.344 217.593 C 39.925 216.903,40.510 215.902,40.643 215.369 C 40.777 214.836,41.032 214.400,41.210 214.400 C 41.388 214.400,41.845 213.584,42.226 212.587 C 42.607 211.589,43.135 210.644,43.399 210.487 C 43.899 210.188,44.573 209.046,46.044 206.000 C 46.522 205.010,47.044 204.110,47.203 204.000 C 47.362 203.890,47.922 203.011,48.446 202.046 C 50.067 199.065,51.202 197.066,52.220 195.400 C 52.758 194.520,53.584 192.990,54.055 192.000 C 54.527 191.010,55.082 190.135,55.289 190.056 C 55.497 189.976,56.019 189.166,56.450 188.256 C 58.098 184.776,59.133 182.953,59.755 182.437 C 60.110 182.143,60.400 181.678,60.400 181.405 C 60.400 181.132,60.735 180.479,61.145 179.954 C 61.555 179.429,62.025 178.550,62.191 178.000 C 62.356 177.450,62.807 176.640,63.192 176.200 C 63.576 175.760,64.582 174.140,65.426 172.600 C 66.271 171.060,67.240 169.581,67.581 169.313 C 68.055 168.939,75.551 168.822,99.656 168.813 C 129.818 168.801,131.149 168.769,132.039 168.049 L 132.966 167.298 132.233 165.673 C 131.830 164.779,131.269 163.959,130.988 163.851 C 130.706 163.742,130.355 163.104,130.207 162.432 C 130.059 161.759,129.757 161.097,129.536 160.961 C 129.315 160.824,128.795 159.922,128.381 158.956 C 127.967 157.990,127.466 157.200,127.269 157.200 C 127.071 157.200,126.599 156.390,126.221 155.400 C 125.843 154.410,125.388 153.600,125.210 153.600 C 125.032 153.600,124.781 153.179,124.652 152.665 C 124.523 152.151,124.056 151.271,123.615 150.710 C 123.173 150.148,122.162 148.454,121.366 146.945 C 120.571 145.435,119.599 143.840,119.206 143.400 C 118.813 142.960,118.356 142.150,118.191 141.600 C 118.025 141.050,117.555 140.171,117.145 139.646 C 116.735 139.121,116.400 138.460,116.400 138.177 C 116.400 137.893,115.977 137.153,115.461 136.531 C 114.479 135.348,113.762 134.113,112.450 131.344 C 112.019 130.433,111.476 129.571,111.244 129.427 C 111.013 129.284,110.457 128.409,110.010 127.483 C 109.563 126.558,108.758 125.080,108.220 124.200 C 106.920 122.071,105.363 119.280,104.647 117.792 C 104.328 117.127,103.691 116.245,103.233 115.830 C 102.775 115.415,102.400 114.825,102.400 114.519 C 102.400 114.212,102.059 113.256,101.643 112.394 C 101.052 111.171,100.994 110.737,101.378 110.418 C 101.649 110.193,102.087 109.287,102.351 108.405 C 102.616 107.522,103.003 106.800,103.213 106.800 C 103.581 106.800,104.263 105.653,105.997 102.117 C 106.451 101.191,107.013 100.316,107.244 100.173 C 107.476 100.029,108.020 99.167,108.452 98.256 C 109.864 95.279,110.874 93.411,111.400 92.800 C 111.685 92.470,112.569 90.965,113.365 89.455 C 114.161 87.946,115.173 86.252,115.615 85.690 C 116.056 85.129,116.523 84.249,116.652 83.735 C 116.781 83.221,117.032 82.800,117.210 82.800 C 117.388 82.800,117.840 81.999,118.214 81.020 C 118.588 80.040,119.233 78.932,119.647 78.558 C 120.061 78.183,120.400 77.669,120.400 77.416 C 120.400 77.163,120.850 76.345,121.400 75.600 C 121.950 74.855,122.400 73.914,122.400 73.510 C 122.400 73.106,122.670 72.671,123.000 72.545 C 123.330 72.418,123.961 71.569,124.402 70.657 C 124.843 69.746,125.735 68.100,126.386 67.000 C 127.036 65.900,127.873 64.325,128.245 63.500 C 129.389 60.963,130.750 61.348,132.440 64.685 C 133.188 66.162,134.180 67.827,134.645 68.385 C 135.110 68.943,135.630 69.847,135.802 70.392 C 135.973 70.938,136.419 71.838,136.794 72.392 C 138.980 75.626,140.035 77.460,141.544 80.642 C 141.972 81.545,142.584 82.385,142.904 82.508 C 143.224 82.631,143.593 83.265,143.723 83.917 C 143.854 84.570,144.226 85.369,144.551 85.693 C 144.875 86.018,145.434 86.895,145.792 87.642 C 146.150 88.389,146.928 89.826,147.522 90.835 C 148.115 91.845,148.936 93.285,149.347 94.035 C 149.758 94.786,150.412 95.760,150.801 96.200 C 151.190 96.640,151.644 97.450,151.809 98.000 C 151.975 98.550,152.445 99.429,152.855 99.954 C 153.265 100.479,153.600 101.126,153.600 101.392 C 153.600 101.658,153.954 102.196,154.386 102.587 C 154.818 102.978,155.472 104.086,155.840 105.049 C 156.208 106.012,156.645 106.800,156.811 106.800 C 156.977 106.800,157.223 107.236,157.357 107.769 C 157.490 108.302,158.009 109.247,158.509 109.869 C 159.009 110.491,159.732 111.630,160.117 112.400 C 160.502 113.170,161.254 114.520,161.787 115.400 C 163.251 117.813,164.675 120.410,165.550 122.256 C 165.981 123.166,166.503 123.976,166.711 124.056 C 166.918 124.135,167.479 125.010,167.958 126.000 C 169.152 128.471,170.106 130.151,170.700 130.829 C 170.975 131.143,171.848 132.660,172.639 134.200 C 173.431 135.740,174.401 137.360,174.794 137.800 C 175.187 138.240,175.644 139.050,175.809 139.600 C 175.975 140.150,176.445 141.029,176.855 141.554 C 177.265 142.079,177.600 142.732,177.600 143.005 C 177.600 143.278,177.895 143.747,178.255 144.045 C 178.615 144.344,179.258 145.311,179.685 146.194 C 180.987 148.889,182.176 151.064,182.665 151.647 C 182.921 151.951,183.791 153.460,184.597 155.000 C 185.404 156.540,186.321 158.000,186.634 158.245 C 186.947 158.490,187.412 159.300,187.666 160.045 C 187.920 160.790,188.459 161.829,188.864 162.354 C 189.269 162.879,189.600 163.520,189.600 163.779 C 189.600 164.037,189.950 164.625,190.378 165.084 C 191.150 165.913,192.041 167.479,193.548 170.656 C 193.980 171.566,194.503 172.376,194.711 172.456 C 194.918 172.535,195.472 173.410,195.941 174.400 C 196.411 175.390,197.154 176.740,197.593 177.400 C 198.032 178.060,198.499 178.817,198.632 179.083 C 198.990 179.802,201.904 176.948,202.204 175.584 C 202.340 174.963,202.734 174.220,203.080 173.933 C 203.426 173.646,204.058 172.689,204.485 171.806 C 205.850 168.981,206.985 166.925,207.553 166.249 C 208.186 165.495,209.256 163.633,210.224 161.600 C 210.590 160.830,211.025 160.110,211.189 160.000 C 211.354 159.890,211.805 159.170,212.192 158.400 C 212.580 157.630,213.123 156.730,213.399 156.400 C 213.675 156.070,214.140 155.125,214.431 154.300 C 214.722 153.475,215.103 152.800,215.277 152.800 C 215.593 152.800,216.392 151.413,218.042 148.000 C 218.521 147.010,219.082 146.135,219.289 146.056 C 219.497 145.976,220.019 145.166,220.451 144.256 C 221.962 141.064,223.016 139.232,225.206 135.992 C 225.581 135.438,226.027 134.538,226.198 133.992 C 226.370 133.447,226.922 132.506,227.427 131.902 C 227.932 131.298,228.471 130.407,228.625 129.921 C 228.779 129.435,229.152 128.791,229.453 128.490 C 229.754 128.189,230.000 127.710,230.000 127.426 C 230.000 127.142,230.540 126.231,231.200 125.400 C 231.860 124.569,232.400 123.680,232.400 123.423 C 232.400 123.166,232.850 122.345,233.400 121.600 C 233.950 120.855,234.400 119.947,234.400 119.584 C 234.400 119.221,234.775 118.585,235.233 118.170 C 235.691 117.755,236.328 116.873,236.647 116.208 C 237.363 114.720,238.920 111.929,240.220 109.800 C 240.758 108.920,241.584 107.390,242.055 106.400 C 242.527 105.410,243.082 104.535,243.289 104.456 C 243.497 104.376,244.020 103.566,244.452 102.656 C 245.959 99.479,246.850 97.913,247.622 97.084 C 248.050 96.625,248.400 96.037,248.400 95.779 C 248.400 95.520,248.731 94.879,249.136 94.354 C 249.541 93.829,250.080 92.790,250.334 92.045 C 250.588 91.300,251.053 90.490,251.366 90.245 C 251.679 90.000,252.596 88.540,253.403 87.000 C 254.209 85.460,255.079 83.951,255.335 83.647 C 255.824 83.064,257.013 80.889,258.315 78.194 C 258.742 77.311,259.385 76.344,259.745 76.045 C 260.105 75.747,260.400 75.278,260.400 75.005 C 260.400 74.732,260.735 74.079,261.145 73.554 C 261.555 73.029,262.025 72.150,262.191 71.600 C 262.356 71.050,262.813 70.240,263.206 69.800 C 263.599 69.360,264.568 67.740,265.358 66.200 C 266.149 64.660,267.289 62.908,267.893 62.306 L 268.989 61.213 269.667 62.535 C 270.041 63.262,270.628 64.091,270.973 64.377 C 271.318 64.664,271.600 65.072,271.600 65.284 C 271.600 65.496,272.275 66.827,273.100 68.242 C 276.262 73.662,276.811 74.651,277.580 76.300 C 278.015 77.235,278.543 78.000,278.753 78.000 C 278.962 78.000,279.443 78.810,279.821 79.800 C 280.199 80.790,280.650 81.600,280.823 81.600 C 280.996 81.600,281.350 82.243,281.609 83.028 C 281.868 83.813,282.326 84.550,282.625 84.665 C 282.925 84.780,283.288 85.262,283.433 85.737 C 283.578 86.212,284.350 87.728,285.149 89.107 C 285.947 90.485,287.094 92.465,287.697 93.507 C 288.300 94.548,289.062 95.973,289.391 96.673 C 289.719 97.373,290.186 98.067,290.427 98.217 C 290.669 98.366,291.225 99.233,291.663 100.144 C 292.978 102.873,294.171 105.059,294.674 105.656 C 297.087 108.523,298.018 112.423,296.574 113.621 C 296.258 113.883,296.000 114.321,296.000 114.593 C 296.000 114.866,295.525 115.788,294.944 116.644 C 294.363 117.500,293.281 119.345,292.538 120.745 C 291.796 122.144,290.856 123.711,290.450 124.227 C 290.045 124.742,289.050 126.507,288.239 128.148 C 287.428 129.789,286.502 131.349,286.182 131.615 C 285.862 131.881,285.600 132.311,285.600 132.571 C 285.600 132.832,285.150 133.655,284.600 134.400 C 284.050 135.145,283.600 136.086,283.600 136.490 C 283.600 136.894,283.330 137.329,283.000 137.455 C 282.670 137.582,282.039 138.431,281.598 139.343 C 281.157 140.254,280.270 141.900,279.625 143.000 C 278.981 144.100,278.218 145.450,277.931 146.000 C 277.643 146.550,277.001 147.610,276.504 148.356 C 276.007 149.102,275.600 150.052,275.600 150.468 C 275.600 150.885,275.312 151.335,274.961 151.470 C 274.610 151.605,273.971 152.455,273.542 153.358 C 272.170 156.248,271.114 158.194,270.807 158.400 C 270.642 158.510,270.078 159.395,269.554 160.367 C 268.565 162.199,266.956 164.984,266.115 166.320 C 264.636 168.671,263.516 168.589,298.964 168.709 L 331.193 168.818 332.097 170.462 C 332.593 171.366,333.281 172.635,333.624 173.282 C 333.967 173.929,334.417 174.581,334.624 174.731 C 334.831 174.881,335.793 176.533,336.762 178.402 C 337.731 180.271,338.752 181.936,339.030 182.102 C 339.309 182.269,339.655 182.942,339.800 183.598 C 339.944 184.254,340.243 184.903,340.464 185.039 C 340.685 185.176,341.205 186.078,341.619 187.044 C 342.033 188.010,342.534 188.800,342.731 188.800 C 342.929 188.800,343.401 189.610,343.779 190.600 C 344.157 191.590,344.612 192.400,344.790 192.400 C 344.968 192.400,345.219 192.821,345.348 193.335 C 345.477 193.849,345.944 194.729,346.385 195.290 C 346.827 195.852,347.838 197.546,348.634 199.055 C 349.429 200.565,350.401 202.160,350.794 202.600 C 351.187 203.040,351.644 203.850,351.809 204.400 C 351.975 204.950,352.445 205.829,352.855 206.354 C 353.265 206.879,353.600 207.540,353.600 207.823 C 353.600 208.107,354.023 208.847,354.539 209.469 C 355.510 210.638,356.298 211.986,357.424 214.400 C 357.783 215.170,358.415 216.167,358.828 216.615 C 359.241 217.063,359.629 217.873,359.690 218.415 L 359.800 219.400 292.100 219.600 C 254.865 219.710,224.445 219.939,224.500 220.109 C 224.555 220.279,255.188 220.412,292.573 220.404 C 367.534 220.390,363.111 220.539,361.188 218.094 C 360.755 217.543,360.400 216.857,360.400 216.569 C 360.400 216.281,360.053 215.802,359.628 215.505 C 359.204 215.207,358.730 214.432,358.576 213.782 C 358.421 213.132,357.979 212.240,357.593 211.800 C 357.208 211.360,356.767 210.589,356.615 210.087 C 356.463 209.585,355.902 208.704,355.369 208.129 C 354.836 207.554,354.400 206.784,354.400 206.419 C 354.400 206.054,353.950 205.145,353.400 204.400 C 352.850 203.655,352.400 202.820,352.400 202.545 C 352.400 202.270,352.068 201.810,351.661 201.523 C 351.255 201.235,350.706 200.339,350.441 199.532 C 350.176 198.725,349.698 197.848,349.380 197.583 C 349.061 197.318,348.800 196.879,348.800 196.606 C 348.800 196.333,348.260 195.431,347.600 194.600 C 346.940 193.769,346.400 192.789,346.400 192.420 C 346.400 192.052,346.062 191.388,345.649 190.945 C 345.236 190.501,344.780 189.767,344.636 189.314 C 344.492 188.860,343.930 188.010,343.387 187.424 C 342.844 186.838,342.400 186.008,342.400 185.579 C 342.400 185.151,342.058 184.458,341.639 184.039 C 341.221 183.621,340.751 182.856,340.594 182.339 C 340.437 181.823,339.986 181.040,339.592 180.600 C 339.199 180.160,338.580 179.170,338.217 178.400 C 337.219 176.283,336.269 174.669,335.287 173.419 C 334.799 172.799,334.400 171.956,334.400 171.546 C 334.400 171.136,334.054 170.454,333.630 170.030 C 333.207 169.607,332.661 168.887,332.416 168.430 C 331.972 167.601,331.943 167.600,300.636 167.600 C 268.223 167.600,266.147 167.532,267.586 166.525 C 268.034 166.211,268.400 165.730,268.400 165.455 C 268.400 165.180,268.850 164.345,269.400 163.600 C 269.950 162.855,270.400 161.942,270.400 161.571 C 270.400 161.201,270.699 160.651,271.065 160.349 C 271.431 160.047,272.069 159.035,272.484 158.100 C 272.898 157.165,273.402 156.400,273.603 156.400 C 273.804 156.400,274.192 155.635,274.467 154.700 C 274.741 153.765,275.288 152.765,275.683 152.477 C 276.077 152.190,276.400 151.730,276.400 151.455 C 276.400 151.180,276.850 150.345,277.400 149.600 C 277.950 148.855,278.400 147.952,278.400 147.594 C 278.400 147.237,278.855 146.549,279.411 146.065 C 279.968 145.581,280.528 144.660,280.656 144.018 C 280.785 143.376,281.121 142.762,281.405 142.654 C 281.688 142.545,282.142 141.768,282.414 140.928 C 282.686 140.088,283.159 139.130,283.466 138.800 C 284.565 137.616,286.386 134.587,286.393 133.929 C 286.397 133.559,286.715 132.951,287.100 132.576 C 287.803 131.892,288.911 129.977,290.328 126.994 C 290.747 126.111,291.385 125.144,291.745 124.845 C 292.105 124.547,292.400 124.089,292.400 123.829 C 292.400 123.568,292.850 122.745,293.400 122.000 C 293.950 121.255,294.400 120.318,294.400 119.920 C 294.400 119.521,294.835 118.816,295.368 118.353 C 295.900 117.891,296.455 117.037,296.600 116.456 C 296.746 115.875,297.188 115.099,297.582 114.731 C 298.650 113.736,298.980 110.765,298.205 109.134 C 296.925 106.441,295.783 104.488,295.100 103.824 C 294.715 103.449,294.400 102.830,294.400 102.447 C 294.400 102.064,294.047 101.372,293.616 100.910 C 293.185 100.447,292.715 99.599,292.570 99.025 C 292.426 98.451,292.000 97.761,291.623 97.491 C 291.246 97.221,290.733 96.407,290.483 95.681 C 290.233 94.956,289.662 93.897,289.214 93.327 C 288.766 92.758,288.400 92.068,288.400 91.795 C 288.400 91.522,288.105 91.053,287.745 90.755 C 287.385 90.456,286.747 89.489,286.327 88.606 C 284.877 85.556,284.120 84.277,283.499 83.823 C 283.156 83.572,282.672 82.610,282.423 81.684 C 282.173 80.758,281.805 80.000,281.603 80.000 C 281.402 80.000,280.862 79.235,280.403 78.300 C 279.943 77.365,279.043 75.700,278.402 74.600 C 277.760 73.500,276.960 72.027,276.624 71.327 C 276.287 70.627,275.814 69.933,275.573 69.783 C 275.331 69.634,274.781 68.767,274.350 67.856 C 273.633 66.342,272.850 64.980,271.191 62.361 C 270.856 61.833,270.387 61.040,270.148 60.600 C 269.488 59.384,268.731 59.462,267.277 60.896 " stroke="none" fill="#78461e" fill-rule="evenodd"></path><path id="path4" d="M198.414 180.374 C 197.870 181.391,197.900 182.013,198.448 181.071 C 198.957 180.196,199.942 180.873,201.256 183.000 C 201.663 183.660,201.998 184.005,201.999 183.766 C 202.000 183.363,199.256 179.600,198.961 179.600 C 198.888 179.600,198.642 179.948,198.414 180.374 M196.614 183.835 C 196.241 184.404,196.005 184.938,196.089 185.022 C 196.173 185.107,196.558 184.641,196.944 183.988 C 197.806 182.528,197.548 182.409,196.614 183.835 M202.000 184.664 C 202.000 184.882,202.495 185.497,203.100 186.030 L 204.200 187.000 203.200 185.800 C 202.650 185.140,202.155 184.525,202.100 184.433 C 202.045 184.342,202.000 184.445,202.000 184.664 M193.094 190.103 L 192.388 191.400 193.194 190.456 C 193.880 189.652,194.246 188.794,193.900 188.803 C 193.845 188.804,193.482 189.389,193.094 190.103 M208.000 194.689 C 208.000 194.921,208.371 195.536,208.824 196.056 L 209.647 197.000 208.945 195.800 C 208.020 194.221,208.000 194.197,208.000 194.689 M189.094 196.903 L 188.388 198.200 189.194 197.256 C 189.880 196.452,190.246 195.594,189.900 195.603 C 189.845 195.604,189.482 196.189,189.094 196.903 M186.654 201.122 C 186.074 201.958,185.600 202.793,185.600 202.977 C 185.600 203.264,186.745 201.726,187.741 200.100 C 188.447 198.948,187.626 199.720,186.654 201.122 M212.015 201.400 C 212.020 201.620,212.468 202.520,213.010 203.400 C 213.552 204.280,213.991 204.820,213.985 204.600 C 213.980 204.380,213.532 203.480,212.990 202.600 C 212.448 201.720,212.009 201.180,212.015 201.400 M184.555 204.612 C 184.190 205.169,183.964 205.698,184.053 205.787 C 184.142 205.876,184.518 205.420,184.889 204.774 C 185.714 203.336,185.469 203.217,184.555 204.612 M182.900 207.616 C 181.637 209.175,181.771 209.533,183.050 208.014 C 183.627 207.328,184.032 206.708,183.950 206.636 C 183.867 206.564,183.395 207.005,182.900 207.616 M181.094 210.903 L 180.388 212.200 181.194 211.256 C 181.880 210.452,182.246 209.594,181.900 209.603 C 181.845 209.604,181.482 210.189,181.094 210.903 M179.196 214.097 C 178.026 215.856,177.936 216.182,178.946 215.000 C 179.837 213.957,180.237 213.200,179.896 213.200 C 179.839 213.200,179.524 213.604,179.196 214.097 M220.000 215.489 C 220.000 215.721,220.371 216.336,220.824 216.856 L 221.647 217.800 220.945 216.600 C 220.020 215.021,220.000 214.997,220.000 215.489 M174.900 220.493 C 174.185 221.233,173.600 222.020,173.600 222.241 C 173.600 222.463,173.150 223.255,172.600 224.000 C 172.050 224.745,171.600 225.682,171.600 226.080 C 171.600 226.479,171.159 227.189,170.620 227.658 C 170.081 228.126,169.524 229.037,169.382 229.682 C 169.240 230.327,168.880 230.948,168.582 231.062 C 168.283 231.177,167.824 231.930,167.561 232.735 C 167.299 233.541,166.660 234.709,166.142 235.331 C 165.624 235.953,165.200 236.698,165.200 236.988 C 165.200 237.277,164.948 237.611,164.640 237.729 C 164.332 237.847,163.863 238.632,163.596 239.472 C 163.330 240.312,162.882 241.185,162.601 241.411 C 162.097 241.817,161.167 243.467,159.673 246.606 C 159.253 247.489,158.626 248.446,158.280 248.733 C 157.934 249.020,157.539 249.768,157.401 250.394 C 157.264 251.021,156.910 251.626,156.616 251.739 C 156.321 251.852,155.859 252.632,155.587 253.472 C 155.316 254.312,154.772 255.309,154.378 255.686 C 153.985 256.064,153.536 256.770,153.382 257.256 C 153.228 257.741,152.764 258.501,152.351 258.945 C 151.938 259.388,151.600 260.051,151.600 260.417 C 151.600 260.783,151.164 261.554,150.631 262.129 C 150.098 262.704,149.537 263.585,149.385 264.087 C 149.233 264.589,148.792 265.360,148.407 265.800 C 148.021 266.240,147.579 267.132,147.424 267.782 C 147.270 268.432,146.796 269.207,146.372 269.505 C 145.947 269.802,145.600 270.270,145.600 270.545 C 145.600 270.820,145.150 271.655,144.600 272.400 C 144.050 273.145,143.600 274.073,143.600 274.462 C 143.600 274.851,143.247 275.498,142.815 275.900 C 142.383 276.303,141.763 277.269,141.438 278.048 C 141.112 278.827,140.577 279.687,140.249 279.959 C 139.920 280.232,139.526 281.028,139.372 281.728 C 139.218 282.427,138.757 283.235,138.346 283.523 C 137.936 283.810,137.600 284.270,137.600 284.545 C 137.600 284.820,137.150 285.655,136.600 286.400 C 136.050 287.145,135.600 288.012,135.600 288.325 C 135.600 288.638,135.060 289.509,134.400 290.261 C 133.740 291.013,133.200 291.962,133.200 292.371 C 133.200 292.780,132.940 293.214,132.622 293.336 C 132.305 293.458,131.823 294.298,131.552 295.202 C 131.281 296.107,130.731 297.023,130.330 297.238 C 129.928 297.452,129.600 297.956,129.600 298.356 C 129.600 298.756,129.150 299.569,128.600 300.162 C 128.050 300.756,127.600 301.649,127.600 302.148 C 127.600 302.647,127.155 303.443,126.611 303.916 C 126.066 304.389,125.500 305.258,125.353 305.846 C 125.205 306.434,124.769 307.231,124.383 307.617 C 123.997 308.003,123.558 308.878,123.408 309.563 C 123.258 310.247,122.790 310.991,122.367 311.217 C 121.945 311.443,121.600 311.868,121.600 312.160 C 121.600 312.453,121.234 313.158,120.786 313.727 C 120.338 314.297,119.767 315.356,119.517 316.081 C 119.267 316.807,118.748 317.625,118.363 317.900 C 117.978 318.176,117.549 318.922,117.409 319.559 C 117.269 320.196,116.815 321.024,116.400 321.400 C 115.985 321.776,115.535 322.586,115.400 323.200 C 115.265 323.814,114.805 324.634,114.377 325.021 C 113.950 325.407,113.600 325.931,113.600 326.184 C 113.600 326.437,113.150 327.255,112.600 328.000 C 112.050 328.745,111.600 329.682,111.600 330.080 C 111.600 330.479,111.150 331.197,110.600 331.675 C 110.050 332.153,109.600 332.747,109.600 332.994 C 109.600 333.242,109.159 334.042,108.621 334.772 C 108.082 335.501,107.528 336.616,107.389 337.249 C 107.250 337.882,106.971 338.400,106.768 338.400 C 105.866 338.400,106.527 339.569,107.760 340.154 C 109.310 340.890,163.079 341.134,166.159 340.419 C 167.808 340.037,168.247 339.614,168.668 338.000 C 168.812 337.450,169.260 336.765,169.665 336.477 C 170.069 336.190,170.400 335.619,170.400 335.208 C 170.400 334.797,170.825 333.953,171.345 333.331 C 171.865 332.709,172.423 331.777,172.585 331.261 C 172.747 330.744,173.221 329.979,173.639 329.561 C 174.058 329.142,174.400 328.439,174.400 327.997 C 174.400 327.556,174.841 326.811,175.380 326.342 C 175.919 325.874,176.476 324.963,176.618 324.318 C 176.760 323.673,177.120 323.052,177.418 322.938 C 177.717 322.823,178.176 322.070,178.439 321.265 C 178.701 320.459,179.340 319.291,179.858 318.669 C 180.376 318.047,180.800 317.277,180.800 316.957 C 180.800 316.637,181.072 316.270,181.406 316.143 C 181.739 316.015,182.207 315.133,182.446 314.182 C 182.685 313.232,183.127 312.360,183.428 312.245 C 183.729 312.129,184.258 311.442,184.605 310.717 C 184.952 309.993,185.757 308.500,186.394 307.400 C 187.031 306.300,187.878 304.770,188.276 304.000 C 188.674 303.230,189.225 302.456,189.499 302.281 C 189.774 302.105,190.200 301.160,190.447 300.181 C 190.693 299.201,191.124 298.400,191.404 298.400 C 191.684 298.400,192.219 297.725,192.593 296.900 C 193.751 294.347,194.961 292.194,195.900 291.019 C 196.395 290.399,196.800 289.668,196.800 289.395 C 196.800 289.122,197.069 288.675,197.398 288.402 C 197.727 288.128,198.210 287.193,198.471 286.322 L 198.945 284.738 199.461 285.722 C 199.744 286.263,200.234 286.804,200.550 286.926 C 200.866 287.047,201.240 287.673,201.382 288.318 C 201.524 288.963,202.081 289.874,202.620 290.342 C 203.159 290.811,203.600 291.521,203.600 291.920 C 203.600 292.318,204.050 293.255,204.600 294.000 C 205.150 294.745,205.600 295.563,205.600 295.816 C 205.600 296.069,205.950 296.593,206.377 296.979 C 206.805 297.366,207.265 298.186,207.400 298.800 C 207.535 299.414,207.985 300.224,208.400 300.600 C 208.815 300.976,209.264 301.780,209.397 302.386 C 209.530 302.993,210.081 303.874,210.620 304.342 C 211.159 304.811,211.600 305.521,211.600 305.920 C 211.600 306.318,212.050 307.255,212.600 308.000 C 213.150 308.745,213.600 309.584,213.600 309.864 C 213.600 310.143,213.945 310.557,214.367 310.783 C 214.790 311.009,215.258 311.753,215.408 312.437 C 215.558 313.122,215.997 313.997,216.383 314.383 C 216.769 314.769,217.205 315.566,217.353 316.154 C 217.500 316.742,218.066 317.611,218.611 318.084 C 219.155 318.557,219.600 319.362,219.600 319.872 C 219.600 320.382,219.974 321.174,220.432 321.632 C 220.890 322.090,221.447 322.990,221.671 323.632 C 221.895 324.274,222.311 324.800,222.595 324.800 C 222.879 324.800,223.231 325.440,223.378 326.222 C 223.525 327.005,223.990 327.990,224.412 328.412 C 224.834 328.834,225.289 329.617,225.424 330.152 C 225.558 330.687,226.102 331.533,226.634 332.032 C 227.165 332.531,227.600 333.233,227.600 333.592 C 227.600 333.951,228.050 334.855,228.600 335.600 C 229.150 336.345,229.600 337.153,229.600 337.394 C 229.600 337.635,230.332 338.506,231.227 339.329 L 232.854 340.825 261.966 340.712 C 292.826 340.593,292.400 340.620,292.400 338.774 C 292.400 338.373,292.068 337.810,291.661 337.523 C 291.255 337.235,290.706 336.339,290.441 335.532 C 290.176 334.725,289.698 333.848,289.380 333.583 C 289.061 333.318,288.800 332.879,288.800 332.606 C 288.800 332.333,288.260 331.431,287.600 330.600 C 286.940 329.769,286.400 328.789,286.400 328.420 C 286.400 328.052,286.062 327.388,285.649 326.945 C 285.236 326.501,284.780 325.767,284.636 325.314 C 284.492 324.860,283.930 324.010,283.387 323.424 C 282.844 322.838,282.400 322.008,282.400 321.579 C 282.400 321.151,282.058 320.458,281.639 320.039 C 281.221 319.621,280.750 318.856,280.592 318.339 C 280.434 317.823,280.012 317.067,279.653 316.660 C 279.029 315.953,277.998 314.129,276.618 311.291 C 276.268 310.571,275.626 309.626,275.191 309.191 C 274.756 308.756,274.400 308.038,274.400 307.596 C 274.400 307.154,274.040 306.484,273.600 306.107 C 273.160 305.730,272.800 305.206,272.800 304.942 C 272.800 304.678,272.376 303.953,271.858 303.331 C 271.340 302.709,270.701 301.541,270.439 300.735 C 270.176 299.930,269.717 299.177,269.418 299.062 C 269.120 298.948,268.760 298.327,268.618 297.682 C 268.476 297.037,267.919 296.126,267.380 295.658 C 266.841 295.189,266.400 294.479,266.400 294.080 C 266.400 293.682,265.950 292.745,265.400 292.000 C 264.850 291.255,264.400 290.481,264.400 290.280 C 264.400 290.080,263.950 289.381,263.400 288.727 C 262.850 288.073,262.400 287.214,262.400 286.818 C 262.400 286.422,262.120 285.865,261.777 285.581 C 261.434 285.296,260.888 284.427,260.562 283.648 C 260.237 282.869,259.617 281.903,259.185 281.500 C 258.753 281.098,258.400 280.451,258.400 280.062 C 258.400 279.673,257.950 278.745,257.400 278.000 C 256.850 277.255,256.400 276.416,256.400 276.136 C 256.400 275.857,256.072 275.452,255.670 275.238 C 255.269 275.023,254.719 274.107,254.448 273.202 C 254.177 272.298,253.695 271.458,253.378 271.336 C 253.060 271.214,252.800 270.780,252.800 270.371 C 252.800 269.962,252.260 269.013,251.600 268.261 C 250.940 267.509,250.400 266.558,250.400 266.147 C 250.399 265.736,249.949 264.877,249.400 264.238 C 248.850 263.599,248.400 262.844,248.400 262.560 C 248.400 262.277,248.077 261.810,247.683 261.523 C 247.288 261.235,246.738 260.225,246.460 259.279 C 246.183 258.332,245.706 257.462,245.402 257.345 C 245.098 257.229,244.739 256.631,244.604 256.017 C 244.469 255.403,243.918 254.486,243.379 253.981 C 242.841 253.475,242.400 252.767,242.400 252.408 C 242.400 252.049,241.950 251.145,241.400 250.400 C 240.850 249.655,240.400 248.820,240.400 248.545 C 240.400 248.270,240.041 247.794,239.603 247.487 C 239.164 247.180,238.691 246.353,238.550 245.650 C 238.409 244.947,237.987 244.153,237.612 243.886 C 237.236 243.619,236.809 242.913,236.661 242.317 C 236.514 241.721,235.945 240.750,235.397 240.159 C 234.848 239.567,234.400 238.784,234.400 238.419 C 234.400 238.054,233.950 237.145,233.400 236.400 C 232.850 235.655,232.400 234.820,232.400 234.545 C 232.400 234.270,232.068 233.810,231.661 233.523 C 231.255 233.235,230.706 232.339,230.441 231.532 C 230.176 230.725,229.698 229.848,229.380 229.583 C 229.061 229.318,228.800 228.868,228.800 228.582 C 228.800 228.296,228.371 227.551,227.846 226.927 C 227.321 226.304,226.594 225.165,226.230 224.397 C 224.755 221.281,224.118 220.346,223.111 219.824 C 222.089 219.293,225.733 227.311,226.834 228.014 C 227.018 228.132,227.462 228.852,227.819 229.614 C 228.846 231.802,229.875 233.598,230.521 234.328 C 231.112 234.995,232.057 236.716,233.527 239.806 C 233.947 240.689,234.585 241.656,234.945 241.955 C 235.305 242.253,235.600 242.672,235.600 242.884 C 235.600 243.096,236.275 244.427,237.100 245.842 C 237.925 247.256,239.088 249.265,239.685 250.307 C 241.768 253.941,242.859 255.811,243.820 257.400 C 244.353 258.280,245.136 259.745,245.561 260.656 C 245.986 261.566,246.503 262.376,246.711 262.456 C 246.918 262.535,247.473 263.410,247.945 264.400 C 248.416 265.390,249.242 266.920,249.780 267.800 C 251.210 270.141,252.658 272.773,253.544 274.642 C 253.972 275.545,254.610 276.395,254.961 276.530 C 255.312 276.665,255.600 277.106,255.600 277.510 C 255.600 277.914,256.050 278.855,256.600 279.600 C 257.150 280.345,257.600 281.177,257.600 281.447 C 257.600 281.717,258.011 282.447,258.514 283.069 C 259.017 283.691,260.025 285.370,260.753 286.800 C 261.482 288.230,262.400 289.760,262.793 290.200 C 263.186 290.640,263.644 291.450,263.809 292.000 C 263.975 292.550,264.445 293.429,264.855 293.954 C 265.265 294.479,265.600 295.132,265.600 295.405 C 265.600 295.678,265.890 296.143,266.245 296.437 C 266.867 296.953,267.902 298.776,269.550 302.256 C 269.981 303.167,270.524 304.029,270.756 304.173 C 270.987 304.316,271.543 305.191,271.990 306.117 C 272.437 307.042,273.242 308.520,273.780 309.400 C 274.805 311.079,275.959 313.111,277.552 316.046 C 278.076 317.011,278.737 317.936,279.021 318.102 C 279.305 318.269,279.655 318.942,279.800 319.598 C 279.944 320.254,280.243 320.903,280.464 321.039 C 280.685 321.176,281.205 322.078,281.619 323.044 C 282.033 324.010,282.534 324.800,282.731 324.800 C 282.929 324.800,283.401 325.610,283.779 326.600 C 284.157 327.590,284.612 328.400,284.790 328.400 C 284.968 328.400,285.219 328.821,285.348 329.335 C 285.477 329.849,285.944 330.729,286.385 331.290 C 286.827 331.852,287.839 333.546,288.635 335.055 C 289.431 336.565,290.342 338.093,290.658 338.451 C 291.650 339.570,290.880 339.600,261.434 339.600 L 232.934 339.600 231.724 338.094 C 231.058 337.266,230.377 336.141,230.210 335.594 C 230.042 335.047,229.678 334.330,229.401 334.000 C 229.123 333.670,228.580 332.770,228.192 332.000 C 227.805 331.230,227.355 330.510,227.191 330.400 C 226.886 330.194,225.825 328.239,224.458 325.358 C 224.029 324.455,223.416 323.615,223.096 323.492 C 222.776 323.369,222.411 322.756,222.286 322.129 C 222.160 321.502,221.685 320.559,221.229 320.033 C 220.773 319.508,220.400 318.859,220.400 318.593 C 220.400 318.326,220.042 317.653,219.605 317.097 C 219.167 316.541,218.063 314.671,217.152 312.943 C 216.240 311.214,215.268 309.667,214.992 309.505 C 214.715 309.343,214.368 308.727,214.220 308.137 C 214.072 307.546,213.602 306.620,213.175 306.078 C 212.749 305.536,212.400 304.908,212.400 304.684 C 212.400 304.459,211.940 303.673,211.379 302.937 C 210.817 302.200,210.170 301.058,209.940 300.399 C 209.710 299.740,209.379 299.200,209.204 299.200 C 209.030 299.200,208.777 298.764,208.643 298.231 C 208.510 297.698,207.975 296.753,207.455 296.131 C 206.935 295.509,206.370 294.553,206.198 294.008 C 206.027 293.462,205.577 292.562,205.197 292.008 C 203.436 289.438,202.000 287.024,201.998 286.631 C 201.995 285.975,199.637 283.600,198.988 283.600 C 198.458 283.600,197.757 284.662,195.853 288.352 C 195.442 289.148,194.971 289.890,194.807 290.000 C 194.643 290.110,193.765 291.640,192.855 293.400 C 191.945 295.160,190.975 296.859,190.700 297.175 C 190.139 297.820,188.817 300.241,187.793 302.500 C 187.419 303.325,186.946 304.000,186.742 304.000 C 186.538 304.000,186.015 304.765,185.580 305.700 C 184.811 307.349,184.262 308.338,181.100 313.758 C 180.275 315.173,179.600 316.504,179.600 316.716 C 179.600 316.928,179.305 317.347,178.945 317.645 C 178.585 317.944,177.948 318.911,177.528 319.794 C 175.887 323.251,174.862 325.050,174.245 325.563 C 173.890 325.857,173.600 326.322,173.600 326.595 C 173.600 326.868,173.265 327.521,172.855 328.046 C 172.445 328.571,171.975 329.450,171.809 330.000 C 171.644 330.550,171.187 331.360,170.794 331.800 C 170.401 332.240,169.424 333.860,168.623 335.400 C 166.199 340.059,169.661 339.600,136.979 339.600 C 121.287 339.600,108.355 339.450,108.241 339.267 C 108.128 339.084,108.372 338.319,108.783 337.567 C 109.194 336.815,109.823 335.577,110.181 334.815 C 110.538 334.053,111.075 333.153,111.374 332.815 C 111.673 332.477,112.581 330.940,113.391 329.400 C 114.202 327.860,115.102 326.330,115.391 326.000 C 115.898 325.422,116.664 323.999,118.300 320.600 C 118.723 319.720,119.369 318.753,119.735 318.451 C 120.101 318.149,120.400 317.678,120.400 317.405 C 120.400 317.132,120.735 316.479,121.145 315.954 C 121.555 315.429,122.025 314.550,122.191 314.000 C 122.356 313.450,122.814 312.640,123.207 312.200 C 123.600 311.760,124.518 310.230,125.247 308.800 C 125.975 307.370,126.983 305.691,127.486 305.069 C 127.989 304.447,128.400 303.710,128.400 303.431 C 128.400 303.151,128.773 302.492,129.229 301.967 C 129.685 301.441,130.159 300.507,130.282 299.891 C 130.405 299.275,130.822 298.550,131.208 298.279 C 131.595 298.008,132.208 297.160,132.571 296.393 C 133.815 293.768,134.894 291.800,135.200 291.600 C 135.496 291.406,136.150 290.233,137.783 286.967 C 138.214 286.105,138.866 285.040,139.232 284.600 C 139.939 283.749,140.680 282.425,141.950 279.744 C 142.381 278.833,142.944 277.958,143.200 277.800 C 143.456 277.642,144.020 276.767,144.452 275.856 C 145.864 272.879,146.874 271.011,147.400 270.400 C 147.685 270.070,148.569 268.565,149.365 267.055 C 150.161 265.546,151.173 263.852,151.615 263.290 C 152.056 262.729,152.523 261.849,152.652 261.335 C 152.781 260.821,153.032 260.400,153.210 260.400 C 153.388 260.400,153.843 259.590,154.221 258.600 C 154.599 257.610,155.071 256.800,155.269 256.800 C 155.466 256.800,155.967 256.010,156.381 255.044 C 156.795 254.078,157.315 253.176,157.536 253.039 C 157.757 252.903,158.056 252.254,158.200 251.598 C 158.345 250.942,158.694 250.269,158.977 250.102 C 159.260 249.936,159.808 249.170,160.194 248.400 C 160.580 247.630,161.123 246.730,161.399 246.400 C 161.675 246.070,162.140 245.125,162.431 244.300 C 162.722 243.475,163.103 242.800,163.277 242.800 C 163.586 242.800,164.322 241.533,165.997 238.117 C 166.451 237.191,167.013 236.316,167.244 236.173 C 167.476 236.029,168.019 235.167,168.450 234.256 C 169.568 231.896,171.030 229.283,172.400 227.200 C 173.051 226.210,173.767 224.950,173.992 224.400 C 174.413 223.366,174.505 223.212,175.733 221.476 C 177.014 219.665,176.400 218.942,174.900 220.493 " stroke="none" fill="#70767e" fill-rule="evenodd"></path></g></svg>