<svg id="svg" version="1.1" xmlns="http://www.w3.org/2000/svg" xmlns:xlink="http://www.w3.org/1999/xlink" width="400" height="400" viewBox="0, 0, 400,400"><g id="svgg"><path id="path0" d="M77.800 97.975 C 72.942 99.327,70.183 100.789,66.989 103.706 C 64.699 105.798,61.200 110.566,61.200 111.596 C 61.200 111.824,61.031 112.323,60.823 112.705 C 55.734 122.093,61.285 136.877,72.214 143.043 C 72.977 143.474,73.007 144.158,73.219 166.043 C 73.469 191.754,73.303 190.306,76.786 197.255 C 80.501 204.665,86.911 210.290,95.000 213.237 C 99.791 214.982,99.516 214.960,117.599 215.119 C 130.199 215.231,135.079 215.401,135.293 215.737 C 135.455 215.992,135.591 226.735,135.594 239.610 C 135.600 261.533,135.834 267.714,136.783 271.000 C 142.503 290.810,156.366 302.812,176.245 305.168 C 181.347 305.773,298.440 305.768,303.179 305.163 C 308.333 304.506,312.688 303.367,316.400 301.708 C 319.113 300.495,322.419 298.784,322.800 298.396 C 322.910 298.284,323.810 297.668,324.800 297.028 C 333.219 291.579,341.271 278.774,342.925 268.200 C 343.558 264.157,343.575 137.995,342.943 134.400 C 342.489 131.819,340.381 125.117,339.420 123.200 C 337.868 120.107,337.256 119.099,335.082 116.064 C 332.526 112.493,329.685 109.457,326.793 107.203 C 325.807 106.435,324.940 105.670,324.867 105.503 C 324.793 105.336,324.478 105.200,324.167 105.200 C 323.855 105.200,323.600 105.063,323.600 104.895 C 323.600 104.555,323.495 104.495,318.671 102.100 C 316.788 101.165,315.129 100.400,314.984 100.400 C 314.839 100.400,314.154 100.146,313.460 99.836 C 311.999 99.183,311.274 99.011,305.600 97.971 C 301.549 97.229,299.160 97.206,238.400 97.332 C 174.904 97.464,173.028 97.505,168.810 98.870 C 163.069 100.727,158.728 102.631,156.527 104.259 C 155.826 104.776,155.076 105.200,154.860 105.200 C 154.644 105.200,154.407 105.335,154.333 105.500 C 154.260 105.665,152.906 106.846,151.325 108.125 C 149.744 109.404,147.404 111.744,146.125 113.325 C 144.846 114.906,143.665 116.260,143.500 116.333 C 143.335 116.407,143.200 116.612,143.200 116.789 C 143.200 116.966,142.477 118.346,141.593 119.856 C 139.903 122.742,137.718 127.966,137.141 130.500 C 136.954 131.325,136.593 132.765,136.340 133.700 C 136.023 134.868,135.805 144.597,135.640 164.800 L 135.400 194.200 118.972 194.200 C 99.191 194.200,98.237 193.933,94.824 187.445 L 93.600 185.119 93.600 164.216 L 93.600 143.314 95.969 141.852 C 101.489 138.445,106.800 130.793,106.800 126.249 C 106.800 125.559,106.987 124.366,107.216 123.597 C 108.961 117.743,103.878 106.571,97.385 101.993 C 95.583 100.722,94.711 100.251,91.600 98.867 C 87.928 97.234,81.870 96.842,77.800 97.975 M304.814 118.426 C 308.845 119.701,312.934 122.153,315.838 125.037 C 318.586 127.765,319.135 128.521,320.601 131.600 C 320.967 132.370,321.417 133.288,321.600 133.641 C 323.225 136.770,323.216 136.364,323.092 202.000 C 322.971 265.647,322.928 267.525,321.558 268.980 C 321.361 269.189,321.200 269.607,321.200 269.910 C 321.200 272.920,311.977 282.126,308.018 283.068 C 307.458 283.201,306.820 283.449,306.600 283.618 C 305.193 284.701,299.576 284.800,239.581 284.800 C 179.054 284.800,174.975 284.724,172.400 283.545 C 171.850 283.294,170.770 282.800,170.000 282.449 C 167.809 281.450,163.844 278.588,162.563 277.082 C 160.340 274.468,159.990 273.975,159.020 272.093 C 157.642 269.420,156.915 267.619,156.561 266.000 C 156.138 264.069,156.127 138.586,156.549 136.600 C 157.546 131.908,161.832 125.606,166.188 122.427 C 167.964 121.130,169.004 120.573,172.200 119.203 C 173.057 118.836,174.334 118.533,177.200 118.019 C 180.711 117.389,302.766 117.778,304.814 118.426 M236.600 153.236 C 234.400 153.395,231.340 153.799,229.800 154.134 C 228.260 154.469,226.460 154.863,225.800 155.008 C 225.140 155.154,223.970 155.539,223.200 155.864 C 222.430 156.188,221.440 156.590,221.000 156.756 C 209.221 161.203,198.449 172.140,193.971 184.200 C 191.257 191.508,190.420 203.802,192.118 211.400 C 192.462 212.940,192.863 214.740,193.008 215.400 C 193.154 216.060,193.527 217.167,193.836 217.860 C 194.146 218.554,194.400 219.223,194.400 219.349 C 194.400 219.474,194.875 220.617,195.455 221.888 C 199.755 231.311,210.235 241.428,219.800 245.391 C 220.680 245.756,221.760 246.207,222.200 246.394 C 222.640 246.580,223.360 246.826,223.800 246.940 C 224.240 247.053,225.590 247.449,226.800 247.819 C 230.429 248.930,233.843 249.295,241.000 249.338 C 248.817 249.385,257.817 248.299,258.980 247.169 C 259.189 246.966,259.776 246.800,260.285 246.800 C 260.794 246.800,261.523 246.629,261.905 246.419 C 262.287 246.210,263.320 245.744,264.200 245.384 C 265.670 244.782,266.935 244.158,268.977 243.029 C 272.657 240.995,278.031 236.542,281.573 232.592 C 283.105 230.883,286.800 224.672,286.800 223.805 C 286.800 223.498,286.980 223.136,287.200 223.000 C 290.268 221.104,281.158 213.860,276.552 214.533 C 270.125 215.471,269.795 215.624,268.614 218.207 C 264.513 227.173,253.552 232.689,240.600 232.304 C 237.300 232.206,234.150 231.940,233.600 231.714 C 233.050 231.487,231.610 230.974,230.400 230.575 C 223.857 228.414,216.641 221.678,213.483 214.784 C 207.155 200.964,211.249 184.192,223.000 175.792 C 225.838 173.763,229.896 171.600,230.865 171.600 C 231.243 171.600,231.652 171.439,231.774 171.242 C 232.609 169.890,244.394 169.375,249.400 170.472 C 258.139 172.386,269.167 181.055,269.196 186.034 C 269.208 188.030,279.956 189.743,282.238 188.112 C 286.215 185.271,288.174 182.088,287.329 179.841 C 286.080 176.518,284.142 172.853,283.183 172.000 C 283.059 171.890,282.427 171.085,281.779 170.211 C 280.366 168.306,278.567 166.507,276.057 164.491 C 275.036 163.671,274.110 162.903,274.000 162.785 C 272.577 161.251,263.838 156.698,260.300 155.646 C 256.878 154.628,256.126 154.436,254.600 154.190 C 253.720 154.049,252.460 153.784,251.800 153.602 C 250.036 153.117,241.206 152.904,236.600 153.236 " stroke="none" fill="#545cec" fill-rule="evenodd"></path><path id="path1" d="M0.000 200.000 L 0.000 400.000 200.000 400.000 L 400.000 400.000 400.000 200.000 L 400.000 0.000 200.000 0.000 L 0.000 0.000 0.000 200.000 M89.400 97.200 C 89.536 97.420,90.041 97.600,90.523 97.600 C 93.815 97.600,104.400 105.792,104.400 108.340 C 104.400 108.556,104.535 108.793,104.700 108.867 C 104.865 108.940,105.335 109.720,105.744 110.600 C 106.154 111.480,106.649 112.513,106.844 112.895 C 107.040 113.277,107.203 113.907,107.206 114.295 C 107.209 114.683,107.471 115.720,107.788 116.600 C 108.109 117.490,108.365 119.621,108.365 121.400 C 108.365 123.179,108.109 125.310,107.788 126.200 C 107.471 127.080,107.209 128.295,107.206 128.900 C 107.203 129.505,107.020 130.000,106.800 130.000 C 106.580 130.000,106.400 130.364,106.400 130.810 C 106.400 133.221,100.276 140.500,96.432 142.659 L 94.401 143.800 94.400 164.276 C 94.400 175.538,94.557 184.850,94.748 184.968 C 94.940 185.086,95.203 185.716,95.333 186.366 C 95.568 187.540,99.062 191.600,99.837 191.600 C 100.058 191.600,100.450 191.810,100.707 192.067 C 102.066 193.426,104.062 193.588,119.495 193.594 L 134.790 193.600 134.933 164.500 C 135.071 136.599,135.254 132.067,136.320 130.126 C 136.584 129.646,136.800 128.801,136.800 128.250 C 136.800 127.698,136.980 127.136,137.200 127.000 C 137.420 126.864,137.600 126.478,137.600 126.143 C 137.600 125.616,139.194 122.229,141.338 118.200 C 141.690 117.540,142.432 116.477,142.989 115.838 C 143.545 115.199,144.000 114.534,144.000 114.361 C 144.000 113.354,154.736 103.600,155.845 103.600 C 155.999 103.600,156.714 103.150,157.436 102.600 C 158.157 102.050,159.029 101.600,159.373 101.600 C 159.718 101.600,160.000 101.420,160.000 101.200 C 160.000 100.980,160.255 100.800,160.568 100.800 C 160.880 100.800,161.645 100.547,162.268 100.237 C 164.732 99.012,167.990 97.917,169.800 97.705 C 170.680 97.602,171.571 97.356,171.780 97.159 C 172.326 96.643,307.081 96.684,307.400 97.200 C 307.536 97.420,308.132 97.599,308.724 97.598 C 310.118 97.595,314.366 98.961,316.932 100.237 C 317.555 100.547,318.320 100.800,318.632 100.800 C 318.945 100.800,319.200 100.941,319.200 101.112 C 319.200 101.284,319.695 101.638,320.300 101.899 C 322.324 102.771,325.688 104.950,327.526 106.579 C 331.612 110.201,336.400 115.468,336.400 116.341 C 336.400 116.594,336.539 116.800,336.709 116.800 C 336.879 116.800,337.372 117.475,337.805 118.300 C 338.238 119.125,338.684 119.890,338.796 120.000 C 339.253 120.449,340.400 122.904,340.400 123.432 C 340.400 123.745,340.580 124.000,340.800 124.000 C 341.020 124.000,341.200 124.416,341.200 124.924 C 341.200 125.431,341.464 126.196,341.787 126.624 C 342.110 127.051,342.380 127.884,342.387 128.476 C 342.394 129.068,342.580 129.664,342.800 129.800 C 343.020 129.936,343.200 130.554,343.200 131.173 C 343.200 131.793,343.470 133.065,343.800 134.000 C 344.707 136.570,344.704 266.807,343.798 268.546 C 343.469 269.176,343.200 270.380,343.200 271.222 C 343.200 272.064,343.020 272.864,342.800 273.000 C 342.580 273.136,342.400 273.590,342.400 274.010 C 342.400 275.290,337.793 285.104,336.772 286.000 C 336.647 286.110,335.755 287.280,334.791 288.600 C 331.664 292.881,322.865 300.400,320.982 300.400 C 320.698 300.400,320.407 300.535,320.333 300.700 C 320.206 300.987,318.795 301.701,316.200 302.793 C 315.540 303.070,314.522 303.546,313.938 303.849 C 313.354 304.152,312.420 304.400,311.862 304.400 C 311.304 304.400,310.736 304.580,310.600 304.800 C 310.464 305.020,309.632 305.200,308.752 305.200 C 307.871 305.200,306.306 305.474,305.275 305.809 C 302.844 306.600,174.134 306.535,173.161 305.743 C 172.853 305.492,171.790 305.188,170.800 305.069 C 167.833 304.711,166.244 304.321,165.411 303.745 C 164.977 303.445,164.212 303.200,163.711 303.200 C 163.210 303.200,162.800 303.020,162.800 302.800 C 162.800 302.580,162.575 302.399,162.300 302.398 C 159.125 302.389,143.600 290.134,143.600 287.637 C 143.600 287.433,143.459 287.207,143.287 287.133 C 142.760 286.909,139.600 281.660,139.600 281.010 C 139.600 280.674,139.465 280.399,139.300 280.399 C 139.135 280.398,138.672 279.543,138.271 278.499 C 137.871 277.454,137.376 276.287,137.171 275.905 C 136.967 275.523,136.794 274.803,136.786 274.305 C 136.778 273.807,136.514 272.950,136.200 272.400 C 135.886 271.850,135.622 270.646,135.614 269.724 C 135.606 268.802,135.420 267.936,135.200 267.800 C 134.940 267.639,134.800 258.603,134.800 241.997 L 134.800 216.441 118.220 216.321 C 105.622 216.229,101.519 216.080,101.140 215.700 C 100.865 215.425,100.014 215.200,99.248 215.200 C 97.742 215.200,95.626 214.622,93.938 213.749 C 93.354 213.447,92.589 213.200,92.238 213.200 C 91.887 213.200,91.600 213.020,91.600 212.800 C 91.600 212.580,91.309 212.400,90.954 212.400 C 87.837 212.400,75.600 200.163,75.600 197.046 C 75.600 196.691,75.420 196.400,75.200 196.400 C 74.980 196.400,74.800 196.074,74.800 195.676 C 74.800 195.279,74.536 194.604,74.213 194.176 C 73.890 193.749,73.620 192.941,73.613 192.380 C 73.606 191.819,73.437 191.189,73.239 190.980 C 72.496 190.199,72.306 186.058,72.056 165.243 C 71.810 144.741,71.769 143.869,71.031 143.443 C 70.609 143.200,69.889 142.701,69.431 142.335 C 68.974 141.969,67.791 141.061,66.803 140.317 C 63.951 138.170,59.600 131.665,59.600 129.548 C 59.600 129.225,59.437 128.789,59.237 128.580 C 58.899 128.227,58.766 127.379,58.151 121.659 C 58.009 120.334,58.089 119.351,58.361 119.079 C 58.602 118.838,58.800 117.697,58.800 116.544 C 58.800 115.391,58.980 114.336,59.200 114.200 C 59.420 114.064,59.600 113.618,59.600 113.209 C 59.600 112.539,60.686 110.103,61.208 109.600 C 61.323 109.490,61.621 108.950,61.870 108.400 C 63.094 105.707,69.576 99.600,71.212 99.600 C 71.425 99.600,71.600 99.420,71.600 99.200 C 71.600 98.980,71.887 98.800,72.238 98.800 C 72.589 98.800,73.354 98.552,73.938 98.249 C 74.522 97.946,75.540 97.515,76.200 97.292 C 77.791 96.753,89.075 96.674,89.400 97.200 M179.053 118.681 C 178.898 118.835,177.653 119.080,176.286 119.225 C 174.105 119.455,171.046 120.496,169.200 121.635 C 168.870 121.839,168.338 122.127,168.017 122.277 C 166.778 122.856,163.095 126.273,161.400 128.419 C 160.602 129.429,159.019 132.549,157.959 135.200 C 157.082 137.396,156.925 264.568,157.798 266.656 C 158.129 267.449,158.400 268.436,158.400 268.849 C 158.400 269.262,158.580 269.600,158.800 269.600 C 159.020 269.600,159.200 269.949,159.200 270.376 C 159.200 270.803,159.375 271.261,159.589 271.393 C 159.803 271.526,160.254 272.211,160.591 272.917 C 161.287 274.374,164.801 278.194,166.600 279.450 C 168.998 281.123,172.380 282.800,173.355 282.800 C 173.904 282.800,174.464 282.980,174.600 283.200 C 174.763 283.464,196.773 283.600,239.329 283.600 C 310.772 283.600,304.381 283.822,309.852 281.154 C 311.977 280.118,318.800 273.598,318.800 272.603 C 318.800 272.271,318.980 272.000,319.200 272.000 C 319.420 272.000,319.600 271.662,319.600 271.249 C 319.600 270.836,319.870 270.274,320.200 270.000 C 320.530 269.726,320.800 269.110,320.800 268.631 C 320.800 268.152,321.025 267.535,321.300 267.260 C 322.034 266.526,322.034 136.274,321.300 135.540 C 321.025 135.265,320.800 134.743,320.800 134.380 C 320.800 130.988,313.722 123.241,308.600 121.025 C 307.720 120.645,306.409 120.078,305.686 119.767 C 304.964 119.455,303.490 119.200,302.410 119.200 C 301.330 119.200,300.336 119.020,300.200 118.800 C 299.915 118.339,179.512 118.221,179.053 118.681 M248.716 152.444 C 249.231 152.640,250.710 152.800,252.002 152.800 C 253.295 152.800,254.464 152.980,254.600 153.200 C 254.736 153.420,255.512 153.606,256.324 153.614 C 257.136 153.622,258.250 153.886,258.800 154.200 C 259.350 154.514,260.295 154.778,260.900 154.786 C 261.505 154.794,262.000 154.980,262.000 155.200 C 262.000 155.420,262.318 155.600,262.708 155.600 C 263.097 155.600,264.852 156.339,266.608 157.242 C 271.446 159.731,271.748 159.906,272.624 160.721 C 273.071 161.138,273.632 161.551,273.871 161.639 C 275.860 162.374,284.400 171.054,284.400 172.341 C 284.400 172.594,284.551 172.800,284.736 172.800 C 284.920 172.800,285.415 173.518,285.836 174.395 C 286.256 175.273,286.735 175.993,286.900 175.995 C 287.065 175.998,287.200 176.320,287.200 176.711 C 287.200 177.102,287.473 177.812,287.808 178.290 C 290.793 182.552,283.062 191.421,277.600 189.999 C 276.610 189.742,275.124 189.437,274.297 189.323 C 273.471 189.209,272.695 188.955,272.574 188.758 C 272.452 188.561,271.868 188.394,271.276 188.387 C 269.891 188.371,269.186 187.777,268.205 185.800 C 266.824 183.018,264.116 179.383,262.530 178.183 C 261.688 177.546,260.552 176.615,260.004 176.113 C 259.456 175.611,258.781 175.200,258.504 175.200 C 258.227 175.200,258.000 175.020,258.000 174.800 C 258.000 174.580,257.662 174.400,257.249 174.400 C 256.836 174.400,256.274 174.130,256.000 173.800 C 255.726 173.470,255.252 173.200,254.946 173.200 C 254.640 173.200,254.077 173.044,253.695 172.854 C 252.057 172.037,250.030 171.469,247.600 171.146 C 241.797 170.375,240.340 170.300,239.890 170.750 C 239.643 170.997,238.441 171.199,237.220 171.198 C 235.207 171.196,232.106 171.936,230.305 172.848 C 229.923 173.042,229.360 173.200,229.054 173.200 C 228.748 173.200,228.274 173.470,228.000 173.800 C 227.726 174.130,227.164 174.400,226.751 174.400 C 226.338 174.400,226.000 174.580,226.000 174.800 C 226.000 175.020,225.775 175.203,225.500 175.206 C 225.045 175.212,224.023 176.003,221.200 178.536 C 219.411 180.140,216.400 183.532,216.400 183.943 C 216.400 184.163,216.175 184.588,215.900 184.887 C 215.139 185.715,214.400 187.124,214.400 187.746 C 214.400 188.052,214.130 188.526,213.800 188.800 C 213.470 189.074,213.200 189.715,213.200 190.225 C 213.200 190.735,213.020 191.264,212.800 191.400 C 212.580 191.536,212.400 192.244,212.400 192.973 C 212.400 193.703,212.130 195.065,211.800 196.000 C 211.453 196.985,211.200 199.090,211.200 201.000 C 211.200 202.910,211.453 205.015,211.800 206.000 C 212.130 206.935,212.400 208.297,212.400 209.027 C 212.400 209.756,212.580 210.464,212.800 210.600 C 213.020 210.736,213.200 211.137,213.200 211.492 C 213.200 212.094,215.034 216.038,216.118 217.769 C 217.769 220.403,223.740 226.373,225.731 227.380 C 226.429 227.733,227.270 228.176,227.600 228.365 C 227.930 228.553,228.650 228.883,229.200 229.098 C 229.750 229.313,230.881 229.784,231.714 230.145 C 232.546 230.505,233.815 230.800,234.534 230.800 C 235.252 230.800,236.030 230.990,236.262 231.222 C 237.174 232.134,250.644 231.228,252.189 230.150 C 252.623 229.848,253.377 229.600,253.865 229.600 C 254.353 229.600,254.864 229.420,255.000 229.200 C 255.136 228.980,255.597 228.800,256.024 228.800 C 256.451 228.800,256.800 228.623,256.800 228.408 C 256.800 228.192,257.250 227.902,257.800 227.764 C 258.350 227.626,258.800 227.366,258.800 227.186 C 258.800 227.006,259.071 226.800,259.403 226.729 C 260.931 226.401,266.800 220.450,266.800 219.228 C 266.800 219.029,266.935 218.807,267.100 218.733 C 267.265 218.660,267.784 217.885,268.253 217.010 C 268.722 216.136,269.352 215.301,269.653 215.154 C 272.556 213.736,279.771 213.059,280.871 214.100 C 281.162 214.375,281.850 214.832,282.400 215.116 C 282.950 215.399,283.998 216.155,284.730 216.794 C 285.461 217.434,286.585 218.372,287.226 218.879 C 288.565 219.936,288.863 222.754,287.787 224.176 C 287.464 224.604,287.200 225.264,287.200 225.643 C 287.200 226.023,287.065 226.393,286.900 226.467 C 286.735 226.540,286.261 227.267,285.847 228.081 C 284.439 230.852,280.105 235.803,276.547 238.706 C 274.596 240.298,272.783 241.780,272.517 242.000 C 272.251 242.220,271.846 242.400,271.617 242.400 C 271.388 242.400,271.200 242.537,271.200 242.705 C 271.200 242.873,270.850 243.188,270.423 243.405 C 268.015 244.628,264.091 246.511,263.400 246.775 C 260.790 247.771,259.660 248.121,258.496 248.294 C 257.779 248.401,257.094 248.649,256.973 248.844 C 256.852 249.040,256.142 249.200,255.396 249.200 C 254.650 249.200,253.002 249.470,251.735 249.800 C 250.048 250.240,247.223 250.400,241.166 250.400 C 234.841 250.400,232.501 250.259,231.200 249.800 C 230.265 249.470,228.903 249.200,228.173 249.200 C 227.444 249.200,226.736 249.020,226.600 248.800 C 226.464 248.580,225.868 248.394,225.276 248.387 C 224.684 248.380,223.851 248.110,223.424 247.787 C 222.996 247.464,222.319 247.200,221.918 247.200 C 221.517 247.200,220.877 247.038,220.495 246.841 C 220.113 246.643,218.900 246.038,217.800 245.496 C 214.806 244.021,213.100 243.058,212.487 242.497 C 212.185 242.221,211.576 241.801,211.135 241.565 C 208.250 240.021,199.979 231.750,198.435 228.865 C 198.199 228.424,197.779 227.823,197.503 227.531 C 197.226 227.239,196.218 225.380,195.263 223.400 C 194.308 221.420,193.363 219.487,193.163 219.105 C 192.963 218.723,192.794 218.003,192.787 217.505 C 192.780 217.007,192.510 216.251,192.187 215.824 C 191.864 215.396,191.600 214.397,191.600 213.604 C 191.600 212.810,191.437 211.989,191.237 211.780 C 190.159 210.653,190.117 192.975,191.185 190.600 C 191.383 190.160,191.627 189.260,191.727 188.600 C 191.913 187.369,192.638 185.139,193.254 183.905 C 193.444 183.523,193.600 182.870,193.600 182.454 C 193.600 182.038,193.870 181.474,194.200 181.200 C 194.530 180.926,194.813 180.409,194.829 180.051 C 194.845 179.693,195.207 178.860,195.634 178.200 C 196.060 177.540,196.518 176.685,196.651 176.300 C 196.784 175.915,197.052 175.600,197.247 175.600 C 197.441 175.600,197.600 175.412,197.600 175.183 C 197.600 173.627,208.889 161.600,210.350 161.600 C 210.561 161.600,210.793 161.459,210.867 161.287 C 211.091 160.760,216.340 157.600,216.990 157.600 C 217.326 157.600,217.600 157.420,217.600 157.200 C 217.600 156.980,217.887 156.800,218.238 156.800 C 218.589 156.800,219.444 156.504,220.138 156.143 C 222.514 154.905,222.791 154.800,223.695 154.786 C 224.193 154.778,225.050 154.514,225.600 154.200 C 226.150 153.886,227.149 153.622,227.820 153.614 C 228.491 153.606,229.211 153.438,229.420 153.241 C 229.629 153.043,231.060 152.774,232.600 152.643 C 234.140 152.513,236.480 152.242,237.800 152.042 C 240.460 151.638,247.256 151.889,248.716 152.444 " stroke="none" fill="#fcfcfc" fill-rule="evenodd"></path><path id="path2" d="M83.600 97.173 C 86.959 97.526,90.099 98.189,91.600 98.863 C 94.813 100.306,95.585 100.724,97.385 101.993 C 103.878 106.571,108.961 117.743,107.216 123.597 C 106.987 124.366,106.819 125.626,106.843 126.397 C 106.873 127.376,107.058 126.894,107.455 124.800 C 110.047 111.119,98.612 97.561,84.000 96.991 L 80.600 96.858 83.600 97.173 M208.300 97.100 C 225.515 97.158,253.685 97.158,270.900 97.100 C 288.115 97.042,274.030 96.995,239.600 96.995 C 205.170 96.995,191.085 97.042,208.300 97.100 M75.471 98.192 C 68.036 100.768,61.551 107.533,59.612 114.739 C 59.355 115.695,59.235 116.569,59.346 116.679 C 59.457 116.790,59.743 116.098,59.983 115.140 C 60.222 114.183,60.594 113.087,60.809 112.705 C 61.024 112.323,61.200 111.824,61.200 111.596 C 61.200 109.341,67.891 102.208,71.857 100.234 C 75.353 98.495,75.276 98.524,77.724 98.016 C 78.976 97.756,80.000 97.466,80.000 97.372 C 80.000 96.956,77.987 97.321,75.471 98.192 M172.800 97.600 C 171.418 98.043,174.060 98.043,175.800 97.600 C 176.942 97.310,176.922 97.294,175.400 97.287 C 174.520 97.283,173.350 97.424,172.800 97.600 M303.800 97.623 C 304.680 97.805,305.850 97.946,306.400 97.937 L 307.400 97.920 306.400 97.600 C 305.850 97.424,304.680 97.283,303.800 97.286 L 302.200 97.292 303.800 97.623 M165.800 99.365 C 160.876 101.125,154.395 104.528,154.936 105.069 C 155.052 105.186,155.744 104.839,156.474 104.299 C 158.855 102.536,164.392 100.146,169.200 98.805 C 170.190 98.529,171.180 98.249,171.400 98.183 C 171.620 98.117,171.260 98.067,170.600 98.071 C 169.940 98.075,167.780 98.657,165.800 99.365 M308.800 98.468 C 311.487 99.210,312.792 99.300,311.000 98.620 C 310.120 98.285,308.950 98.028,308.400 98.047 C 307.570 98.076,307.638 98.148,308.800 98.468 M312.973 99.556 C 313.094 99.751,313.682 100.034,314.280 100.184 C 314.878 100.335,316.881 101.209,318.731 102.129 C 323.492 104.494,323.600 104.556,323.600 104.895 C 323.600 105.063,323.855 105.200,324.167 105.200 C 324.478 105.200,324.793 105.336,324.867 105.503 C 324.940 105.670,325.807 106.435,326.793 107.203 C 333.128 112.140,338.829 120.344,341.214 127.954 C 341.516 128.919,341.832 129.503,341.916 129.252 C 342.107 128.680,340.189 123.598,338.878 121.200 C 333.910 112.114,327.687 106.118,318.600 101.664 C 313.877 99.349,312.534 98.846,312.973 99.556 M152.788 106.286 C 150.007 108.377,142.990 115.923,143.423 116.356 C 143.520 116.454,143.652 116.458,143.716 116.367 C 146.062 112.981,150.981 108.062,154.367 105.716 C 154.458 105.652,154.453 105.520,154.354 105.421 C 154.256 105.323,153.551 105.712,152.788 106.286 M142.542 117.273 C 140.959 119.740,138.202 125.625,137.423 128.200 C 137.023 129.520,136.540 131.013,136.348 131.519 C 136.157 132.024,136.021 133.014,136.046 133.719 L 136.092 135.000 136.424 133.600 C 136.606 132.830,136.919 131.480,137.119 130.600 C 137.716 127.973,139.877 122.787,141.601 119.842 C 142.930 117.572,143.701 115.467,142.542 117.273 M58.950 121.400 C 58.951 123.820,59.016 124.758,59.096 123.485 C 59.176 122.212,59.175 120.232,59.094 119.085 C 59.014 117.938,58.949 118.980,58.950 121.400 M177.117 117.970 C 176.081 118.115,175.091 118.385,174.917 118.571 C 174.743 118.757,175.140 118.761,175.800 118.579 C 176.460 118.397,204.720 118.145,238.600 118.019 L 300.200 117.790 239.600 117.748 C 206.270 117.726,178.153 117.825,177.117 117.970 M303.080 118.644 C 304.664 118.956,306.779 119.562,307.780 119.991 C 308.781 120.420,309.600 120.689,309.600 120.588 C 309.600 119.898,303.552 117.982,301.554 118.038 C 300.625 118.064,301.105 118.255,303.080 118.644 M172.000 119.205 C 171.670 119.401,170.680 119.876,169.800 120.260 C 164.178 122.713,158.223 129.893,156.666 136.097 C 156.166 138.092,155.804 263.721,156.296 264.601 C 156.463 264.899,156.545 237.301,156.478 203.272 C 156.355 141.194,156.412 138.058,157.730 134.399 C 160.244 127.420,165.590 122.081,172.600 119.551 C 173.969 119.057,174.284 118.832,173.600 118.838 C 173.050 118.843,172.330 119.008,172.000 119.205 M311.407 121.853 C 315.227 124.379,319.167 128.990,320.758 132.800 C 322.868 137.849,322.800 135.571,322.800 201.475 C 322.800 264.709,322.804 264.522,321.338 268.675 C 321.163 269.171,321.214 269.274,321.499 269.000 C 322.934 267.623,322.970 266.096,323.092 202.000 C 323.216 136.364,323.225 136.770,321.600 133.641 C 321.417 133.288,320.967 132.370,320.601 131.600 C 320.234 130.830,319.669 129.705,319.346 129.101 C 318.489 127.500,314.074 123.081,312.108 121.855 C 309.909 120.484,309.334 120.482,311.407 121.853 M59.212 126.372 C 59.187 127.560,61.470 133.463,61.820 133.113 C 61.916 133.017,61.657 132.233,61.244 131.369 C 60.832 130.506,60.362 129.170,60.201 128.400 C 59.853 126.736,59.232 125.461,59.212 126.372 M106.001 129.400 C 104.354 134.379,100.660 138.948,95.900 141.891 L 93.600 143.314 93.600 164.216 L 93.600 185.119 94.824 187.445 C 96.138 189.943,97.900 191.731,100.544 193.249 L 102.200 194.200 118.706 194.317 C 131.916 194.410,135.249 194.330,135.396 193.917 C 135.648 193.210,135.850 135.216,135.600 135.466 C 135.490 135.576,135.310 148.746,135.200 164.733 L 135.000 193.800 119.260 193.905 L 103.521 194.009 101.161 192.951 C 98.423 191.722,95.920 189.212,94.781 186.555 C 94.040 184.828,94.000 183.675,94.000 164.198 L 94.000 143.661 96.704 141.864 C 101.480 138.689,107.450 130.533,106.678 128.238 C 106.597 127.997,106.293 128.520,106.001 129.400 M342.034 130.400 C 342.046 130.730,342.211 131.360,342.400 131.800 L 342.744 132.600 342.766 131.800 C 342.778 131.360,342.613 130.730,342.400 130.400 C 342.055 129.867,342.015 129.867,342.034 130.400 M343.096 134.800 C 343.458 137.493,343.443 264.441,343.080 267.800 L 342.820 270.200 343.385 267.600 C 344.237 263.683,344.226 138.559,343.374 135.000 L 342.799 132.600 343.096 134.800 M62.000 133.902 C 62.000 134.122,62.270 134.526,62.600 134.800 C 62.935 135.078,63.200 135.121,63.200 134.898 C 63.200 134.678,62.930 134.274,62.600 134.000 C 62.265 133.722,62.000 133.679,62.000 133.902 M63.628 136.300 C 64.799 137.859,68.727 141.384,70.700 142.646 L 72.800 143.990 72.831 165.895 C 72.856 183.583,72.969 188.108,73.422 189.400 C 73.754 190.349,73.874 190.511,73.718 189.800 C 73.574 189.140,73.353 178.450,73.228 166.043 C 73.007 144.163,72.976 143.473,72.214 143.043 C 69.326 141.414,64.000 136.806,64.000 135.936 C 64.000 135.751,63.798 135.600,63.551 135.600 C 63.248 135.600,63.273 135.828,63.628 136.300 M236.600 152.771 C 234.509 152.928,236.427 153.032,242.130 153.069 C 246.932 153.101,250.802 153.077,250.730 153.017 C 250.409 152.745,239.478 152.554,236.600 152.771 M229.000 153.828 C 227.680 154.129,226.060 154.559,225.400 154.783 L 224.200 155.192 225.400 155.010 C 228.055 154.607,232.944 153.590,233.132 153.401 C 233.480 153.054,231.495 153.259,229.000 153.828 M251.268 153.402 C 251.379 153.512,252.534 153.794,253.835 154.027 C 258.276 154.822,261.681 155.918,266.000 157.943 C 267.369 158.585,273.604 162.358,274.000 162.785 C 274.110 162.903,275.036 163.671,276.057 164.491 C 278.567 166.507,280.366 168.306,281.779 170.211 C 282.427 171.085,283.059 171.890,283.183 172.000 C 284.142 172.853,286.080 176.518,287.329 179.841 C 288.074 181.821,287.759 182.622,285.126 185.437 C 281.439 189.379,278.668 189.907,272.622 187.820 C 269.539 186.756,268.529 186.550,269.673 187.217 C 273.516 189.459,280.328 189.963,282.849 188.192 C 285.325 186.452,288.131 182.709,288.088 181.202 C 288.009 178.448,282.727 169.819,279.143 166.590 C 273.503 161.509,267.798 157.911,261.734 155.611 C 258.721 154.469,250.626 152.759,251.268 153.402 M222.400 155.681 C 221.850 155.915,220.450 156.533,219.289 157.054 C 218.128 157.574,217.089 158.000,216.979 158.000 C 215.668 158.000,207.243 164.440,203.556 168.261 C 198.849 173.138,192.184 184.317,193.311 185.445 C 193.430 185.563,193.653 185.242,193.808 184.730 C 196.845 174.678,207.103 163.279,217.600 158.291 C 220.792 156.774,222.663 156.000,223.137 156.000 C 223.366 156.000,223.664 155.820,223.800 155.600 C 224.106 155.104,223.696 155.128,222.400 155.681 M241.107 169.890 C 241.826 169.979,242.906 169.977,243.507 169.886 C 244.108 169.795,243.520 169.722,242.200 169.724 C 240.880 169.726,240.388 169.801,241.107 169.890 M235.200 170.409 C 234.789 170.680,235.357 170.724,237.000 170.547 C 238.320 170.405,239.475 170.224,239.567 170.144 C 239.968 169.796,235.739 170.052,235.200 170.409 M244.833 170.150 C 244.925 170.232,246.080 170.409,247.400 170.543 C 248.984 170.704,249.528 170.662,249.000 170.421 C 248.244 170.076,244.479 169.831,244.833 170.150 M231.800 171.200 C 231.664 171.420,231.243 171.600,230.865 171.600 C 229.102 171.600,221.708 176.283,219.337 178.903 C 214.217 184.558,210.706 192.039,210.867 196.951 C 210.927 198.763,210.950 198.815,211.071 197.400 C 212.113 185.217,221.916 173.866,233.800 171.080 C 234.319 170.959,234.151 170.876,233.324 170.846 C 232.622 170.821,231.936 170.980,231.800 171.200 M252.031 171.585 C 259.225 173.952,265.248 178.817,268.207 184.649 C 268.751 185.722,269.196 186.330,269.195 186.000 C 269.179 181.509,255.871 170.656,250.587 170.825 C 250.154 170.839,250.804 171.181,252.031 171.585 M192.481 187.488 C 192.216 188.371,192.013 189.432,192.028 189.846 C 192.043 190.261,192.323 189.730,192.650 188.666 C 192.977 187.602,193.180 186.541,193.103 186.308 C 193.025 186.075,192.745 186.606,192.481 187.488 M191.382 192.582 C 191.229 193.602,191.202 194.535,191.322 194.655 C 191.442 194.775,191.665 194.039,191.818 193.018 C 191.971 191.998,191.998 191.065,191.878 190.945 C 191.758 190.825,191.535 191.561,191.382 192.582 M74.032 191.674 C 73.862 195.295,80.778 205.137,86.232 209.035 C 90.059 211.770,98.331 215.402,99.065 214.669 C 99.183 214.550,98.498 214.253,97.540 214.010 C 95.230 213.422,94.782 213.237,90.745 211.214 C 84.274 207.970,80.030 203.726,76.786 197.255 C 75.168 194.025,74.757 193.106,74.261 191.600 C 74.102 191.119,74.057 191.133,74.032 191.674 M190.961 201.200 C 190.961 204.610,191.022 206.005,191.097 204.300 C 191.172 202.595,191.172 199.805,191.097 198.100 C 191.022 196.395,190.961 197.790,190.961 201.200 M210.514 201.000 C 210.517 202.100,210.595 202.503,210.687 201.895 C 210.779 201.286,210.777 200.386,210.682 199.895 C 210.587 199.403,210.511 199.900,210.514 201.000 M210.867 205.170 C 210.664 211.722,216.962 222.453,223.600 226.863 L 225.400 228.059 223.800 226.730 C 216.233 220.443,211.761 212.669,211.071 204.600 C 210.959 203.283,210.923 203.384,210.867 205.170 M191.268 208.800 C 191.287 210.450,191.917 212.156,191.932 210.600 C 191.938 209.940,191.789 209.040,191.600 208.600 C 191.287 207.873,191.257 207.891,191.268 208.800 M192.047 212.600 C 192.028 213.040,192.281 214.210,192.610 215.200 C 193.000 216.374,193.146 216.583,193.031 215.800 C 192.748 213.871,192.085 211.718,192.047 212.600 M273.400 214.635 L 271.400 215.175 273.100 214.988 C 274.035 214.884,275.543 214.689,276.452 214.553 C 281.136 213.853,290.321 221.071,287.200 223.000 C 286.980 223.136,286.800 223.498,286.800 223.805 C 286.800 227.881,275.849 239.460,268.267 243.403 C 266.442 244.351,265.871 245.013,267.475 244.319 C 274.499 241.282,283.788 231.902,287.028 224.576 C 288.482 221.287,288.348 220.412,286.100 218.556 C 280.399 213.847,278.494 213.259,273.400 214.635 M101.400 215.265 C 102.500 215.411,110.446 215.546,119.057 215.565 C 132.945 215.596,134.742 215.672,134.957 216.233 C 135.091 216.581,135.221 227.786,135.247 241.133 C 135.273 254.480,135.447 265.940,135.634 266.600 C 135.874 267.449,135.918 267.052,135.786 265.241 C 135.684 263.834,135.597 252.224,135.594 239.441 C 135.591 226.659,135.456 215.993,135.294 215.739 C 135.081 215.406,130.065 215.239,117.200 215.139 C 107.410 215.063,100.300 215.119,101.400 215.265 M269.508 215.900 C 269.169 216.285,268.430 217.520,267.867 218.644 C 265.322 223.724,259.049 228.617,252.600 230.550 C 248.763 231.700,247.921 232.037,249.400 231.832 C 256.590 230.835,265.832 224.289,268.603 218.231 C 269.129 217.081,269.973 215.941,270.480 215.697 C 271.106 215.396,271.196 215.246,270.762 215.227 C 270.411 215.212,269.847 215.515,269.508 215.900 M193.200 217.358 C 193.200 217.990,195.622 223.311,195.820 223.113 C 195.916 223.017,195.647 222.220,195.223 221.342 C 194.799 220.464,194.330 219.262,194.182 218.669 C 193.951 217.750,193.200 216.747,193.200 217.358 M196.000 223.781 C 196.000 227.254,208.374 239.741,215.800 243.761 C 218.123 245.018,217.708 244.708,212.462 241.265 C 207.452 237.977,202.028 232.546,198.635 227.419 C 197.186 225.230,196.000 223.593,196.000 223.781 M225.801 228.401 C 226.093 228.873,228.735 230.093,231.000 230.802 C 231.880 231.077,233.013 231.459,233.519 231.651 C 234.024 231.843,234.834 231.986,235.319 231.968 C 236.340 231.932,236.432 231.969,231.997 230.623 C 230.126 230.054,228.006 229.232,227.288 228.795 C 225.833 227.910,225.432 227.804,225.801 228.401 M239.318 232.298 C 241.033 232.373,243.733 232.372,245.318 232.297 C 246.903 232.221,245.500 232.159,242.200 232.160 C 238.900 232.161,237.603 232.222,239.318 232.298 M219.800 245.804 C 220.900 246.320,222.790 247.042,224.000 247.407 C 225.210 247.773,226.613 248.236,227.119 248.436 C 227.624 248.636,228.344 248.788,228.719 248.773 C 229.658 248.736,228.518 248.258,225.400 247.382 C 222.981 246.702,220.786 245.882,219.505 245.181 C 219.123 244.971,218.583 244.815,218.305 244.833 C 218.027 244.852,218.700 245.289,219.800 245.804 M264.400 245.198 C 262.910 246.070,261.005 246.800,260.219 246.800 C 259.746 246.800,259.189 246.963,258.980 247.161 C 258.771 247.360,258.240 247.623,257.800 247.747 C 257.313 247.884,257.391 247.910,258.000 247.813 C 260.604 247.403,267.089 244.879,265.600 244.856 C 265.270 244.851,264.730 245.005,264.400 245.198 M254.400 248.400 C 253.613 248.909,255.016 248.909,256.200 248.400 C 256.933 248.085,256.916 248.054,256.000 248.034 C 255.450 248.022,254.730 248.187,254.400 248.400 M231.600 249.325 C 234.398 249.929,247.718 249.907,251.200 249.294 L 253.800 248.835 250.800 249.100 C 247.367 249.403,235.373 249.380,231.800 249.063 L 229.400 248.850 231.600 249.325 M156.854 266.505 C 156.825 267.113,156.964 267.923,157.165 268.305 C 157.366 268.687,158.064 270.097,158.715 271.437 C 159.877 273.827,160.210 274.315,162.563 277.082 C 163.885 278.636,168.723 282.210,169.056 281.878 C 169.176 281.757,168.748 281.387,168.104 281.054 C 163.741 278.798,157.911 271.043,157.087 266.400 C 156.913 265.426,156.908 265.428,156.854 266.505 M136.046 268.972 C 136.021 269.616,136.203 270.786,136.451 271.572 C 137.680 275.469,138.151 276.768,139.037 278.711 C 139.567 279.872,140.000 280.911,140.000 281.021 C 140.000 281.130,140.756 282.430,141.679 283.910 C 148.157 294.289,157.642 301.324,169.311 304.406 C 170.363 304.683,171.316 304.817,171.430 304.703 C 171.544 304.589,171.134 304.378,170.519 304.234 C 159.582 301.674,150.438 295.606,143.945 286.600 C 141.064 282.604,138.056 276.254,137.124 272.200 C 136.054 267.551,136.097 267.678,136.046 268.972 M319.826 271.904 C 318.306 274.876,312.901 280.228,309.971 281.663 C 304.276 284.452,311.124 284.188,241.400 284.312 C 182.633 284.417,175.577 284.320,173.000 283.376 C 172.441 283.171,172.321 283.211,172.600 283.509 C 173.726 284.709,178.448 284.800,239.600 284.800 C 299.576 284.800,305.193 284.701,306.600 283.618 C 306.820 283.449,307.458 283.201,308.018 283.068 C 311.925 282.139,321.876 272.211,321.129 269.989 C 321.058 269.779,320.472 270.641,319.826 271.904 M342.229 271.429 C 342.081 272.015,342.051 272.584,342.161 272.694 C 342.271 272.804,342.481 272.415,342.629 271.829 C 342.776 271.242,342.806 270.673,342.696 270.563 C 342.586 270.453,342.376 270.842,342.229 271.429 M341.213 274.846 C 338.777 282.605,331.141 292.924,324.800 297.028 C 323.810 297.668,322.910 298.284,322.800 298.396 C 322.389 298.815,319.531 300.319,316.679 301.617 C 315.623 302.098,314.849 302.583,314.961 302.694 C 315.664 303.397,325.904 297.067,329.926 293.443 C 334.781 289.068,342.705 275.916,341.915 273.545 C 341.832 273.296,341.516 273.881,341.213 274.846 M170.224 282.587 C 170.651 282.910,171.270 283.179,171.600 283.185 C 171.930 283.190,171.684 282.926,171.054 282.598 C 169.595 281.837,169.225 281.832,170.224 282.587 M312.400 303.161 C 312.070 303.346,310.810 303.730,309.600 304.014 C 308.390 304.298,307.596 304.596,307.835 304.677 C 308.303 304.834,311.957 303.937,313.600 303.262 C 314.447 302.914,314.477 302.849,313.800 302.838 C 313.360 302.830,312.730 302.976,312.400 303.161 M175.000 305.386 C 179.856 306.227,299.045 306.230,304.000 305.389 L 307.400 304.812 304.400 305.106 C 300.545 305.484,179.244 305.493,175.000 305.116 L 171.800 304.832 175.000 305.386 " stroke="none" fill="#acacf4" fill-rule="evenodd"></path><path id="path3" d="M175.300 97.076 C 175.685 97.176,176.315 97.176,176.700 97.076 C 177.085 96.975,176.770 96.893,176.000 96.893 C 175.230 96.893,174.915 96.975,175.300 97.076 M302.705 97.083 C 303.202 97.179,303.922 97.175,304.305 97.075 C 304.687 96.975,304.280 96.896,303.400 96.901 C 302.520 96.905,302.207 96.987,302.705 97.083 M65.787 104.100 L 63.400 106.600 65.900 104.213 C 67.275 102.899,68.400 101.774,68.400 101.713 C 68.400 101.417,68.005 101.778,65.787 104.100 M147.978 110.300 L 146.600 111.800 148.100 110.422 C 148.925 109.663,149.600 108.988,149.600 108.922 C 149.600 108.616,149.262 108.904,147.978 110.300 M58.501 121.000 C 58.505 121.880,58.587 122.193,58.683 121.695 C 58.779 121.198,58.775 120.478,58.675 120.095 C 58.575 119.713,58.496 120.120,58.501 121.000 M163.178 125.500 L 161.800 127.000 163.300 125.622 C 164.125 124.863,164.800 124.188,164.800 124.122 C 164.800 123.816,164.462 124.104,163.178 125.500 M343.444 135.400 C 343.773 136.871,344.002 137.190,343.994 136.167 C 343.991 135.745,343.805 135.130,343.582 134.800 C 343.285 134.362,343.248 134.524,343.444 135.400 M134.989 166.000 C 134.989 181.290,135.039 187.545,135.100 179.900 C 135.161 172.255,135.161 159.745,135.100 152.100 C 135.039 144.455,134.989 150.710,134.989 166.000 M322.595 201.400 C 322.595 235.720,322.642 249.701,322.700 232.469 C 322.758 215.236,322.758 187.156,322.700 170.069 C 322.642 152.981,322.595 167.080,322.595 201.400 M72.400 164.720 L 72.600 185.800 72.704 165.024 C 72.761 153.597,72.671 144.111,72.504 143.943 C 72.337 143.776,72.290 153.126,72.400 164.720 M240.905 152.287 C 241.514 152.379,242.414 152.377,242.905 152.282 C 243.397 152.187,242.900 152.111,241.800 152.114 C 240.700 152.117,240.297 152.195,240.905 152.287 M237.100 152.682 C 237.595 152.778,238.405 152.778,238.900 152.682 C 239.395 152.587,238.990 152.509,238.000 152.509 C 237.010 152.509,236.605 152.587,237.100 152.682 M244.905 152.687 C 245.514 152.779,246.414 152.777,246.905 152.682 C 247.397 152.587,246.900 152.511,245.800 152.514 C 244.700 152.517,244.297 152.595,244.905 152.687 M203.988 167.500 L 201.400 170.200 204.100 167.612 C 205.585 166.188,206.800 164.973,206.800 164.912 C 206.800 164.617,206.393 164.992,203.988 167.500 M210.924 201.000 C 210.926 202.320,211.001 202.812,211.090 202.093 C 211.179 201.374,211.177 200.294,211.086 199.693 C 210.995 199.092,210.922 199.680,210.924 201.000 M190.520 201.600 C 190.520 202.810,190.595 203.305,190.687 202.700 C 190.778 202.095,190.778 201.105,190.687 200.500 C 190.595 199.895,190.520 200.390,190.520 201.600 M82.000 205.800 C 82.746 206.570,83.447 207.200,83.557 207.200 C 83.667 207.200,83.146 206.570,82.400 205.800 C 81.654 205.030,80.953 204.400,80.843 204.400 C 80.733 204.400,81.254 205.030,82.000 205.800 M281.600 214.946 C 281.600 215.056,282.140 215.530,282.800 216.000 C 283.460 216.470,284.000 216.764,284.000 216.654 C 284.000 216.544,283.460 216.070,282.800 215.600 C 282.140 215.130,281.600 214.836,281.600 214.946 M110.873 215.899 C 115.204 215.964,122.404 215.964,126.873 215.900 C 131.343 215.835,127.800 215.782,119.000 215.782 C 110.200 215.782,106.543 215.835,110.873 215.899 M134.988 240.400 C 134.988 253.710,135.038 259.155,135.100 252.500 C 135.161 245.845,135.161 234.955,135.100 228.300 C 135.038 221.645,134.988 227.090,134.988 240.400 M219.800 223.200 C 220.883 224.300,221.860 225.200,221.970 225.200 C 222.080 225.200,221.283 224.300,220.200 223.200 C 219.117 222.100,218.140 221.200,218.030 221.200 C 217.920 221.200,218.717 222.100,219.800 223.200 M263.586 223.900 L 261.400 226.200 263.700 224.014 C 265.837 221.982,266.183 221.600,265.886 221.600 C 265.824 221.600,264.789 222.635,263.586 223.900 M202.200 233.200 C 203.059 234.080,203.852 234.800,203.962 234.800 C 204.072 234.800,203.459 234.080,202.600 233.200 C 201.741 232.320,200.948 231.600,200.838 231.600 C 200.728 231.600,201.341 232.320,202.200 233.200 M206.600 237.600 C 207.459 238.480,208.252 239.200,208.362 239.200 C 208.472 239.200,207.859 238.480,207.000 237.600 C 206.141 236.720,205.348 236.000,205.238 236.000 C 205.128 236.000,205.741 236.720,206.600 237.600 M208.300 284.300 C 225.515 284.358,253.685 284.358,270.900 284.300 C 288.115 284.242,274.030 284.195,239.600 284.195 C 205.170 284.195,191.085 284.242,208.300 284.300 M154.000 297.346 C 154.000 297.456,154.540 297.930,155.200 298.400 C 155.860 298.870,156.400 299.164,156.400 299.054 C 156.400 298.944,155.860 298.470,155.200 298.000 C 154.540 297.530,154.000 297.236,154.000 297.346 M175.700 305.876 C 176.085 305.976,176.715 305.976,177.100 305.876 C 177.485 305.775,177.170 305.693,176.400 305.693 C 175.630 305.693,175.315 305.775,175.700 305.876 " stroke="none" fill="#b8bdf8" fill-rule="evenodd"></path><path id="path4" d="M76.800 97.200 C 76.005 97.714,77.004 97.714,78.200 97.200 L 79.000 96.856 78.200 96.834 C 77.760 96.822,77.130 96.987,76.800 97.200 M88.200 97.200 C 89.301 97.673,89.692 97.673,89.400 97.200 C 89.264 96.980,88.758 96.813,88.276 96.828 C 87.431 96.855,87.429 96.869,88.200 97.200 M171.784 97.226 C 171.605 97.515,172.012 97.562,173.061 97.372 C 175.103 97.003,175.255 96.800,173.490 96.800 C 172.697 96.800,171.929 96.991,171.784 97.226 M305.600 97.200 C 307.036 97.660,307.684 97.660,307.400 97.200 C 307.264 96.980,306.578 96.818,305.876 96.840 C 304.657 96.878,304.645 96.894,305.600 97.200 M73.824 98.213 C 73.396 98.536,73.225 98.800,73.444 98.800 C 73.662 98.800,74.011 98.637,74.220 98.439 C 74.429 98.240,74.960 97.991,75.400 97.885 L 76.200 97.693 75.400 97.659 C 74.960 97.641,74.251 97.890,73.824 98.213 M91.000 97.885 C 91.440 97.991,91.971 98.240,92.180 98.439 C 92.389 98.637,92.738 98.800,92.956 98.800 C 93.175 98.800,93.004 98.536,92.576 98.213 C 92.149 97.890,91.440 97.641,91.000 97.659 L 90.200 97.693 91.000 97.885 M167.600 98.200 C 166.965 98.563,166.827 98.777,167.220 98.786 C 167.561 98.794,168.011 98.634,168.220 98.431 C 168.429 98.228,169.140 97.985,169.800 97.891 L 171.000 97.720 169.800 97.674 C 169.140 97.649,168.150 97.886,167.600 98.200 M309.400 98.011 C 312.304 98.806,312.675 98.845,311.400 98.222 C 310.740 97.900,309.750 97.646,309.200 97.659 C 308.280 97.680,308.296 97.708,309.400 98.011 M96.607 100.652 C 97.483 101.231,99.360 102.806,100.777 104.152 C 102.195 105.498,103.095 106.244,102.777 105.809 C 101.239 103.701,96.310 99.600,95.315 99.600 C 95.150 99.600,95.731 100.073,96.607 100.652 M162.176 100.222 C 161.412 100.834,161.413 100.838,162.200 100.476 C 162.640 100.274,163.270 100.008,163.600 99.886 C 164.118 99.693,164.115 99.659,163.576 99.632 C 163.234 99.614,162.604 99.880,162.176 100.222 M316.146 100.202 C 317.596 100.959,318.034 100.951,317.024 100.187 C 316.596 99.864,315.966 99.601,315.624 99.602 C 315.281 99.604,315.516 99.874,316.146 100.202 M65.619 103.619 C 64.509 104.730,63.600 105.758,63.600 105.905 C 63.600 106.052,64.590 105.195,65.800 104.000 C 67.010 102.805,68.000 101.776,68.000 101.714 C 68.000 101.353,67.425 101.813,65.619 103.619 M157.949 102.265 C 157.447 102.874,157.485 102.887,158.400 102.411 C 159.741 101.714,159.842 101.600,159.116 101.600 C 158.776 101.600,158.251 101.899,157.949 102.265 M320.224 102.187 C 320.651 102.510,321.180 102.775,321.400 102.775 C 321.620 102.775,321.451 102.510,321.024 102.187 C 320.596 101.864,320.067 101.600,319.847 101.600 C 319.627 101.600,319.796 101.864,320.224 102.187 M153.884 104.796 C 150.756 107.151,149.600 108.155,149.600 108.518 C 149.600 108.725,150.313 108.249,151.185 107.461 C 152.057 106.673,153.497 105.570,154.385 105.009 C 155.915 104.044,156.369 103.566,155.700 103.627 C 155.535 103.642,154.718 104.168,153.884 104.796 M324.469 104.676 C 325.201 105.267,326.115 106.015,326.500 106.338 C 326.885 106.660,327.200 106.751,327.200 106.539 C 327.200 106.177,323.831 103.600,323.358 103.600 C 323.237 103.600,323.737 104.084,324.469 104.676 M62.247 107.628 C 61.240 109.332,61.610 109.447,62.708 107.771 C 63.203 107.017,63.465 106.400,63.290 106.400 C 63.115 106.400,62.646 106.952,62.247 107.628 M330.841 110.224 C 332.733 112.191,334.688 114.395,335.184 115.123 C 335.681 115.851,336.183 116.350,336.300 116.233 C 336.578 115.956,334.150 113.005,331.254 110.102 C 327.457 106.294,327.147 106.386,330.841 110.224 M105.200 110.078 C 105.200 110.205,105.469 110.824,105.798 111.454 C 106.126 112.084,106.390 112.330,106.385 112.000 C 106.379 111.670,106.110 111.051,105.787 110.624 C 105.464 110.196,105.200 109.951,105.200 110.078 M60.021 111.761 C 59.738 112.289,59.604 112.964,59.722 113.261 C 59.852 113.588,59.949 113.477,59.968 112.980 C 59.986 112.529,60.213 111.947,60.473 111.687 C 60.734 111.426,60.854 111.121,60.741 111.007 C 60.627 110.894,60.303 111.233,60.021 111.761 M145.515 112.374 C 144.648 113.386,143.464 115.200,143.669 115.200 C 143.758 115.200,144.508 114.390,145.335 113.400 C 146.163 112.410,146.691 111.600,146.509 111.600 C 146.327 111.600,145.880 111.948,145.515 112.374 M59.067 114.267 C 58.920 114.413,58.811 114.908,58.825 115.367 C 58.849 116.133,58.882 116.123,59.234 115.242 C 59.626 114.263,59.544 113.789,59.067 114.267 M107.475 116.600 C 107.896 118.152,107.896 124.648,107.475 126.200 C 107.182 127.281,107.201 127.321,107.675 126.600 C 108.400 125.496,108.400 117.304,107.675 116.200 C 107.201 115.479,107.182 115.519,107.475 116.600 M142.408 116.500 C 142.086 116.995,141.625 117.760,141.384 118.200 C 141.142 118.640,140.453 119.877,139.853 120.948 C 139.253 122.019,138.845 122.978,138.945 123.078 C 139.045 123.179,139.590 122.341,140.155 121.216 C 140.719 120.091,141.734 118.367,142.410 117.385 C 143.086 116.403,143.493 115.600,143.315 115.600 C 143.138 115.600,142.729 116.005,142.408 116.500 M337.292 118.171 C 337.786 118.926,338.243 119.490,338.308 119.426 C 338.507 119.227,337.019 116.805,336.696 116.803 C 336.529 116.801,336.797 117.417,337.292 118.171 M209.731 118.300 C 226.194 118.358,253.014 118.358,269.331 118.300 C 285.649 118.242,272.180 118.195,239.400 118.195 C 206.620 118.195,193.269 118.242,209.731 118.300 M176.400 118.800 C 175.484 119.093,175.517 119.123,176.800 119.154 C 177.570 119.173,178.470 119.013,178.800 118.800 C 179.554 118.313,177.922 118.313,176.400 118.800 M300.200 118.800 C 300.336 119.020,301.202 119.182,302.124 119.160 C 303.555 119.126,303.654 119.074,302.800 118.800 C 301.344 118.334,299.912 118.334,300.200 118.800 M58.267 119.067 C 57.876 119.457,57.953 123.306,58.364 123.955 C 58.582 124.300,58.694 123.430,58.658 121.657 C 58.626 120.087,58.585 118.802,58.567 118.801 C 58.548 118.801,58.413 118.920,58.267 119.067 M171.400 120.191 C 170.300 120.709,169.685 121.148,170.033 121.167 C 170.382 121.185,170.802 121.065,170.967 120.900 C 171.131 120.735,172.016 120.295,172.933 119.922 C 173.850 119.550,174.330 119.246,174.000 119.247 C 173.670 119.248,172.500 119.673,171.400 120.191 M306.000 119.874 C 306.770 120.216,307.733 120.667,308.139 120.876 C 308.545 121.085,308.974 121.160,309.091 121.043 C 309.208 120.926,308.785 120.624,308.152 120.372 C 307.518 120.120,306.687 119.753,306.305 119.557 C 305.923 119.361,305.383 119.212,305.105 119.226 C 304.827 119.240,305.230 119.531,306.000 119.874 M311.718 122.777 C 314.058 124.416,315.837 126.104,317.681 128.434 C 318.276 129.185,318.771 129.597,318.781 129.348 C 318.810 128.652,313.609 123.434,311.708 122.252 C 309.160 120.668,309.166 120.989,311.718 122.777 M339.200 121.278 C 339.200 121.405,339.469 122.024,339.798 122.654 C 340.126 123.284,340.390 123.530,340.385 123.200 C 340.379 122.870,340.110 122.251,339.787 121.824 C 339.464 121.396,339.200 121.151,339.200 121.278 M163.824 125.338 C 162.161 127.001,160.800 128.566,160.800 128.817 C 160.800 129.067,161.489 128.401,162.331 127.336 C 163.172 126.271,164.567 124.874,165.431 124.231 C 166.294 123.589,167.075 123.004,167.167 122.931 C 167.258 122.859,167.224 122.691,167.090 122.557 C 166.957 122.423,165.487 123.675,163.824 125.338 M138.085 124.573 C 137.386 126.108,137.492 126.817,138.213 125.433 C 138.548 124.791,138.765 124.096,138.696 123.888 C 138.627 123.680,138.352 123.988,138.085 124.573 M341.200 126.287 C 341.200 126.543,341.380 126.864,341.600 127.000 C 341.820 127.136,342.025 127.732,342.054 128.324 C 342.102 129.257,342.132 129.281,342.281 128.506 C 342.376 128.015,342.172 127.210,341.827 126.717 C 341.482 126.225,341.200 126.031,341.200 126.287 M58.828 127.476 C 58.813 127.958,58.980 128.464,59.200 128.600 C 59.673 128.892,59.673 128.501,59.200 127.400 C 58.869 126.629,58.855 126.631,58.828 127.476 M59.659 129.800 C 59.641 130.240,59.890 130.949,60.213 131.376 C 60.536 131.804,60.800 131.975,60.800 131.756 C 60.800 131.538,60.637 131.189,60.439 130.980 C 60.240 130.771,59.991 130.240,59.885 129.800 L 59.693 129.000 59.659 129.800 M136.021 130.749 C 135.753 131.395,135.615 132.346,135.713 132.862 C 135.871 133.695,135.897 133.673,135.946 132.674 C 135.975 132.054,136.195 131.184,136.432 130.739 C 136.670 130.295,136.784 129.851,136.686 129.753 C 136.588 129.655,136.289 130.103,136.021 130.749 M159.657 130.457 C 159.375 130.909,159.232 131.366,159.340 131.473 C 159.447 131.581,159.744 131.278,160.000 130.800 C 160.256 130.322,160.398 129.865,160.317 129.784 C 160.236 129.703,159.939 130.006,159.657 130.457 M105.895 131.218 C 105.595 132.352,102.932 136.614,101.844 137.700 C 101.458 138.085,101.296 138.400,101.483 138.400 C 102.325 138.400,106.515 131.861,106.306 130.872 C 106.204 130.393,106.086 130.492,105.895 131.218 M319.600 131.447 C 319.600 131.667,319.864 132.196,320.187 132.624 C 320.510 133.051,320.775 133.220,320.775 133.000 C 320.775 132.780,320.510 132.251,320.187 131.824 C 319.864 131.396,319.600 131.227,319.600 131.447 M60.808 132.454 C 60.765 133.772,64.759 138.959,67.000 140.496 C 67.699 140.975,67.316 140.441,66.083 139.218 C 64.919 138.063,63.258 136.011,62.392 134.659 C 61.526 133.306,60.813 132.314,60.808 132.454 M343.477 133.800 C 343.891 135.522,343.869 267.200,343.455 268.400 C 343.166 269.237,343.199 269.315,343.655 268.880 C 344.526 268.049,344.666 136.409,343.798 134.171 C 343.390 133.117,343.284 132.995,343.477 133.800 M158.046 134.276 C 158.021 134.758,157.820 135.264,157.600 135.400 C 157.380 135.536,157.207 135.952,157.216 136.324 C 157.227 136.776,157.434 136.628,157.841 135.877 C 158.176 135.259,158.369 134.449,158.271 134.077 C 158.141 133.582,158.080 133.636,158.046 134.276 M135.049 135.415 C 134.912 135.773,134.820 136.636,134.844 137.333 C 134.882 138.437,134.933 138.371,135.236 136.825 C 135.593 135.005,135.494 134.257,135.049 135.415 M321.800 201.400 C 321.800 237.480,321.922 266.190,322.070 265.200 C 322.424 262.849,322.424 139.951,322.070 137.600 C 321.922 136.610,321.800 165.320,321.800 201.400 M156.654 140.256 C 156.275 143.027,156.393 261.142,156.777 263.000 C 156.959 263.880,157.129 236.205,157.154 201.500 C 157.179 166.795,157.134 138.400,157.054 138.400 C 156.974 138.400,156.794 139.235,156.654 140.256 M97.900 141.232 C 96.635 142.129,95.600 142.941,95.600 143.037 C 95.600 143.298,98.822 141.211,99.744 140.352 C 101.017 139.166,100.391 139.465,97.900 141.232 M71.520 143.680 C 71.880 144.040,72.007 149.352,72.028 164.980 C 72.044 176.431,72.179 186.109,72.328 186.487 C 72.641 187.276,72.507 145.463,72.192 144.100 C 72.078 143.605,71.772 143.200,71.512 143.200 C 71.153 143.200,71.155 143.315,71.520 143.680 M94.186 164.200 C 94.186 175.420,94.237 180.068,94.300 174.528 C 94.362 168.988,94.362 159.808,94.300 154.128 C 94.237 148.448,94.186 152.980,94.186 164.200 M237.694 151.975 C 236.315 152.142,235.058 152.408,234.901 152.566 C 234.743 152.723,235.601 152.709,236.807 152.533 C 239.424 152.153,244.155 152.143,247.200 152.511 C 248.550 152.675,249.084 152.644,248.583 152.432 C 247.356 151.914,240.544 151.628,237.694 151.975 M229.404 153.194 C 229.252 153.440,229.655 153.494,230.480 153.337 C 232.249 153.000,232.401 152.800,230.890 152.800 C 230.207 152.800,229.538 152.977,229.404 153.194 M252.433 152.944 C 252.905 153.350,254.843 153.593,254.610 153.216 C 254.468 152.987,253.883 152.800,253.310 152.800 C 252.736 152.800,252.342 152.865,252.433 152.944 M225.600 154.242 C 224.945 154.644,224.876 154.758,225.400 154.574 C 225.840 154.419,226.830 154.157,227.600 153.992 C 228.976 153.697,228.979 153.691,227.800 153.660 C 227.140 153.643,226.150 153.904,225.600 154.242 M256.600 153.992 C 257.480 154.153,258.560 154.413,259.000 154.570 C 259.518 154.755,259.447 154.639,258.800 154.242 C 258.250 153.904,257.170 153.644,256.400 153.664 L 255.000 153.700 256.600 153.992 M219.824 156.213 C 218.825 156.968,219.195 156.963,220.654 156.202 C 221.284 155.874,221.530 155.610,221.200 155.615 C 220.870 155.621,220.251 155.890,219.824 156.213 M263.000 155.885 C 263.440 155.991,263.971 156.240,264.180 156.439 C 264.389 156.637,264.738 156.800,264.956 156.800 C 265.175 156.800,265.004 156.536,264.576 156.213 C 264.149 155.890,263.440 155.641,263.000 155.659 L 262.200 155.693 263.000 155.885 M213.512 159.329 C 212.033 160.248,210.818 161.144,210.812 161.319 C 210.805 161.495,211.565 161.113,212.500 160.471 C 213.435 159.829,214.917 158.921,215.794 158.452 C 216.671 157.983,217.121 157.613,216.794 157.629 C 216.467 157.645,214.990 158.410,213.512 159.329 M267.824 158.187 C 268.251 158.510,268.780 158.775,269.000 158.775 C 269.220 158.775,269.051 158.510,268.624 158.187 C 268.196 157.864,267.667 157.600,267.447 157.600 C 267.227 157.600,267.396 157.864,267.824 158.187 M269.949 159.336 C 270.251 159.701,270.724 160.000,271.000 160.000 C 271.276 160.000,271.726 160.270,272.000 160.600 C 272.274 160.930,272.680 161.200,272.903 161.200 C 273.344 161.200,271.984 160.134,270.397 159.236 C 269.481 158.717,269.445 158.725,269.949 159.336 M209.400 162.031 C 209.180 162.245,208.468 162.859,207.817 163.394 C 207.167 163.930,206.717 164.447,206.817 164.543 C 206.918 164.640,207.810 164.018,208.800 163.161 C 209.790 162.303,210.420 161.611,210.200 161.621 C 209.980 161.631,209.620 161.816,209.400 162.031 M274.800 162.640 C 276.659 164.149,282.374 169.892,283.503 171.387 C 283.997 172.040,284.400 172.418,284.400 172.228 C 284.400 171.017,275.642 162.236,273.853 161.652 C 273.604 161.571,274.030 162.016,274.800 162.640 M200.759 170.500 C 200.040 171.435,199.350 172.389,199.226 172.619 C 198.907 173.210,200.679 171.221,201.648 169.900 C 202.948 168.127,202.192 168.638,200.759 170.500 M241.700 170.276 C 242.085 170.376,242.715 170.376,243.100 170.276 C 243.485 170.175,243.170 170.093,242.400 170.093 C 241.630 170.093,241.315 170.175,241.700 170.276 M236.600 170.800 C 235.569 171.062,235.693 171.112,237.476 171.153 C 238.618 171.179,239.664 171.020,239.800 170.800 C 240.084 170.341,238.405 170.341,236.600 170.800 M245.000 170.800 C 245.440 170.989,246.430 171.138,247.200 171.132 C 248.473 171.121,248.509 171.091,247.600 170.800 C 246.148 170.335,243.918 170.335,245.000 170.800 M232.000 171.825 C 231.230 172.116,230.894 172.365,231.254 172.377 C 231.614 172.390,232.514 172.137,233.254 171.816 C 234.920 171.092,233.916 171.100,232.000 171.825 M250.800 171.800 C 251.350 172.114,252.160 172.371,252.600 172.370 C 253.152 172.369,252.983 172.188,252.054 171.784 C 250.337 171.039,249.487 171.050,250.800 171.800 M284.804 173.000 C 284.805 173.220,285.163 173.940,285.600 174.600 C 286.636 176.164,286.637 175.608,285.601 173.910 C 285.162 173.189,284.804 172.780,284.804 173.000 M227.200 173.800 C 226.512 174.193,226.403 174.376,226.851 174.386 C 227.209 174.394,227.726 174.130,228.000 173.800 C 228.609 173.066,228.484 173.066,227.200 173.800 M256.061 173.818 C 256.424 174.189,256.940 174.420,257.206 174.331 C 257.473 174.242,257.175 173.939,256.545 173.656 C 255.473 173.176,255.442 173.186,256.061 173.818 M222.400 176.944 C 220.396 178.533,219.468 179.483,217.663 181.800 C 217.320 182.240,218.200 181.473,219.619 180.095 C 221.039 178.717,222.830 177.055,223.600 176.401 C 225.733 174.590,224.887 174.973,222.400 176.944 M260.000 176.057 C 260.550 176.589,261.688 177.546,262.530 178.183 C 264.098 179.369,267.059 183.295,267.938 185.352 C 268.209 185.985,268.518 186.416,268.625 186.308 C 269.497 185.436,263.770 178.276,260.400 176.023 L 259.000 175.088 260.000 176.057 M196.126 177.300 C 195.344 178.515,194.800 179.733,194.965 179.898 C 195.063 179.997,195.500 179.340,195.936 178.439 C 196.696 176.865,196.798 176.255,196.126 177.300 M287.206 177.624 C 287.237 178.540,288.366 180.844,288.370 180.000 C 288.372 179.450,288.110 178.651,287.787 178.224 C 287.464 177.796,287.203 177.526,287.206 177.624 M194.016 181.381 C 193.751 181.700,193.594 182.259,193.667 182.622 C 193.756 183.063,193.955 182.870,194.265 182.041 C 194.782 180.662,194.729 180.521,194.016 181.381 M287.510 183.522 C 287.153 184.126,285.781 185.650,284.460 186.910 C 283.140 188.169,282.201 189.200,282.374 189.200 C 283.225 189.200,288.782 183.049,288.335 182.601 C 288.238 182.504,287.866 182.919,287.510 183.522 M192.018 187.156 C 191.749 187.805,191.614 188.666,191.718 189.068 C 191.867 189.642,191.917 189.601,191.954 188.874 C 191.979 188.364,192.195 187.584,192.432 187.139 C 192.670 186.695,192.784 186.251,192.686 186.153 C 192.588 186.055,192.288 186.506,192.018 187.156 M95.211 187.040 C 95.232 187.722,97.542 190.463,99.070 191.619 C 100.724 192.871,101.602 193.166,100.800 192.200 C 100.526 191.870,100.145 191.600,99.954 191.600 C 99.386 191.600,97.572 189.912,96.345 188.240 C 95.715 187.382,95.205 186.842,95.211 187.040 M268.800 187.007 C 268.800 187.587,270.204 188.374,271.200 188.353 C 272.176 188.332,272.173 188.323,271.074 187.993 C 270.455 187.808,269.690 187.441,269.374 187.179 C 269.058 186.917,268.800 186.839,268.800 187.007 M213.656 188.255 C 213.176 189.327,213.186 189.358,213.818 188.739 C 214.189 188.376,214.420 187.860,214.331 187.594 C 214.242 187.327,213.939 187.625,213.656 188.255 M72.828 189.876 C 72.813 190.358,72.980 190.864,73.200 191.000 C 73.673 191.292,73.673 190.901,73.200 189.800 C 72.869 189.029,72.855 189.031,72.828 189.876 M275.992 189.581 C 277.218 190.368,279.502 190.478,280.668 189.807 C 281.730 189.195,281.738 189.171,280.800 189.423 C 279.401 189.800,278.420 189.815,276.800 189.486 C 275.862 189.295,275.595 189.326,275.992 189.581 M191.067 190.667 C 190.920 190.813,190.816 191.488,190.836 192.167 L 190.872 193.400 191.259 192.056 C 191.645 190.713,191.569 190.164,191.067 190.667 M73.667 192.400 C 73.644 192.950,73.890 193.749,74.213 194.176 C 74.536 194.604,74.800 194.775,74.800 194.556 C 74.800 194.338,74.635 193.989,74.434 193.780 C 74.232 193.571,73.987 192.950,73.888 192.400 L 73.709 191.400 73.667 192.400 M211.917 193.600 C 211.774 194.370,211.552 195.540,211.423 196.200 C 211.244 197.121,211.334 197.028,211.810 195.800 C 212.151 194.920,212.373 193.750,212.303 193.200 C 212.195 192.346,212.138 192.404,211.917 193.600 M102.000 193.200 C 102.330 193.413,102.870 193.588,103.200 193.588 C 103.733 193.588,103.733 193.545,103.200 193.200 C 102.870 192.987,102.330 192.812,102.000 192.812 C 101.467 192.812,101.467 192.855,102.000 193.200 M111.474 193.899 C 115.694 193.964,122.714 193.964,127.074 193.900 C 131.433 193.835,127.980 193.782,119.400 193.782 C 110.820 193.782,107.253 193.835,111.474 193.899 M75.600 197.125 C 75.600 197.704,78.263 202.000,78.622 202.000 C 78.750 202.000,78.505 201.505,78.077 200.900 C 77.649 200.295,76.917 199.083,76.450 198.206 C 75.982 197.329,75.600 196.843,75.600 197.125 M190.243 198.233 C 189.921 199.071,189.983 203.616,190.328 204.484 C 190.478 204.861,190.606 203.466,190.613 201.384 C 190.628 197.350,190.617 197.258,190.243 198.233 M79.437 203.400 C 79.797 203.950,80.283 204.400,80.516 204.400 C 80.749 204.400,80.517 203.950,80.000 203.400 C 79.483 202.850,78.998 202.400,78.921 202.400 C 78.844 202.400,79.076 202.850,79.437 203.400 M211.440 206.000 C 211.577 206.770,211.829 208.030,211.999 208.800 L 212.308 210.200 212.324 208.800 C 212.332 208.030,212.081 206.770,211.764 206.000 L 211.190 204.600 211.440 206.000 M83.600 207.554 C 83.600 207.749,84.095 208.225,84.700 208.612 L 85.800 209.315 84.830 208.258 C 83.782 207.114,83.600 207.010,83.600 207.554 M86.000 209.400 C 86.000 209.747,90.320 212.400,90.881 212.398 C 91.166 212.396,90.950 212.159,90.400 211.870 C 89.850 211.581,88.635 210.859,87.700 210.267 C 86.765 209.675,86.000 209.284,86.000 209.400 M190.840 210.276 C 190.818 210.978,190.980 211.664,191.200 211.800 C 191.660 212.084,191.660 211.436,191.200 210.000 C 190.894 209.045,190.878 209.057,190.840 210.276 M191.641 213.824 C 191.618 214.496,191.885 215.396,192.233 215.824 C 192.856 216.589,192.861 216.589,192.583 215.800 C 192.428 215.360,192.162 214.460,191.991 213.800 L 191.682 212.600 191.641 213.824 M213.225 213.000 C 213.225 213.220,213.490 213.749,213.813 214.176 C 214.136 214.604,214.400 214.773,214.400 214.553 C 214.400 214.333,214.136 213.804,213.813 213.376 C 213.490 212.949,213.225 212.780,213.225 213.000 M93.918 213.828 C 94.411 214.173,95.127 214.374,95.507 214.274 C 96.033 214.137,95.989 214.082,95.324 214.046 C 94.842 214.021,94.336 213.820,94.200 213.600 C 94.064 213.380,93.743 213.200,93.487 213.200 C 93.231 213.200,93.425 213.483,93.918 213.828 M272.800 214.236 C 272.030 214.552,271.850 214.697,272.400 214.557 C 274.548 214.010,280.010 213.910,280.609 214.408 C 280.954 214.694,281.200 214.729,281.200 214.492 C 281.200 213.448,275.166 213.264,272.800 214.236 M96.800 214.800 C 97.130 215.013,97.670 215.188,98.000 215.188 C 98.533 215.188,98.533 215.145,98.000 214.800 C 97.670 214.587,97.130 214.412,96.800 214.412 C 96.267 214.412,96.267 214.455,96.800 214.800 M101.120 215.641 C 101.548 216.102,104.575 216.204,118.320 216.223 L 135.000 216.246 118.600 216.021 C 109.580 215.898,101.840 215.636,101.400 215.439 C 100.727 215.139,100.682 215.171,101.120 215.641 M267.878 217.600 C 267.628 218.260,267.284 218.800,267.112 218.800 C 266.941 218.800,266.800 219.019,266.800 219.286 C 266.800 219.616,266.968 219.584,267.326 219.186 C 267.956 218.484,268.877 216.400,268.557 216.400 C 268.432 216.400,268.127 216.940,267.878 217.600 M192.826 217.905 C 192.812 218.183,192.959 218.723,193.153 219.105 C 193.348 219.487,193.738 220.295,194.021 220.899 C 194.303 221.504,194.607 221.927,194.695 221.838 C 194.783 221.750,194.685 221.345,194.476 220.939 C 194.267 220.533,193.816 219.570,193.474 218.800 C 193.131 218.030,192.840 217.627,192.826 217.905 M286.773 218.903 C 287.528 219.720,288.224 220.309,288.320 220.213 C 288.506 220.027,287.993 219.495,286.388 218.209 C 285.818 217.752,285.980 218.045,286.773 218.903 M216.800 219.074 C 216.800 219.677,221.024 224.202,222.911 225.620 C 223.930 226.385,223.595 225.972,222.067 224.577 C 220.674 223.306,218.919 221.460,218.167 220.475 C 217.415 219.491,216.800 218.860,216.800 219.074 M265.588 221.277 L 264.688 222.600 265.784 221.474 C 266.388 220.854,266.792 220.259,266.684 220.151 C 266.576 220.043,266.082 220.549,265.588 221.277 M287.929 222.600 C 287.798 223.040,287.558 223.760,287.396 224.200 C 287.144 224.886,287.198 224.870,287.779 224.093 C 288.151 223.593,288.391 222.873,288.312 222.493 C 288.187 221.892,288.136 221.906,287.929 222.600 M262.000 224.881 C 260.790 226.006,260.340 226.555,261.000 226.100 C 262.139 225.315,264.746 222.780,264.375 222.818 C 264.279 222.828,263.210 223.757,262.000 224.881 M196.800 226.800 C 196.800 227.020,196.952 227.200,197.137 227.200 C 197.322 227.200,197.813 227.830,198.228 228.600 C 198.643 229.370,199.130 230.000,199.310 230.000 C 199.491 230.000,199.081 229.190,198.400 228.200 C 197.146 226.378,196.800 226.075,196.800 226.800 M225.019 227.230 C 225.146 227.437,225.799 227.889,226.469 228.236 C 227.140 228.582,227.575 228.683,227.436 228.458 C 227.297 228.234,226.645 227.782,225.985 227.453 C 225.326 227.124,224.891 227.024,225.019 227.230 M284.712 229.228 C 283.900 230.533,283.315 231.600,283.413 231.600 C 283.708 231.600,286.535 227.202,286.356 227.022 C 286.264 226.931,285.525 227.924,284.712 229.228 M255.000 229.200 C 254.864 229.420,254.348 229.600,253.853 229.600 C 252.939 229.600,251.002 230.764,251.876 230.787 C 252.138 230.794,252.464 230.620,252.600 230.400 C 252.736 230.180,253.252 230.000,253.747 230.000 C 254.661 230.000,256.598 228.836,255.724 228.813 C 255.462 228.806,255.136 228.980,255.000 229.200 M231.146 230.216 C 231.886 230.537,232.606 230.794,232.746 230.786 C 233.266 230.757,230.976 229.628,230.400 229.630 C 230.070 229.631,230.406 229.894,231.146 230.216 M234.600 231.200 C 235.711 231.678,236.495 231.678,236.200 231.200 C 236.064 230.980,235.468 230.813,234.876 230.828 C 233.915 230.853,233.886 230.893,234.600 231.200 M248.000 231.200 C 247.236 231.694,248.058 231.694,249.600 231.200 L 250.600 230.880 249.600 230.846 C 249.050 230.827,248.330 230.987,248.000 231.200 M239.500 231.896 C 240.875 231.974,243.125 231.974,244.500 231.896 C 245.875 231.818,244.750 231.754,242.000 231.754 C 239.250 231.754,238.125 231.818,239.500 231.896 M202.463 233.914 C 203.418 234.967,205.100 236.622,206.200 237.593 C 207.300 238.563,206.584 237.702,204.608 235.679 C 200.730 231.707,199.664 230.830,202.463 233.914 M279.400 235.677 C 276.938 238.184,276.453 238.804,277.866 237.638 C 279.590 236.215,283.535 231.988,283.124 232.005 C 283.056 232.008,281.380 233.660,279.400 235.677 M273.483 240.679 C 272.429 241.460,271.652 242.185,271.757 242.290 C 271.960 242.493,272.202 242.322,274.400 240.429 C 276.276 238.813,275.839 238.932,273.483 240.679 M210.000 240.754 C 210.000 240.970,210.328 241.250,210.729 241.378 C 211.131 241.505,211.863 241.985,212.356 242.445 C 212.849 242.904,213.344 243.190,213.455 243.079 C 213.565 242.968,212.834 242.311,211.828 241.619 C 210.823 240.928,210.000 240.538,210.000 240.754 M215.338 244.236 C 216.176 244.805,216.946 245.187,217.048 245.085 C 217.238 244.895,214.573 243.200,214.084 243.200 C 213.936 243.200,214.500 243.666,215.338 244.236 M268.081 244.081 C 267.356 244.529,266.832 244.965,266.916 245.050 C 267.127 245.260,269.529 244.039,269.816 243.575 C 270.172 242.998,269.532 243.185,268.081 244.081 M218.224 245.787 C 218.651 246.110,219.270 246.374,219.600 246.373 C 219.948 246.372,219.780 246.132,219.200 245.800 C 217.885 245.048,217.236 245.040,218.224 245.787 M264.800 245.800 C 264.220 246.132,264.052 246.372,264.400 246.373 C 264.730 246.374,265.349 246.110,265.776 245.787 C 266.764 245.040,266.115 245.048,264.800 245.800 M223.424 247.787 C 223.851 248.110,224.650 248.372,225.200 248.370 C 225.994 248.366,225.871 248.246,224.600 247.788 C 222.587 247.063,222.466 247.063,223.424 247.787 M260.287 247.446 C 260.151 247.582,259.446 247.833,258.720 248.005 C 257.627 248.264,257.572 248.323,258.400 248.345 C 258.950 248.360,259.850 248.114,260.400 247.800 C 260.950 247.486,261.205 247.222,260.967 247.214 C 260.728 247.206,260.422 247.311,260.287 247.446 M226.600 248.800 C 226.736 249.020,227.242 249.187,227.724 249.172 C 228.569 249.145,228.571 249.131,227.800 248.800 C 226.699 248.327,226.308 248.327,226.600 248.800 M255.600 248.800 L 254.600 249.120 255.676 249.160 C 256.268 249.182,256.864 249.020,257.000 248.800 C 257.281 248.345,257.020 248.345,255.600 248.800 M231.400 249.815 C 233.404 250.605,250.712 250.492,252.400 249.679 C 253.271 249.259,253.168 249.236,251.600 249.498 C 249.250 249.892,233.011 249.886,231.200 249.491 C 229.831 249.192,229.836 249.199,231.400 249.815 M134.800 265.910 C 134.800 266.813,134.984 267.667,135.209 267.806 C 135.479 267.973,135.528 267.469,135.354 266.329 C 135.003 264.044,134.800 263.890,134.800 265.910 M157.222 265.800 C 157.216 266.020,157.471 266.920,157.788 267.800 C 158.105 268.680,158.373 269.106,158.382 268.746 C 158.392 268.386,158.137 267.486,157.816 266.746 C 157.494 266.006,157.227 265.580,157.222 265.800 M135.664 270.000 C 135.644 270.770,135.904 271.850,136.242 272.400 C 136.639 273.047,136.755 273.118,136.570 272.600 C 136.413 272.160,136.153 271.080,135.992 270.200 L 135.700 268.600 135.664 270.000 M320.011 270.187 C 319.743 270.509,319.593 270.980,319.677 271.232 C 319.761 271.484,320.045 271.220,320.307 270.645 C 320.840 269.474,320.737 269.312,320.011 270.187 M159.202 271.476 C 159.203 271.654,159.651 272.340,160.196 273.000 L 161.189 274.200 160.569 272.908 C 159.960 271.638,159.198 270.840,159.202 271.476 M315.200 276.749 C 312.687 279.321,311.143 280.536,309.283 281.409 C 307.899 282.058,306.933 282.644,307.137 282.712 C 308.512 283.171,315.249 278.098,317.778 274.700 C 319.373 272.558,319.024 272.835,315.200 276.749 M341.932 274.400 C 341.806 274.950,341.578 275.760,341.426 276.200 C 341.274 276.640,341.442 276.495,341.799 275.877 C 342.157 275.259,342.385 274.449,342.305 274.077 C 342.202 273.594,342.095 273.687,341.932 274.400 M162.290 275.800 C 163.635 277.562,165.200 279.087,165.200 278.636 C 165.200 278.478,164.270 277.415,163.134 276.274 C 161.321 274.453,161.218 274.396,162.290 275.800 M137.617 276.800 C 137.631 277.517,138.765 279.600,138.786 278.946 C 138.794 278.696,138.531 277.976,138.202 277.346 C 137.874 276.716,137.610 276.470,137.617 276.800 M165.904 279.285 C 166.376 279.853,169.600 281.773,169.600 281.485 C 169.600 281.394,168.667 280.740,167.527 280.031 C 166.387 279.322,165.657 278.987,165.904 279.285 M339.657 280.057 C 339.375 280.509,339.232 280.966,339.340 281.073 C 339.447 281.181,339.744 280.878,340.000 280.400 C 340.605 279.270,340.324 278.990,339.657 280.057 M139.600 281.095 C 139.600 281.744,142.914 287.173,143.319 287.188 C 143.495 287.195,143.113 286.435,142.471 285.500 C 141.829 284.565,140.921 283.083,140.452 282.206 C 139.983 281.329,139.600 280.829,139.600 281.095 M173.400 283.200 C 174.501 283.673,174.892 283.673,174.600 283.200 C 174.464 282.980,173.958 282.813,173.476 282.828 C 172.631 282.855,172.629 282.869,173.400 283.200 M304.800 283.200 C 304.267 283.545,304.267 283.588,304.800 283.588 C 305.130 283.588,305.670 283.413,306.000 283.200 C 306.533 282.855,306.533 282.812,306.000 282.812 C 305.670 282.812,305.130 282.987,304.800 283.200 M207.300 283.900 C 225.065 283.958,254.135 283.958,271.900 283.900 C 289.665 283.842,275.130 283.795,239.600 283.795 C 204.070 283.795,189.535 283.842,207.300 283.900 M143.601 287.729 C 143.600 287.909,143.856 288.313,144.169 288.626 C 144.482 288.940,145.115 289.674,145.575 290.259 C 146.035 290.844,146.480 291.250,146.565 291.161 C 146.650 291.072,146.018 290.190,145.161 289.200 C 144.303 288.210,143.602 287.548,143.601 287.729 M330.430 292.744 C 327.916 295.305,326.566 296.866,327.430 296.213 C 329.922 294.330,336.142 287.746,335.147 288.044 C 335.066 288.068,332.943 290.183,330.430 292.744 M148.800 293.460 C 148.800 293.868,149.483 294.488,151.800 296.185 C 153.618 297.515,153.404 297.248,150.700 294.811 C 149.655 293.869,148.800 293.261,148.800 293.460 M324.200 298.235 L 323.000 299.266 324.300 298.406 C 325.015 297.933,325.600 297.468,325.600 297.373 C 325.600 297.073,325.431 297.178,324.200 298.235 M156.584 299.575 C 156.813 299.945,159.107 301.200,159.554 301.200 C 159.682 301.200,159.123 300.750,158.314 300.200 C 156.773 299.153,156.194 298.944,156.584 299.575 M321.424 299.813 C 320.996 300.136,320.827 300.400,321.047 300.400 C 321.267 300.400,321.796 300.136,322.224 299.813 C 322.651 299.490,322.820 299.225,322.600 299.225 C 322.380 299.225,321.851 299.490,321.424 299.813 M160.624 301.787 C 161.051 302.110,161.670 302.379,162.000 302.385 C 162.330 302.390,162.084 302.126,161.454 301.798 C 159.995 301.037,159.625 301.032,160.624 301.787 M317.600 301.833 C 317.042 302.143,316.865 302.385,317.200 302.381 C 317.530 302.378,318.149 302.110,318.576 301.787 C 319.539 301.059,318.945 301.087,317.600 301.833 M165.424 303.787 C 165.851 304.110,166.650 304.372,167.200 304.370 C 167.994 304.366,167.871 304.246,166.600 303.788 C 164.587 303.063,164.466 303.063,165.424 303.787 M313.380 303.566 C 313.171 303.768,312.550 304.013,312.000 304.112 L 311.000 304.291 312.024 304.346 C 312.586 304.375,313.396 304.136,313.824 303.813 C 314.251 303.490,314.411 303.220,314.180 303.213 C 313.949 303.206,313.589 303.365,313.380 303.566 M168.800 304.800 C 169.130 305.013,169.670 305.188,170.000 305.188 C 170.533 305.188,170.533 305.145,170.000 304.800 C 169.670 304.587,169.130 304.412,168.800 304.412 C 168.267 304.412,168.267 304.455,168.800 304.800 M309.400 304.800 C 308.629 305.131,308.631 305.145,309.476 305.172 C 309.958 305.187,310.464 305.020,310.600 304.800 C 310.892 304.327,310.501 304.327,309.400 304.800 M173.120 305.672 C 173.861 306.424,304.580 306.459,305.800 305.707 C 306.492 305.280,306.412 305.253,305.200 305.507 C 303.263 305.912,175.286 305.878,173.800 305.472 C 172.808 305.200,172.690 305.235,173.120 305.672 " stroke="none" fill="#d6d9fc" fill-rule="evenodd"></path></g></svg>