<svg xmlns="http://www.w3.org/2000/svg" version="1.1" xmlns:xlink="http://www.w3.org/1999/xlink" xmlns:svgjs="http://svgjs.dev/svgjs" width="308" height="308" viewBox="0 0 2000 1252"><g transform="matrix(1,0,0,1,-1.2121212121212466,-2.01935483870966)"><svg viewBox="0 0 396 248" data-background-color="#ffffff" preserveAspectRatio="xMidYMid meet" height="1252" width="2000" xmlns="http://www.w3.org/2000/svg" xmlns:xlink="http://www.w3.org/1999/xlink"><g id="tight-bounds" transform="matrix(1,0,0,1,0.2400000000000091,0.4000000000000057)"><svg viewBox="0 0 395.52 247.2" height="247.2" width="395.52"><g><svg></svg></g><g><svg viewBox="0 0 395.52 247.2" height="247.2" width="395.52"><g transform="matrix(1,0,0,1,114.27533076923076,47.215199999999996)"><svg viewBox="0 0 166.96933846153846 152.7696" height="152.7696" width="166.96933846153846"><g><svg viewBox="0 0 166.96933846153846 152.7696" height="152.7696" width="166.96933846153846"><g><svg viewBox="0 0 166.96933846153846 152.7696" height="152.7696" width="166.96933846153846"><g><svg viewBox="0 0 166.96933846153846 152.7696" height="152.7696" width="166.96933846153846"><g id="textblocktransform"><svg viewBox="0 0 166.96933846153846 152.7696" height="152.7696" width="166.96933846153846" id="textblock"><g><svg viewBox="0 0 166.96933846153846 152.7696" height="152.7696" width="166.96933846153846"><g transform="matrix(1,0,0,1,0,0)"><svg width="166.96933846153846" viewBox="0.7 -15.4 17.05 15.6" height="152.7696" data-palette-color="#b81d33"><path d="M4.6 0.2L4.6 0.2Q3.15 0.2 1.93-0.7 0.7-1.6 0.7-3.15L0.7-3.15Q0.7-4.3 1.45-5.9 2.2-7.5 3.43-9.15 4.65-10.8 6.15-12.23 7.65-13.65 9.13-14.53 10.6-15.4 11.8-15.4L11.8-15.4Q12.2-15.4 12.68-15.28 13.15-15.15 13.35-14.75L13.35-14.75Q14.35-14.8 14.75-14.18 15.15-13.55 15.15-12.65L15.15-12.65Q15.15-11.3 14.38-9.6 13.6-7.9 12.55-6.35 11.5-4.8 10.65-3.8L10.65-3.8 10.95-3.75Q12.4-3.7 13.53-4.35 14.65-5 15.63-6 16.6-7 17.5-7.9L17.5-7.9 17.6-8Q17.75-8 17.75-7.75L17.75-7.75Q17.75-7.65 17.7-7.6L17.7-7.6Q17-6.6 15.9-5.58 14.8-4.55 13.5-3.88 12.2-3.2 10.9-3.2L10.9-3.2Q10.7-3.2 10.53-3.2 10.35-3.2 10.15-3.25L10.15-3.25Q9.5-2.55 8.6-1.75 7.7-0.95 6.68-0.38 5.65 0.2 4.6 0.2ZM4.9-0.55L4.9-0.55Q6.2-0.55 7.43-1.65 8.65-2.75 9.45-3.65L9.45-3.65Q9.15-3.8 8.7-4.17 8.25-4.55 8.25-4.95L8.25-4.95Q8.25-5.65 9.2-6.28 10.15-6.9 11.3-7.4 12.45-7.9 12.95-8.15L12.95-8.15Q13.45-8.95 13.85-10.03 14.25-11.1 14.25-12.05L14.25-12.05Q14.25-12.6 14.03-13 13.8-13.4 13.15-13.4L13.15-13.4Q12.6-13.4 12-13.15 11.4-12.9 10.95-12.65L10.95-12.65Q8.4-11.3 6.33-8.95 4.25-6.6 3.45-3.75L3.45-3.75Q3.4-3.45 3.33-3.13 3.25-2.8 3.25-2.5L3.25-2.5Q3.25-1.7 3.65-1.13 4.05-0.55 4.9-0.55Z" opacity="1" transform="matrix(1,0,0,1,0,0)" fill="#b81d33" class="wordmark-text-0" data-fill-palette-color="primary" id="text-0"></path></svg></g></svg></g></svg></g></svg></g></svg></g></svg></g></svg></g><g><path d="M207.085 0c30.402 0 58.24 10.976 79.768 29.183l-11.147 0c-19.26-14.022-42.974-22.294-68.621-22.295-25.647 0-49.361 8.272-68.621 22.295l-11.148 0c21.528-18.206 49.366-29.183 79.769-29.183zM330.685 123.6c0 23.981-6.829 46.366-18.65 65.318v-14.199c7.533-15.438 11.761-32.785 11.761-51.119 0-18.334-4.227-35.681-11.761-51.119v-14.199c11.82 18.952 18.649 41.337 18.65 65.318zM207.085 247.2c-30.402 0-58.24-10.976-79.769-29.183l11.148 0c19.26 14.022 42.974 22.294 68.621 22.295 25.647 0 49.361-8.272 68.621-22.295l11.147 0c-21.528 18.206-49.366 29.183-79.768 29.183z" fill="#b81d33" stroke="transparent" data-fill-palette-color="tertiary"></path></g></svg></g><defs></defs></svg><rect width="395.52" height="247.2" fill="none" stroke="none" visibility="hidden"></rect></g></svg></g></svg>